<?xml version="1.0" encoding="utf-8"?>
<!-- Generator: Adobe Illustrator 16.0.0, SVG Export Plug-In . SVG Version: 6.00 Build 0)  -->
<!DOCTYPE svg PUBLIC "-//W3C//DTD SVG 1.1//EN" "http://www.w3.org/Graphics/SVG/1.1/DTD/svg11.dtd">
<svg version="1.1" id="Layer_1" xmlns="http://www.w3.org/2000/svg" xmlns:xlink="http://www.w3.org/1999/xlink" x="0px" y="0px"
	 width="1024px" height="968.951px" viewBox="0 0 1024 968.951" enable-background="new 0 0 1024 968.951" xml:space="preserve">
<g>
	<g>
		
			<linearGradient id="SVGID_1_" gradientUnits="userSpaceOnUse" x1="566.9238" y1="697.0244" x2="566.9238" y2="-101.8073" gradientTransform="matrix(0.9781 -0.208 0.208 0.9781 -81.3981 134.1727)">
			<stop  offset="0" style="stop-color:#2C27CE"/>
			<stop  offset="1" style="stop-color:#EF1D68"/>
		</linearGradient>
		<path fill="url(#SVGID_1_)" d="M666.39,143.469L648.888,61.17L640.16,20.11c-1.977-9.282-11.114-15.258-20.399-13.284
			L330.634,68.303c-9.28,1.974-15.2,11.152-13.228,20.435l8.732,41.06L434.542,639.62c1.976,9.28,11.105,15.208,20.39,13.237
			l289.123-61.482c9.284-1.972,15.214-11.104,13.241-20.386L684.5,228.649c2.523-1.549,3.939-4.544,3.29-7.604l-15.303-71.968
			C671.838,146.017,669.322,143.858,666.39,143.469z"/>
		<g>
			<g>
				<g>
					<path fill="#E3FFF0" d="M596.415,607.657L596.415,607.657c-8.736,1.855-17.322-3.721-19.179-12.454l0,0
						c-1.856-8.732,3.717-17.318,12.453-19.18l0,0c8.733-1.855,17.319,3.722,19.18,12.455l0,0
						C610.725,597.211,605.148,605.797,596.415,607.657z"/>
				</g>
			</g>
			<g>
				<g>
					<path fill="#E3FFF0" d="M424.194,84.881L424.194,84.881c-3.547,0.757-7.037-1.509-7.794-5.059l0,0
						c-0.752-3.549,1.514-7.039,5.061-7.793l0,0c3.552-0.755,7.042,1.511,7.793,5.06l0,0
						C430.011,80.639,427.746,84.126,424.194,84.881z"/>
				</g>
			</g>
			<path fill="#E3FFF0" d="M514.196,61.502l-63.938,13.596c-1.308,0.278-2.59-0.557-2.87-1.865
				c-0.276-1.309,0.556-2.595,1.865-2.871l63.934-13.596c1.31-0.278,2.596,0.556,2.871,1.865
				C516.338,59.938,515.502,61.224,514.196,61.502z"/>
			
				<linearGradient id="SVGID_2_" gradientUnits="userSpaceOnUse" x1="564.5137" y1="776.9893" x2="564.5137" y2="119.6312" gradientTransform="matrix(0.9781 -0.208 0.208 0.9781 -81.3981 134.1727)">
				<stop  offset="0" style="stop-color:#2CA6EF"/>
				<stop  offset="1" style="stop-color:#B1FFFF"/>
			</linearGradient>
			<polygon fill="url(#SVGID_2_)" points="642.884,62.461 741.482,526.164 430.724,592.243 332.125,128.54 			"/>
		</g>
		<g>
			
				<linearGradient id="SVGID_3_" gradientUnits="userSpaceOnUse" x1="600.8281" y1="455.9683" x2="677.191" y2="328.8297" gradientTransform="matrix(0.9781 -0.208 0.208 0.9781 -81.3981 134.1727)">
				<stop  offset="0" style="stop-color:#2C27CE"/>
				<stop  offset="1" style="stop-color:#EF1D68"/>
			</linearGradient>
			<polygon fill="url(#SVGID_3_)" points="618.217,343.957 674.579,331.973 670.792,314.157 614.429,326.142 			"/>
			
				<rect x="472.148" y="350.473" transform="matrix(-0.9781 0.208 -0.208 -0.9781 1065.75 607.1055)" fill="#EBFFF8" width="57.623" height="18.211"/>
			
				<rect x="543.921" y="335.211" transform="matrix(-0.9781 0.208 -0.208 -0.9781 1204.5513 561.9875)" fill="#EBFFF8" width="57.622" height="18.213"/>
		</g>
		<g>
			<g>
				
					<rect x="420.148" y="373.656" transform="matrix(-0.9781 0.208 -0.208 -0.9781 1179.1571 687.1896)" fill="#EBFFF8" width="266.609" height="63.855"/>
			</g>
			<g>
				
					<linearGradient id="SVGID_4_" gradientUnits="userSpaceOnUse" x1="812.5732" y1="397.5381" x2="319.933" y2="397.5381" gradientTransform="matrix(0.9781 -0.208 0.208 0.9781 -81.3981 134.1727)">
					<stop  offset="0" style="stop-color:#36078B"/>
					<stop  offset="1" style="stop-color:#16B1FF"/>
				</linearGradient>
				<polygon fill="url(#SVGID_4_)" points="566.604,427.283 680.672,403.028 670.707,356.154 556.638,380.408 				"/>
			</g>
			<g>
				
					<linearGradient id="SVGID_5_" gradientUnits="userSpaceOnUse" x1="502.1924" y1="433.6958" x2="578.5511" y2="388.5203" gradientTransform="matrix(0.9781 -0.208 0.208 0.9781 -81.3981 134.1727)">
					<stop  offset="0" style="stop-color:#2C27CE"/>
					<stop  offset="1" style="stop-color:#EF1D68"/>
				</linearGradient>
				<polygon fill="url(#SVGID_5_)" points="562.424,428.173 552.07,430.375 542.1,383.499 552.453,381.298 				"/>
			</g>
			<g>
				
					<rect x="533.993" y="441.429" transform="matrix(-0.9781 0.208 -0.208 -0.9781 1324.4946 823.3385)" fill="#EBFFF8" width="169.942" height="79.738"/>
				
					<linearGradient id="SVGID_6_" gradientUnits="userSpaceOnUse" x1="286.4302" y1="461.7246" x2="657.4703" y2="461.7246" gradientTransform="matrix(0.9781 -0.208 0.208 0.9781 -81.3981 134.1727)">
					<stop  offset="0" style="stop-color:#2C27CE"/>
					<stop  offset="1" style="stop-color:#EF1D68"/>
				</linearGradient>
				<polygon fill="url(#SVGID_6_)" points="591.725,467.538 676.533,449.505 674.712,440.943 589.903,458.977 				"/>
				
					<linearGradient id="SVGID_7_" gradientUnits="userSpaceOnUse" x1="286.4194" y1="477.2842" x2="657.4695" y2="477.2842" gradientTransform="matrix(0.9781 -0.208 0.208 0.9781 -81.3981 134.1727)">
					<stop  offset="0" style="stop-color:#2C27CE"/>
					<stop  offset="1" style="stop-color:#EF1D68"/>
				</linearGradient>
				<polygon fill="url(#SVGID_7_)" points="615.092,478.477 679.77,464.723 677.948,456.164 613.271,469.915 				"/>
				
					<linearGradient id="SVGID_8_" gradientUnits="userSpaceOnUse" x1="286.4077" y1="492.8438" x2="657.47" y2="492.8438" gradientTransform="matrix(0.9781 -0.208 0.208 0.9781 -81.3981 134.1727)">
					<stop  offset="0" style="stop-color:#2C27CE"/>
					<stop  offset="1" style="stop-color:#EF1D68"/>
				</linearGradient>
				<polygon fill="url(#SVGID_8_)" points="639.385,489.216 683.005,479.94 681.184,471.382 637.564,480.658 				"/>
				
					<linearGradient id="SVGID_9_" gradientUnits="userSpaceOnUse" x1="812.5625" y1="492.8408" x2="319.938" y2="492.8409" gradientTransform="matrix(0.9781 -0.208 0.208 0.9781 -81.3981 134.1727)">
					<stop  offset="0" style="stop-color:#36078B"/>
					<stop  offset="1" style="stop-color:#16B1FF"/>
				</linearGradient>
				<polygon fill="url(#SVGID_9_)" points="607.997,495.889 633.995,490.36 632.175,481.801 606.177,487.33 				"/>
				
					<linearGradient id="SVGID_10_" gradientUnits="userSpaceOnUse" x1="286.4155" y1="508.4023" x2="657.4699" y2="508.4023" gradientTransform="matrix(0.9781 -0.208 0.208 0.9781 -81.3981 134.1727)">
					<stop  offset="0" style="stop-color:#2C27CE"/>
					<stop  offset="1" style="stop-color:#EF1D68"/>
				</linearGradient>
				<polygon fill="url(#SVGID_10_)" points="627.271,507.697 686.241,495.159 684.42,486.6 625.449,499.138 				"/>
			</g>
			
				<linearGradient id="SVGID_11_" gradientUnits="userSpaceOnUse" x1="467.2949" y1="340.5547" x2="837.566" y2="-29.7164" gradientTransform="matrix(0.9781 -0.208 0.208 0.9781 -81.3981 134.1727)">
				<stop  offset="0" style="stop-color:#2CA6EF"/>
				<stop  offset="1" style="stop-color:#B1FFFF"/>
			</linearGradient>
			<polygon fill="url(#SVGID_11_)" points="466.643,339.041 666.55,296.534 624.043,96.626 424.136,139.134 			"/>
			
				<linearGradient id="SVGID_12_" gradientUnits="userSpaceOnUse" x1="626.6602" y1="219.938" x2="821.7635" y2="256.7199" gradientTransform="matrix(0.9781 -0.208 0.208 0.9781 -81.3981 134.1727)">
				<stop  offset="0" style="stop-color:#2C27CE"/>
				<stop  offset="1" style="stop-color:#EF1D68"/>
			</linearGradient>
			<path fill="url(#SVGID_12_)" d="M600.751,235.538l-17.435-52.443c-1.46-4.389-5.987-6.982-10.514-6.02l-4.268,0.908
				c-4.59-15.432-20.262-25.092-36.275-21.688c-16.016,3.405-26.399,18.607-24.317,34.571l-4.273,0.91
				c-4.526,0.961-7.602,5.17-7.152,9.774l5.413,55.001c1.789,18.198,19.005,30.794,36.894,26.991l39.209-8.337
				C595.917,271.401,606.523,252.89,600.751,235.538z M534.618,167.399c9.894-2.103,19.575,3.63,22.812,12.944l-38.382,8.161
				C518.216,178.678,524.728,169.502,534.618,167.399z"/>
			<g>
				
					<linearGradient id="SVGID_13_" gradientUnits="userSpaceOnUse" x1="812.5723" y1="485.2227" x2="319.9376" y2="485.2227" gradientTransform="matrix(0.9781 -0.208 0.208 0.9781 -81.3981 134.1727)">
					<stop  offset="0" style="stop-color:#36078B"/>
					<stop  offset="0.2638" style="stop-color:#2E34AA"/>
					<stop  offset="1" style="stop-color:#16B1FF"/>
				</linearGradient>
				<polygon fill="url(#SVGID_13_)" points="449.591,558.073 527.586,541.489 511.001,463.495 433.006,480.079 				"/>
				<path fill="#F8FFFB" d="M481.042,514.303L481.042,514.303c5.488-1.166,8.991-6.562,7.825-12.045l-1.269-5.959
					c-1.166-5.488-6.561-8.987-12.044-7.821l0,0c-5.488,1.166-8.987,6.557-7.821,12.044l1.264,5.96
					C470.164,511.966,475.558,515.469,481.042,514.303z"/>
				<path fill="#F8FFFB" d="M479.96,509.201c9.36-1.993,18.605,1.78,24.049,8.921c3.182,4.174,0.962,10.25-4.175,11.34
					l-29.786,6.334c-5.137,1.09-9.637-3.556-8.426-8.662C463.687,518.397,470.595,511.191,479.96,509.201z"/>
			</g>
			
				<linearGradient id="SVGID_14_" gradientUnits="userSpaceOnUse" x1="812.6152" y1="230.3662" x2="319.9286" y2="230.3663" gradientTransform="matrix(0.9781 -0.208 0.208 0.9781 -81.3981 134.1727)">
				<stop  offset="0" style="stop-color:#36078B"/>
				<stop  offset="1" style="stop-color:#16B1FF"/>
			</linearGradient>
			<polygon fill="url(#SVGID_14_)" points="402.259,143.785 366.424,151.405 416.489,386.851 452.324,379.231 			"/>
			<polygon opacity="0.3" fill="#F5FEFF" points="548.985,82.429 378.237,345.401 353.45,228.828 432.415,107.215 			"/>
			<polygon opacity="0.3" fill="#F5FEFF" points="630.176,65.165 395.494,426.553 383.098,368.266 571.891,77.559 			"/>
			<g>
				
					<linearGradient id="SVGID_15_" gradientUnits="userSpaceOnUse" x1="457.7339" y1="422.5552" x2="457.7339" y2="373.6831" gradientTransform="matrix(0.9781 -0.208 0.208 0.9781 -81.3981 134.1727)">
					<stop  offset="0" style="stop-color:#36078B"/>
					<stop  offset="1" style="stop-color:#16B1FF"/>
				</linearGradient>
				<path fill="url(#SVGID_15_)" d="M440.538,441.718c-0.227-0.145-0.36-0.343-0.414-0.597l-4.731-22.239
					c-0.053-0.251-0.009-0.488,0.138-0.712c0.147-0.223,0.343-0.361,0.596-0.414l11.431-2.431c3.258-0.692,5.79-0.607,7.593,0.256
					c1.803,0.864,2.96,2.513,3.48,4.945c0.209,0.986,0.107,1.927-0.303,2.817c-0.409,0.89-0.921,1.583-1.54,2.072
					c0.997,0.171,1.91,0.656,2.738,1.451c0.832,0.794,1.362,1.745,1.593,2.846c0.543,2.549,0.12,4.623-1.264,6.225
					s-3.663,2.74-6.832,3.414l-11.773,2.502C440.996,441.909,440.76,441.862,440.538,441.718z M448.621,424.562
					c0.458-0.095,0.774-0.325,0.952-0.685c0.174-0.363,0.218-0.75,0.129-1.164c-0.089-0.412-0.285-0.752-0.596-1.024
					c-0.307-0.269-0.695-0.356-1.153-0.258l-2.893,0.614l0.667,3.134L448.621,424.562z M450.868,433.619
					c0.53-0.111,0.886-0.367,1.082-0.77c0.187-0.398,0.236-0.816,0.147-1.253c-0.094-0.436-0.321-0.797-0.681-1.079
					c-0.361-0.283-0.779-0.374-1.264-0.271l-3.201,0.681l0.717,3.374L450.868,433.619z"/>
				
					<linearGradient id="SVGID_16_" gradientUnits="userSpaceOnUse" x1="483.3057" y1="422.5571" x2="483.3057" y2="373.681" gradientTransform="matrix(0.9781 -0.208 0.208 0.9781 -81.3981 134.1727)">
					<stop  offset="0" style="stop-color:#36078B"/>
					<stop  offset="1" style="stop-color:#16B1FF"/>
				</linearGradient>
				<path fill="url(#SVGID_16_)" d="M467.965,434.069c-2.342-1.144-3.846-3.29-4.518-6.434l-2.991-14.081
					c-0.054-0.254-0.009-0.49,0.133-0.715c0.147-0.222,0.347-0.358,0.597-0.414l6.748-1.433c0.253-0.053,0.489-0.009,0.716,0.134
					c0.218,0.147,0.361,0.345,0.414,0.596l2.965,13.945c0.182,0.871,0.538,1.487,1.054,1.845c0.521,0.356,1.207,0.445,2.052,0.265
					c0.851-0.182,1.442-0.541,1.772-1.079c0.329-0.539,0.401-1.242,0.218-2.114l-2.969-13.945c-0.053-0.251-0.009-0.487,0.138-0.712
					c0.147-0.222,0.343-0.36,0.597-0.414l6.747-1.433c0.254-0.056,0.49-0.011,0.713,0.136c0.222,0.144,0.36,0.343,0.414,0.594
					l2.995,14.081c0.667,3.145,0.169,5.715-1.491,7.711c-1.665,1.999-4.206,3.361-7.625,4.088
					C473.204,435.422,470.31,435.215,467.965,434.069z"/>
				
					<linearGradient id="SVGID_17_" gradientUnits="userSpaceOnUse" x1="508.9321" y1="422.5571" x2="508.9321" y2="373.6832" gradientTransform="matrix(0.9781 -0.208 0.208 0.9781 -81.3981 134.1727)">
					<stop  offset="0" style="stop-color:#36078B"/>
					<stop  offset="1" style="stop-color:#16B1FF"/>
				</linearGradient>
				<path fill="url(#SVGID_17_)" d="M497.515,429.603c-0.223-0.145-0.36-0.34-0.418-0.594l-1.442-6.784l-11.003-13.671
					c-0.063-0.085-0.107-0.18-0.134-0.298c-0.044-0.205-0.009-0.398,0.111-0.579c0.116-0.182,0.281-0.294,0.485-0.338l6.472-1.375
					c0.392-0.084,0.726-0.051,1.011,0.091c0.28,0.142,0.489,0.296,0.619,0.461l4.914,6.189l1.972-7.654
					c0.054-0.202,0.178-0.427,0.378-0.672c0.2-0.247,0.494-0.412,0.885-0.494l6.473-1.378c0.208-0.042,0.4-0.006,0.583,0.112
					c0.178,0.115,0.294,0.278,0.338,0.485c0.022,0.116,0.018,0.222-0.004,0.325l-4.491,16.967l1.441,6.781
					c0.054,0.254,0.009,0.492-0.133,0.715c-0.147,0.222-0.342,0.36-0.596,0.414l-6.748,1.435
					C497.973,429.794,497.738,429.75,497.515,429.603z"/>
			</g>
		</g>
		<linearGradient id="SVGID_18_" gradientUnits="userSpaceOnUse" x1="496.5264" y1="522.0127" x2="589.2784" y2="85.4384">
			<stop  offset="0" style="stop-color:#2CA6EF"/>
			<stop  offset="1" style="stop-color:#B1FFFF"/>
		</linearGradient>
		<path opacity="0.6" fill="url(#SVGID_18_)" d="M666.39,143.469L648.888,61.17L640.16,20.11
			c-1.977-9.282-11.114-15.258-20.399-13.284L330.634,68.303c-9.28,1.974-15.2,11.152-13.228,20.435l8.732,41.06L434.542,639.62
			c1.976,9.28,11.105,15.208,20.39,13.237l289.123-61.482c9.284-1.972,15.214-11.104,13.241-20.386L684.5,228.649
			c2.523-1.549,3.939-4.544,3.29-7.604l-15.303-71.968C671.838,146.017,669.322,143.858,666.39,143.469z"/>
	</g>
	<g>
		
			<linearGradient id="SVGID_19_" gradientUnits="userSpaceOnUse" x1="279.0806" y1="778.4023" x2="350.9037" y2="701.4359" gradientTransform="matrix(1 -0.008 0.008 1 -88.7268 -4.0897)">
			<stop  offset="0" style="stop-color:#36078B"/>
			<stop  offset="1" style="stop-color:#16B1FF"/>
		</linearGradient>
		<path fill="url(#SVGID_19_)" d="M190.913,770.22c-20.208-12.863,5.662-52.228,52.7-56.047c0,0,5.025,20.72,0.409,39.134
			C240.087,769.023,219.213,788.233,190.913,770.22z"/>
		
			<linearGradient id="SVGID_20_" gradientUnits="userSpaceOnUse" x1="185.1216" y1="638.7861" x2="256.9441" y2="561.8204" gradientTransform="matrix(0.9276 -0.3736 0.3736 0.9276 -240.6118 249.6508)">
			<stop  offset="0" style="stop-color:#36078B"/>
			<stop  offset="1" style="stop-color:#16B1FF"/>
		</linearGradient>
		<path fill="url(#SVGID_20_)" d="M163.803,773.372c-23.52-4.572-13.856-50.675,28.521-71.447c0,0,12.258,17.438,14.706,36.266
			C209.122,754.255,196.731,779.776,163.803,773.372z"/>
		
			<linearGradient id="SVGID_21_" gradientUnits="userSpaceOnUse" x1="167.3584" y1="436.251" x2="232.3735" y2="366.5801" gradientTransform="matrix(0.6616 -0.7498 0.7498 0.6616 -285.7739 610.6895)">
			<stop  offset="0" style="stop-color:#36078B"/>
			<stop  offset="1" style="stop-color:#16B1FF"/>
		</linearGradient>
		<path fill="url(#SVGID_21_)" d="M147.374,776.523c-20.884,5.844-31.775-35.381-5.92-69.383c0,0,16.994,9.134,26.617,23.368
			C176.278,742.66,176.612,768.338,147.374,776.523z"/>
		
			<linearGradient id="SVGID_22_" gradientUnits="userSpaceOnUse" x1="253.04" y1="250.6816" x2="311.4443" y2="188.095" gradientTransform="matrix(0.2661 -0.964 0.964 0.2661 -167.9896 944.4587)">
			<stop  offset="0" style="stop-color:#36078B"/>
			<stop  offset="1" style="stop-color:#16B1FF"/>
		</linearGradient>
		<path fill="url(#SVGID_22_)" d="M138.285,771.254c-14.564,12.938-39.591-16.06-32.101-53.697c0,0,17.319,0.685,30.694,8.39
			C148.295,732.524,158.675,753.129,138.285,771.254z"/>
		
			<linearGradient id="SVGID_23_" gradientUnits="userSpaceOnUse" x1="180.0259" y1="603.9727" x2="437.7032" y2="327.8428" gradientTransform="matrix(0.9798 -0.1997 0.1997 0.9798 -179.5955 121.0431)">
			<stop  offset="0" style="stop-color:#36078B"/>
			<stop  offset="1" style="stop-color:#16B1FF"/>
		</linearGradient>
		<path fill="url(#SVGID_23_)" d="M96.177,674.218c-80.004-31.38-16.013-187.788,146.969-233.595c0,0,31.94,69.482,28.375,137.492
			C268.481,636.144,208.21,718.157,96.177,674.218z"/>
		<linearGradient id="SVGID_24_" gradientUnits="userSpaceOnUse" x1="70.0156" y1="830.1963" x2="284.0603" y2="491.6542">
			<stop  offset="0.4829" style="stop-color:#36078B"/>
			<stop  offset="1" style="stop-color:#16B1FF"/>
		</linearGradient>
		<path fill="url(#SVGID_24_)" d="M226.886,460.363c-15.022,10.658-27.235,24.43-37.353,39.242
			c-5.194,7.318-9.787,15.036-13.905,22.976c-1.98,4.019-4.144,7.909-5.937,12.019l-2.809,6.074l-2.51,6.218
			c-6.495,16.644-11.987,33.695-15.752,51.241c-0.823,4.41-2.109,8.701-2.839,13.144l-2.444,13.254
			c-1.22,8.93-2.697,17.8-3.401,26.817c-4.148,35.88-4.348,72.355-3.142,108.946c0.708,18.298,1.673,36.668,3.027,55.073
			c0.641,9.204,1.046,18.476,1.891,27.702l1.296,13.852l0.89,13.968l-1.309,0.267c-7.397-36.334-13.148-73.036-16.259-110.02
			c-0.988-9.228-1.188-18.516-1.816-27.773c-0.485-9.264-0.458-18.552-0.708-27.833c0.253-18.556,0.712-37.147,2.848-55.619
			c0.81-9.258,2.475-18.418,3.846-27.605c1.785-9.12,3.512-18.253,5.902-27.244c4.589-18.008,10.571-35.697,18.396-52.575
			c7.861-16.833,17.351-33.021,29.248-47.358c11.8-14.323,25.584-27.375,42.302-35.988L226.886,460.363z"/>
		
			<linearGradient id="SVGID_25_" gradientUnits="userSpaceOnUse" x1="913.2051" y1="674.4502" x2="1109.3583" y2="464.2503" gradientTransform="matrix(-0.9798 -0.1997 -0.1997 0.9798 1159.9851 121.0431)">
			<stop  offset="0" style="stop-color:#36078B"/>
			<stop  offset="1" style="stop-color:#16B1FF"/>
		</linearGradient>
		<path fill="url(#SVGID_25_)" d="M146.702,597.486c60.903-23.888,12.187-142.949-111.877-177.821c0,0-24.316,52.893-21.603,104.665
			C15.538,568.502,61.417,630.936,146.702,597.486z"/>
		<linearGradient id="SVGID_26_" gradientUnits="userSpaceOnUse" x1="220.8608" y1="835.6113" x2="-10.181" y2="470.186">
			<stop  offset="0.4829" style="stop-color:#36078B"/>
			<stop  offset="1" style="stop-color:#16B1FF"/>
		</linearGradient>
		<path fill="url(#SVGID_26_)" d="M47.814,433.924c24.48,29.664,43.483,63.598,59.167,98.738l5.915,13.197l5.219,13.474
			l5.206,13.496c1.713,4.504,3.129,9.11,4.704,13.664c1.572,4.558,2.991,9.164,4.482,13.753c1.518,4.576,2.951,9.179,4.139,13.847
			l7.589,27.909c2.15,9.391,3.975,18.857,5.978,28.28c0.957,4.718,2.003,9.423,2.889,14.154l2.176,14.283l4.024,28.593
			c0.935,9.578,1.691,19.176,2.421,28.758l1.122,14.368c0.249,4.798,0.303,9.609,0.365,14.412l0.329,28.793
			c0.063,4.794-0.182,9.592-0.512,14.386l-0.85,14.363l-0.868,14.337l-1.179,14.301l-1.02-0.018l-0.293-28.58l-0.151-14.287
			c0-4.763-0.084-9.524-0.48-14.274l-1.808-28.518c-0.329-4.749-0.543-9.512-0.965-14.252l-1.638-14.193l-3.28-28.38l-4.638-28.188
			l-2.354-14.087l-2.987-13.963c-2.065-9.294-3.953-18.632-6.16-27.89c-9.063-36.983-20.543-73.388-34.8-108.707
			c-14.399-35.198-31.065-69.747-52.557-101.164L47.814,433.924z"/>
		
			<linearGradient id="SVGID_27_" gradientUnits="userSpaceOnUse" x1="210.4102" y1="442.2939" x2="571.0989" y2="55.7759" gradientTransform="matrix(0.9617 -0.2739 0.2739 0.9617 -113.396 161.6845)">
			<stop  offset="0" style="stop-color:#36078B"/>
			<stop  offset="1" style="stop-color:#16B1FF"/>
		</linearGradient>
		<path fill="url(#SVGID_27_)" d="M180.182,527.98C65.171,492.729,137.773,267.6,360.354,186.256c0,0,52.005,93.564,54.293,188.866
			C416.601,456.44,341.245,577.346,180.182,527.98z"/>
		<linearGradient id="SVGID_28_" gradientUnits="userSpaceOnUse" x1="88.7363" y1="832.3477" x2="408.0291" y2="250.2091">
			<stop  offset="0.4829" style="stop-color:#36078B"/>
			<stop  offset="1" style="stop-color:#16B1FF"/>
		</linearGradient>
		<path fill="url(#SVGID_28_)" d="M339.914,215.257c-16.535,23.739-31.54,48.344-44.522,73.978
			c-13.465,25.328-25.576,51.282-36.694,77.589c-10.829,26.435-21.133,53.051-29.666,80.271
			c-8.844,27.1-16.798,54.491-23.301,82.257c-6.739,27.698-12.525,55.655-17.034,83.856c-1.371,7.01-2.306,14.092-3.37,21.16
			c-0.997,7.072-2.194,14.126-3.031,21.226l-2.497,21.312c-1.015,7.091-1.683,14.217-2.35,21.348l-2.07,21.408
			c-0.476,7.153-0.89,14.31-1.496,21.472c-1.348,14.319-1.669,28.683-2.452,43.073c-0.561,7.196-0.743,14.397-0.953,21.609
			l-0.664,21.662c-0.236,7.233-0.013,14.447-0.089,21.689l-0.458,21.783l-1.589,0.143c-5.217-57.697-6.25-115.792-2.724-173.642
			c3.342-57.867,12.017-115.404,25.299-171.844c13.905-56.282,32.608-111.446,57.035-164.047
			c12.196-26.301,25.833-51.928,40.891-76.697c7.54-12.376,15.414-24.556,23.809-36.376c8.39-11.828,17.101-23.412,26.754-34.31
			L339.914,215.257z"/>
		
			<linearGradient id="SVGID_29_" gradientUnits="userSpaceOnUse" x1="273.4419" y1="650.4238" x2="533.6754" y2="371.5548" gradientTransform="matrix(0.9987 0.0516 -0.0516 0.9987 26.1341 -23.0609)">
			<stop  offset="0" style="stop-color:#36078B"/>
			<stop  offset="1" style="stop-color:#16B1FF"/>
		</linearGradient>
		<path fill="url(#SVGID_29_)" d="M245.563,632.676c-70.312-50.888,31.758-187.687,202.711-191.33c0,0,13.696,76.014-6.966,141.626
			C423.682,638.952,344.032,703.941,245.563,632.676z"/>
		<linearGradient id="SVGID_30_" gradientUnits="userSpaceOnUse" x1="121.6514" y1="820.0332" x2="470.8627" y2="501.1371">
			<stop  offset="0.4829" style="stop-color:#36078B"/>
			<stop  offset="1" style="stop-color:#16B1FF"/>
		</linearGradient>
		<path fill="url(#SVGID_30_)" d="M427.527,456.397c-17.305,11.667-33.449,24.764-48.342,39.122l-11.248,10.625l-10.682,11.198
			c-3.454,3.828-7.295,7.252-10.563,11.258l-10.112,11.656c-6.926,7.594-12.921,15.997-19.379,23.974
			c-3.107,4.09-6.53,7.922-9.37,12.218l-8.746,12.689c-2.884,4.25-5.915,8.39-8.88,12.578c-2.902,4.233-5.448,8.706-8.189,13.046
			l-8.092,13.113c-2.666,4.388-5.528,8.656-7.815,13.272l-14.804,27.062c-1.215,2.266-2.519,4.487-3.659,6.792l-3.231,7.011
			c-2.163,4.673-4.295,9.36-6.556,13.99l-6.694,13.939c-1.095,2.333-2.279,4.625-3.303,6.992l-2.862,7.188
			c-3.766,9.605-7.727,19.144-11.719,28.695c-4.3,9.441-7.198,19.385-10.727,29.137l-10.438,29.368
			c-6.579,19.739-11.809,39.897-18.686,59.812l-1.13-0.218c4.678-20.377,8.955-40.86,13.963-61.157l8.893-30.088
			c3.013-10.016,5.675-20.146,9.601-29.854l10.914-29.425l2.724-7.357c0.979-2.426,2.123-4.78,3.178-7.175l6.441-14.311
			l6.445-14.313l3.222-7.157c1.135-2.354,2.439-4.625,3.65-6.944l14.809-27.689c21.129-36.119,45.391-70.503,73.762-101.317
			c7.17-7.625,14.199-15.387,21.983-22.401l11.431-10.759l11.991-10.134c16.179-13.251,33.128-25.687,51.729-35.473L427.527,456.397
			z"/>
		<linearGradient id="SVGID_31_" gradientUnits="userSpaceOnUse" x1="305.1895" y1="447.3774" x2="344.2287" y2="376.2007">
			<stop  offset="0" style="stop-color:#36078B"/>
			<stop  offset="1" style="stop-color:#16B1FF"/>
		</linearGradient>
		<path fill="url(#SVGID_31_)" d="M266.277,421.388c8.399-6.427,17.563-10.838,26.951-14.441c4.66-1.969,9.494-3.242,14.292-4.747
			c4.838-1.313,9.761-2.299,14.666-3.378c4.99-0.663,9.93-1.542,14.973-1.925c5.039-0.296,10.095-0.652,15.183-0.417
			c10.157,0.332,20.479,1.711,30.289,5.632l-0.031,1.062c-19.655-0.183-39.222,2.477-58.521,6.094
			c-19.354,3.4-38.582,7.749-57.489,13.137L266.277,421.388z"/>
		<linearGradient id="SVGID_32_" gradientUnits="userSpaceOnUse" x1="319.5356" y1="374.5747" x2="344.1932" y2="310.082">
			<stop  offset="0" style="stop-color:#36078B"/>
			<stop  offset="1" style="stop-color:#16B1FF"/>
		</linearGradient>
		<path fill="url(#SVGID_32_)" d="M284.66,356.882c5.956-6.833,12.913-11.824,20.194-16.075c7.295-4.231,14.946-7.751,22.945-10.331
			c7.994-2.595,16.317-4.309,24.823-5.059c8.511-0.67,17.31-0.391,25.932,2.353l0.116,1.055c-8.097,1.168-16.095,2.868-24.044,4.785
			c-7.923,2.03-15.761,4.393-23.532,6.961c-7.79,2.504-15.517,5.219-23.176,8.123c-7.638,2.949-15.271,5.958-22.807,9.151
			L284.66,356.882z"/>
		<linearGradient id="SVGID_33_" gradientUnits="userSpaceOnUse" x1="191.8945" y1="407.4492" x2="192.0776" y2="346.3825">
			<stop  offset="0" style="stop-color:#36078B"/>
			<stop  offset="1" style="stop-color:#16B1FF"/>
		</linearGradient>
		<path fill="url(#SVGID_33_)" d="M203.959,407.485c-3.538-5.306-5.791-10.275-7.874-15.126c-1.985-4.854-3.676-9.534-5.252-14.041
			c-1.598-4.493-2.924-8.949-4.678-13.159c-1.709-4.327-3.583-8.495-7.148-13.832l0.36-0.904c5.203,2.005,9.659,5.65,13.015,10.063
			c3.458,4.373,5.755,9.481,7.647,14.633c1.785,5.212,2.973,10.591,3.77,16.008c0.823,5.415,1.255,10.872,1.135,16.36
			L203.959,407.485z"/>
		<linearGradient id="SVGID_34_" gradientUnits="userSpaceOnUse" x1="233.2988" y1="335.2817" x2="243.6685" y2="288.8099">
			<stop  offset="0" style="stop-color:#36078B"/>
			<stop  offset="1" style="stop-color:#16B1FF"/>
		</linearGradient>
		<path fill="url(#SVGID_34_)" d="M241.806,337.18c-1.709-4.575-2.559-8.715-3.169-12.741c-0.592-4.021-1.095-7.867-1.38-11.583
			c-0.315-3.73-0.467-7.342-0.93-10.858c-0.498-3.556-0.935-7.033-2.71-11.59l0.418-0.603c3.583,2.411,6.133,6.083,7.718,10.028
			c1.665,3.948,2.448,8.176,2.835,12.385c0.579,8.448-0.12,16.925-2.06,25.123L241.806,337.18z"/>
		<g>
			<linearGradient id="SVGID_35_" gradientUnits="userSpaceOnUse" x1="177.5786" y1="762.6191" x2="177.5786" y2="872.3039">
				<stop  offset="0" style="stop-color:#2C27CE"/>
				<stop  offset="1" style="stop-color:#EF1D68"/>
			</linearGradient>
			<path fill="url(#SVGID_35_)" d="M227.016,885.66h-98.875c-4.914,0-9.049-3.672-9.63-8.55l-13.626-114.608
				c-0.685-5.768,3.819-10.842,9.63-10.842h126.13c5.808,0,10.317,5.074,9.627,10.842L236.647,877.11
				C236.064,881.988,231.929,885.66,227.016,885.66z"/>
			<linearGradient id="SVGID_36_" gradientUnits="userSpaceOnUse" x1="177.5776" y1="790.6104" x2="177.5776" y2="742.8347">
				<stop  offset="0" style="stop-color:#2C27CE"/>
				<stop  offset="1" style="stop-color:#EF1D68"/>
			</linearGradient>
			<path fill="url(#SVGID_36_)" d="M253.427,774.382H101.733c-3.16,0-5.846-2.306-6.325-5.43l-2.978-19.478
				c-0.592-3.877,2.406-7.366,6.323-7.366h157.652c3.917,0,6.912,3.489,6.32,7.366l-2.977,19.478
				C259.271,772.076,256.583,774.382,253.427,774.382z"/>
		</g>
	</g>
	<g>
		<g>
			<path fill="#FFAF84" d="M724.666,556.337c-5.978,1.376-15.293,3.544-20.377,4.336c-5.082,0.788-3.686,12.436-0.762,14.318
				c4.35,2.81,19.198,5.208,22.43-0.57c3.231-5.771,9.422-4.438,10.575-10.268C737.681,558.323,734.44,554.09,724.666,556.337z"/>
			
				<linearGradient id="SVGID_37_" gradientUnits="userSpaceOnUse" x1="786.4844" y1="906.8262" x2="795.9363" y2="781.5867" gradientTransform="matrix(0.9993 0.0378 -0.0378 0.9993 17.9993 -24.9163)">
				<stop  offset="0" style="stop-color:#36078B"/>
				<stop  offset="1" style="stop-color:#16B1FF"/>
			</linearGradient>
			<path fill="url(#SVGID_37_)" d="M778.286,879.385c-1.316,2.262-7.406,7.371-15.693,10.571
				c-8.288,3.204-25.642,4.197-16.152,7.651c9.484,3.454,20.754,2.007,26.461,1.345c5.701-0.664,11.207-0.574,17.902-0.366
				c8.816,0.28,8.901-0.24,8.082-9.872C797.751,875.455,782.546,872.081,778.286,879.385z"/>
			
				<linearGradient id="SVGID_38_" gradientUnits="userSpaceOnUse" x1="970.4092" y1="920.7158" x2="979.8611" y2="795.4775" gradientTransform="matrix(0.9993 0.0378 -0.0378 0.9993 17.9993 -24.9163)">
				<stop  offset="0" style="stop-color:#36078B"/>
				<stop  offset="1" style="stop-color:#16B1FF"/>
			</linearGradient>
			<path fill="url(#SVGID_38_)" d="M963.061,866.339c-1.317,2.258-5.149,15.018-13.438,18.218
				c-8.288,3.201-23.007,6.922-13.521,10.38c9.488,3.454,20.758,2.008,26.46,1.344c5.702-0.662,7.06-7.673,13.016-10.74
				c9.218-4.748,8.038-4.271,7.214-13.904C981.661,858.377,967.315,859.035,963.061,866.339z"/>
			
				<linearGradient id="SVGID_39_" gradientUnits="userSpaceOnUse" x1="332.7583" y1="461.9795" x2="488.8214" y2="573.5203" gradientTransform="matrix(-0.9753 0.2208 0.2208 0.9753 1024.0798 -101.2472)">
				<stop  offset="0" style="stop-color:#36078B"/>
				<stop  offset="1" style="stop-color:#16B1FF"/>
			</linearGradient>
			<path fill="url(#SVGID_39_)" d="M720.459,555.18c7.14-8.296,11.124-20.75,15.859-30.479c6.268-12.859,12.32-25.491,21.726-36.436
				c1.068-1.242,2.177-2.479,2.95-3.926c2.636-4.923,2.738-12.686,3.33-18.245c0.646-6.094,1.024-12.22,1.424-18.336
				c1.14-17.637,2.102-35.283,3.473-52.904c0.516-6.634,12.075-18.977,22.451-16.271c11.518,3,14.91,8.09,14.691,20.762
				c-0.12,7.11-0.008,17.096-3.552,39.867c-4.237,27.274-10.112,56.29-27.556,78.522c-6.859,8.737-13.678,17.487-20.955,25.918
				c-13.57,15.721-19.042,18.173-27.588,20.425C719.779,565.907,716.663,559.591,720.459,555.18z"/>
			
				<linearGradient id="SVGID_40_" gradientUnits="userSpaceOnUse" x1="729.0732" y1="334.3213" x2="847.1743" y2="202.1605" gradientTransform="matrix(0.9993 0.0378 -0.0378 0.9993 17.9993 -24.9163)">
				<stop  offset="0" style="stop-color:#2C27CE"/>
				<stop  offset="0.6488" style="stop-color:#EF1D68"/>
				<stop  offset="1" style="stop-color:#EFBA92"/>
			</linearGradient>
			<path fill="url(#SVGID_40_)" d="M784.26,310.616c-5.893,4.75-8.781,5.482-13.201-2.205c-0.209-0.367-23.83-23.032-2.172-31.802
				c9.934-4.026,17.933-6.3,20.146,7.905C791.239,298.719,791.258,304.977,784.26,310.616z"/>
			<path fill="#ED9169" d="M822.268,312.283c0.508,0.926,10.41,21.007,16.731,36.892c3.098,7.787-2.004,18.158-9.788,21.258
				c-0.116,0.047-0.231,0.089-0.344,0.131c-7.699,2.855-19.348-0.759-21.529-8.721c-3.938-14.408-10.152-28.342-10.268-28.553
				L822.268,312.283z"/>
			
				<linearGradient id="SVGID_41_" gradientUnits="userSpaceOnUse" x1="210.4888" y1="530.582" x2="509.577" y2="301.9209" gradientTransform="matrix(-0.9993 -0.0378 -0.0378 0.9993 1161.7456 18.963)">
				<stop  offset="0" style="stop-color:#36078B"/>
				<stop  offset="1" style="stop-color:#16B1FF"/>
			</linearGradient>
			<path fill="url(#SVGID_41_)" d="M879.622,395.563c-5.84,48.872-2.724,126.537,5.809,158.428l-107.789-4.081
				c0,0-6.303-69.707-11.567-130.213c-0.979-11.259-0.993-22.498,1.441-33.576c2.337-10.647,9.931-20.297,18.943-26.228
				c8.279-5.448,18.053-8.09,27.717-10.286c8.705-1.981,17.541-3.672,26.474-3.746c12.129-0.096,25.474,2.597,32.854,13.043
				c6.516,9.218,7.365,21.367,6.547,32.276C879.942,392.644,879.796,394.106,879.622,395.563z"/>
			
				<linearGradient id="SVGID_42_" gradientUnits="userSpaceOnUse" x1="762.4971" y1="887.8936" x2="817.3259" y2="653.1146" gradientTransform="matrix(0.9993 0.0378 -0.0378 0.9993 17.9993 -24.9163)">
				<stop  offset="0" style="stop-color:#FF664F"/>
				<stop  offset="1" style="stop-color:#9E005D"/>
			</linearGradient>
			<path fill="url(#SVGID_42_)" d="M882.493,619.92c0,0,10.167-22.273,2.938-65.929l-107.789-4.081c0,0-5.021,30.765-6.423,65.794
				L882.493,619.92z"/>
			<g>
				<g>
					
						<linearGradient id="SVGID_43_" gradientUnits="userSpaceOnUse" x1="885.6328" y1="981.7568" x2="956.858" y2="676.7676" gradientTransform="matrix(0.9993 0.0378 -0.0378 0.9993 17.9993 -24.9163)">
						<stop  offset="0" style="stop-color:#FF664F"/>
						<stop  offset="1" style="stop-color:#9E005D"/>
					</linearGradient>
					<path fill="url(#SVGID_43_)" d="M871.677,748.82c-25.236-25.9-10.744-48.289,15.392-38.76
						c36.957,13.474,76.971,136.521,92.853,153.074c2.078,2.172,0.542,2.946-1.1,3.778c-4.824,2.431-7.937-1.402-13.771,0.539
						c-2.395,0.797-5.719,6.956-5.719,6.956C934.774,846.274,896.042,773.821,871.677,748.82z"/>
					
						<linearGradient id="SVGID_44_" gradientUnits="userSpaceOnUse" x1="812.8965" y1="899.6797" x2="867.7273" y2="664.8919" gradientTransform="matrix(0.9993 0.0378 -0.0378 0.9993 17.9993 -24.9163)">
						<stop  offset="0" style="stop-color:#FF664F"/>
						<stop  offset="1" style="stop-color:#9E005D"/>
					</linearGradient>
					<path fill="url(#SVGID_44_)" d="M828.81,622.626c-2.132-43.739,16.416-76.94,42.913-61.521
						c11.153,6.484,14.861,18.765,15.96,30.23c1.104,11.47,6.156,99.373,8.283,120.92c4.786,48.565-35.795,32.946-39.427,19.402
						C847.371,697.461,829.976,646.46,828.81,622.626z"/>
				</g>
			</g>
			
				<linearGradient id="SVGID_45_" gradientUnits="userSpaceOnUse" x1="760.7227" y1="930.6719" x2="826.65" y2="648.3687" gradientTransform="matrix(0.9993 0.0378 -0.0378 0.9993 17.9993 -24.9163)">
				<stop  offset="0" style="stop-color:#FF664F"/>
				<stop  offset="1" style="stop-color:#9E005D"/>
			</linearGradient>
			<path fill="url(#SVGID_45_)" d="M761.561,715.201c1.682-32.728,19.147-39.85,34.949-16.958
				c24.871,36.027-0.42,146.162,2.306,189.318c-8.012-6.743-17.822-6.573-20.115-5.644c-3.733,1.513-0.832-4.482-0.832-4.482
				C764.448,810.057,760.061,744.444,761.561,715.201z"/>
			
				<linearGradient id="SVGID_46_" gradientUnits="userSpaceOnUse" x1="741.3535" y1="882.9688" x2="796.1845" y2="648.1802" gradientTransform="matrix(0.9993 0.0378 -0.0378 0.9993 17.9993 -24.9163)">
				<stop  offset="0" style="stop-color:#FF664F"/>
				<stop  offset="1" style="stop-color:#9E005D"/>
			</linearGradient>
			<path fill="url(#SVGID_46_)" d="M804.134,723.867c-4.74,13.197-47.684,31.629-42.035-16.847
				c2.506-21.503,10.34-109.388,11.644-120.835c1.305-11.443,3.926-28.144,9.766-30.018c29.186-9.383,55.807,25.919,46.605,68.732
				C823.963,653.524,813.962,696.503,804.134,723.867z"/>
			
				<linearGradient id="SVGID_47_" gradientUnits="userSpaceOnUse" x1="735.0801" y1="487.2158" x2="918.3167" y2="290.8575" gradientTransform="matrix(0.9993 0.0378 -0.0378 0.9993 20.0423 -24.8391)">
				<stop  offset="0" style="stop-color:#36078B"/>
				<stop  offset="1" style="stop-color:#16B1FF"/>
			</linearGradient>
			<path fill="url(#SVGID_47_)" d="M813.499,453.863c8.212-6.791,15.592-14.137,22.504-22.295
				c5.382-6.347,10.496-12.921,15.458-19.598c13.749-18.494,18.312-27.378,21.734-33.611c6.098-11.11,0.094-24.258-9.299-27.076
				c-10.268-3.082-16.664,2.865-27.881,13.703c-25.188,24.34-37.401,58.699-43.971,68.761c-1.753-0.033-3.517,0.107-5.261,0.567
				c-13.958,3.677-36.142,19.867-69.142,32.595c-5.426,2.092-3.997,13.366,2.742,15.818c8.3,3.018,17.238-0.917,37.308-6.289
				c12.436-3.33,25.126-6.503,36.926-11.757c6.088-2.713,12.649-5.735,17.817-9.944
				C812.791,454.446,813.147,454.156,813.499,453.863z"/>
			<path fill="#FFAF84" d="M830.074,298.746c2.675,18.925,3.129,23.145-3.089,32.684c-6.218,9.536-16.914,15.827-25.665,17.966
				c-9.458,2.313-18.912-5.962-22.958-13.255c-4.188-7.553-11.416-25.907-13.708-46.784c-1.166-10.582,8.452-26.116,21.502-29.308
				C799.211,256.855,823.549,252.509,830.074,298.746z"/>
			
				<linearGradient id="SVGID_48_" gradientUnits="userSpaceOnUse" x1="746.0498" y1="349.4858" x2="864.1426" y2="217.3342" gradientTransform="matrix(0.9993 0.0378 -0.0378 0.9993 17.9993 -24.9163)">
				<stop  offset="0" style="stop-color:#2C27CE"/>
				<stop  offset="0.6488" style="stop-color:#EF1D68"/>
				<stop  offset="1" style="stop-color:#EFBA92"/>
			</linearGradient>
			<path fill="url(#SVGID_48_)" d="M829.34,295.897c-3.778,6.22-6.152,7.825-12.658,2.319c-5.053-4.275-20.025-21.16-12.356-28.045
				c7.664-6.886,14.158-11.557,20.795,0.565C831.761,282.858,833.821,288.509,829.34,295.897z"/>
			<path fill="#FFAF84" d="M824.631,300.321c-1.051,7.031,1.086,13.173,4.767,13.721c3.682,0.549,7.518-4.705,8.563-11.733
				c1.046-7.028-1.086-13.17-4.768-13.718C829.509,288.042,825.677,293.293,824.631,300.321z"/>
			
				<linearGradient id="SVGID_49_" gradientUnits="userSpaceOnUse" x1="718.6514" y1="324.9995" x2="836.7433" y2="192.8489" gradientTransform="matrix(0.9993 0.0378 -0.0378 0.9993 17.9993 -24.9163)">
				<stop  offset="0" style="stop-color:#2C27CE"/>
				<stop  offset="0.6488" style="stop-color:#EF1D68"/>
				<stop  offset="1" style="stop-color:#EFBA92"/>
			</linearGradient>
			<path fill="url(#SVGID_49_)" d="M815.488,263.735c-4.566,12.498-39.089,22.005-51.4,20.821
				c-12.315-1.181-16.892-23.316-1.027-28.789c9.133-2.252,3.048,1.556,11.193,2.753
				C778.376,259.125,820.361,250.395,815.488,263.735z"/>
			<path fill="#FFAF84" d="M717.807,464.688c-5.479,1.727-30.751,8.067-24.089,15.275c7.367,7.967,14.6,8.51,20.6,6.891
				c10.976-2.956,11.72-6.619,11.546-13.522C725.738,468.439,723.02,463.043,717.807,464.688z"/>
			<path fill="#FFAF84" d="M693.291,475.274c-2.337,1.086-16.166,7.586-14.974,9.772c1.816,3.325,11.114-0.566,17.279-3.121
				c3.343-1.384,6.805-5.067,5.221-7.126C699.233,472.739,697.035,473.536,693.291,475.274z"/>
		</g>
		<g>
			<defs>
				<path id="SVGID_50_" d="M982.791,871.636c-0.218-2.577-0.947-4.615-1.994-6.195c0.272-0.557,0.116-1.269-0.876-2.306
					c-14.582-15.196-49.499-120.078-83.719-147.608c-0.062-1.067-0.124-2.136-0.236-3.271
					c-2.078-21.058-6.951-105.444-8.198-119.976c0.583-10.064,0.227-22.803-2.337-38.288
					c-8.532-31.891-11.648-109.556-5.809-158.428c0.174-1.458,0.32-2.92,0.428-4.382c0.818-10.91-0.031-23.058-6.547-32.276
					c-1.158-1.643-2.511-3.031-3.935-4.311c-0.424-0.385-0.859-0.746-1.313-1.082c-7.576-5.962-17.951-7.729-27.605-7.651
					c-0.983,0.009-1.958,0.104-2.933,0.149c-2.604-6.316-5.613-13.015-8.283-18.779c2.14-4.235,2.75-7.945,2.403-13.68
					c2.804-1.422,5.31-5.775,6.124-11.243c1.046-7.028-1.086-13.17-4.771-13.718c-0.507-0.078-1.023-0.018-1.53,0.121
					c0.2-4.745-2.132-9.931-6.539-17.976c-3.155-5.764-6.28-7.705-9.511-7.442c3.756-12.683-37.283-4.175-41.355-4.774
					c-8.146-1.197-2.061-5.005-11.193-2.753c-14.274,4.923-11.974,23.286-2.408,27.792c-3.018,6.752,2.328,15.213,6.418,20.323
					c3.191,14.557,8.11,26.525,11.292,32.258c4.046,7.293,13.5,15.567,22.958,13.255c0.619-0.151,1.265-0.369,1.896-0.563
					c0.379,1.059,0.757,2.159,1.131,3.272c-6.308,1.829-12.423,4.193-17.889,7.789c-9.013,5.931-16.606,15.581-18.943,26.228
					c-2.435,11.078-2.421,22.317-1.441,33.576c0.275,3.147,0.552,6.323,0.832,9.51c-0.298,4.82-0.602,9.643-0.904,14.463
					c-11.63,6.173-26.113,14.225-43.899,21.456c-1.171-0.71-2.586-0.979-4.296-0.438c-4.197,1.324-19.972,5.359-24.138,10.415
					c-0.129,0.06-0.244,0.109-0.378,0.171c-2.337,1.086-16.166,7.586-14.974,9.772c1.816,3.325,11.114-0.566,17.279-3.121
					c0.035-0.013,0.071-0.035,0.106-0.053c6.672,6.071,13.157,6.454,18.614,4.981c3.89-1.046,6.445-2.19,8.177-3.53
					c7.771,1.736,16.811-1.963,35.198-6.886c1.928-0.517,3.863-1.035,5.8-1.551c-0.428,3.447-1.104,6.848-2.498,9.452
					c-0.773,1.446-1.882,2.684-2.95,3.926c-9.405,10.949-15.458,23.577-21.726,36.436c-4.735,9.729-8.72,22.184-15.859,30.479
					c-0.658,0.766-1.04,1.594-1.299,2.422c-5.257,1.193-11.177,2.492-14.871,3.071c-5.082,0.788-3.686,12.436-0.762,14.318
					c4.35,2.81,19.198,5.208,22.43-0.57c3.231-5.771,9.422-4.438,10.575-10.268c0.28-1.424,0.289-2.756,0.013-3.922
					c4.639-2.728,9.806-7.37,17.756-16.579c7.117-8.243,13.793-16.799,20.501-25.344c1.704,19.045,2.84,31.602,2.84,31.602
					s-4.371,26.817-6.098,58.887c-2.89,30.818-7.603,82.423-9.445,98.224c-0.32,2.765-0.468,5.288-0.49,7.63
					c-0.013,0.19-0.034,0.36-0.044,0.551c-1.504,29.243,2.889,94.855,16.304,162.234c0,0-1.135,2.351-1.072,3.734
					c-2.537,2.564-7.664,6.263-14.203,8.786c-8.288,3.204-25.642,4.197-16.152,7.651c9.484,3.454,20.754,2.007,26.461,1.345
					c5.701-0.664,11.207-0.574,17.902-0.366c8.816,0.28,8.901-0.24,8.082-9.872c-0.04-0.436-0.128-0.827-0.195-1.241
					c0.04,0.035,0.085,0.058,0.125,0.089c-2.279-36.089,15.013-118.983,6.204-166.244c9.146-26.306,18.334-65.27,24.334-92.909
					c3.187,25.575,18.698,71.589,27.186,103.249c0.962,3.583,4.518,7.3,9.13,9.947c1.7,2.364,3.622,4.764,6.008,7.216
					c24.361,24.996,63.085,97.432,87.641,125.57c-2.182,4.086-5.292,8.466-9.694,10.166c-8.288,3.201-23.007,6.922-13.521,10.38
					c9.488,3.454,20.758,2.008,26.46,1.344c5.702-0.662,7.06-7.678,13.016-10.74C984.795,880.792,983.615,881.269,982.791,871.636z"
					/>
			</defs>
			<clipPath id="SVGID_51_">
				<use xlink:href="#SVGID_50_"  overflow="visible"/>
			</clipPath>
			
				<linearGradient id="SVGID_52_" gradientUnits="userSpaceOnUse" x1="666.5713" y1="-153.8442" x2="1247.7068" y2="203.1933" gradientTransform="matrix(0.6495 -0.7044 -0.3629 -0.618 386.202 1259.0642)">
				<stop  offset="0" style="stop-color:#0000FF"/>
				<stop  offset="1" style="stop-color:#9E005D"/>
			</linearGradient>
			<path opacity="0.2" clip-path="url(#SVGID_51_)" fill="url(#SVGID_52_)" d="M1097.297,247.597
				c-47.305-24.725-148.716-18.416-180.188,29.214c-32.136,48.631-10.869,94.365-56.3,154.011
				c-41.391,54.339-17.907,124.375-27.396,177.316c-10.426,58.125-102.521,26.924-139.699,97.133
				c-57.124,107.884,57.195,185.584,127.739,235.386c72.426,51.129,183.535,98.135,264.828,26.426
				c60.021-52.945,46.237-267.5,35.546-324.259c-15.347-81.501-93.667-29.474-46.993-106.524
				c27.925-46.108,54.213-132.994-22.166-143.563C976.284,382.168,1165.424,283.203,1097.297,247.597z"/>
		</g>
	</g>
	<g>
		<g>
			<linearGradient id="SVGID_53_" gradientUnits="userSpaceOnUse" x1="-74.1509" y1="813.8154" x2="673.8287" y2="813.8154">
				<stop  offset="0" style="stop-color:#2C27CE"/>
				<stop  offset="1" style="stop-color:#EF1D68"/>
			</linearGradient>
			<path fill="url(#SVGID_53_)" d="M468,698.039l-11.893,107.789l-12,108.894c-1.171,10.824-8.844,20.189-18.694,24.182
				c-3.33,1.349-6.864,2.105-10.505,2.105H209.305c-20.581,0-37.495-18.663-35.265-38.896l10.625-96.284l2.168-19.566
				c6.044-54.813,55.815-99.64,110.625-99.64h125.629c4.802,0,9.472,0.352,14.003,1.023
				C448.327,689.266,458.738,692.857,468,698.039z"/>
			<linearGradient id="SVGID_54_" gradientUnits="userSpaceOnUse" x1="372.8521" y1="711.4863" x2="372.8521" y2="430.1702">
				<stop  offset="0" style="stop-color:#36078B"/>
				<stop  offset="1" style="stop-color:#16B1FF"/>
			</linearGradient>
			<path fill="url(#SVGID_54_)" d="M521.978,698.039l-11.894,107.789l-12,108.894c-1.575,14.466-14.736,26.287-29.198,26.287
				h-245.16l14.916-135.181l2.167-19.566c6.041-54.813,55.811-99.64,110.625-99.64h125.629
				C493.713,686.622,508.971,690.753,521.978,698.039z"/>
			<linearGradient id="SVGID_55_" gradientUnits="userSpaceOnUse" x1="717.0195" y1="804.3975" x2="717.0195" y2="449.946">
				<stop  offset="0" style="stop-color:#2C27CE"/>
				<stop  offset="1" style="stop-color:#EF1D68"/>
			</linearGradient>
			<path fill="url(#SVGID_55_)" d="M998.593,569.535H510.45c-0.036,0-0.067-0.01-0.103-0.01h-33.165c-0.036,0-0.071,0.01-0.107,0.01
				h-0.169c-14.466,0-27.596,11.821-29.199,26.287l-10.509,90.8l-0.111,1.023l-13.042,118.183l-12,108.894
				c-1.197,10.824,4.407,20.189,13.367,24.182c3.013,1.349,6.387,2.105,10.032,2.105h0.169c0.031,0,0.062,0.009,0.097,0.009h33.165
				c0.036,0,0.067-0.009,0.103-0.009h488.152c14.466,0,27.597-11.821,29.198-26.287l23.893-216.683l11.77-102.217
				C1023.594,581.356,1013.059,569.535,998.593,569.535z"/>
		</g>
		<g>
			<linearGradient id="SVGID_56_" gradientUnits="userSpaceOnUse" x1="-74.1509" y1="813.8242" x2="673.8268" y2="813.8242">
				<stop  offset="0" style="stop-color:#2C27CE"/>
				<stop  offset="1" style="stop-color:#EF1D68"/>
			</linearGradient>
			<path fill="url(#SVGID_56_)" d="M911.34,686.631H785.702c-53.189,0-101.522,42.267-109.854,94.859H205.085L174.04,902.112
				c-2.23,20.233,14.684,38.896,35.265,38.896h448.703v0.009h245.138c14.471,0,27.624-11.836,29.204-26.3l23.892-216.67
				C943.231,690.748,927.978,686.631,911.34,686.631z"/>
			<linearGradient id="SVGID_57_" gradientUnits="userSpaceOnUse" x1="869.1152" y1="806.9424" x2="869.1152" y2="419.1826">
				<stop  offset="0" style="stop-color:#36078B"/>
				<stop  offset="1" style="stop-color:#16B1FF"/>
			</linearGradient>
			<path fill="url(#SVGID_57_)" d="M998.593,569.525h-33.164c-14.466,0-27.597,11.836-29.199,26.301l-10.521,90.805h-86.029
				c-54.8,0-104.57,44.821-110.624,99.617L716.271,902.12c-2.23,20.239,14.688,38.897,35.265,38.897h172.422h33.165
				c14.466,0,27.618-11.836,29.202-26.3l23.894-216.67l11.777-102.222C1023.603,581.361,1013.059,569.525,998.593,569.525z"/>
		</g>
	</g>
	<g>
		
			<linearGradient id="SVGID_58_" gradientUnits="userSpaceOnUse" x1="607.8232" y1="543.1182" x2="546.4283" y2="696.1609" gradientTransform="matrix(-0.9677 -0.2523 -0.2523 0.9677 1289.9176 153.5145)">
			<stop  offset="0" style="stop-color:#FF664F"/>
			<stop  offset="1" style="stop-color:#9E005D"/>
		</linearGradient>
		<path fill="url(#SVGID_58_)" d="M572.43,643.074c3.467-6.454,9.467-21.557,15.805-58.625c3.863-22.614,4.095-32.136,4.433-38.964
			c0.606-12.164-9.275-15.547-14.852-11.84c-8.992,5.97-15.762,18.61-16.434,25.078c-3.797,36.493-5.72,64.099-8.043,73.191
			C549.938,645.196,568.321,650.72,572.43,643.074z"/>
		
			<linearGradient id="SVGID_59_" gradientUnits="userSpaceOnUse" x1="565.0273" y1="641.332" x2="541.5128" y2="699.9481" gradientTransform="matrix(-0.7279 -0.6857 -0.6857 0.7279 1399.8761 498.5199)">
			<stop  offset="0" style="stop-color:#FF664F"/>
			<stop  offset="1" style="stop-color:#9E005D"/>
		</linearGradient>
		<path fill="url(#SVGID_59_)" d="M486.383,618.41c2.524,5.03,8.746,2.422,24.649,10.75c22.909,12,29.768,14.002,48.573,18.432
			c12.276,2.893,21.361-13.531,7.366-19.794c-11.826-5.292-67.623-16.313-74.798-19.549
			C487.42,606.108,484.335,614.329,486.383,618.41z"/>
		<path fill="#ED9169" d="M621.523,495.256c0.111,1.046,1.771,23.31,2.065,40.397c0.142,8.377-5.898,16.326-11.929,16.526
			c-0.089,0.005-0.178,0.005-0.268,0.005c-5.91,0-12.872-7.433-12.346-15.654c0.942-14.875,0.234-30.098,0.208-30.333
			L621.523,495.256z"/>
		<linearGradient id="SVGID_60_" gradientUnits="userSpaceOnUse" x1="586.834" y1="677.9219" x2="625.34" y2="496.0146">
			<stop  offset="0" style="stop-color:#FF664F"/>
			<stop  offset="1" style="stop-color:#9E005D"/>
		</linearGradient>
		<path fill="url(#SVGID_60_)" d="M638.811,591.474c-5.194,15.138-8.052,31.001-10.682,46.762
			c-1.928,11.568-1.429,23.612,0.142,35.202c0.958,7.028,2.338,13.99,3.931,20.897c0.605,2.614,5.747,23.72,5.987,25.977
			c0,0-91.041,0-96.36,0c0.918-18.881,22.425-78.186,7.87-116.593c-10.077-26.6,3.307-27.414,12.392-49.554
			c2.226-5.426,4.02-11.381,7.695-16.054c3.548-4.519,9.236-7.661,14.746-9.045c2.93-0.734,5.951-1.011,8.96-1.255
			c16.304-1.313,54.703-6.04,58.313,17.162c0.983,6.33,0.013,12.694-1.914,18.752c-2.149,6.77-5.368,13.144-8.065,19.714
			C640.738,586.093,639.736,588.771,638.811,591.474z"/>
		<path fill="#FFAF84" d="M588.854,583.181c-4.425-3.686-10.318-7.397-14.466-7.936c-4.145-0.538,2.76,5.208,5.901,8.229
			C583.428,586.497,592.574,586.283,588.854,583.181z"/>
		<path fill="#FFAF84" d="M583.753,581.917c-11.684-2.181-17.542-5.261-22.994-3.364c-5.453,1.896,2.127,9.632,6.08,11.012
			c3.952,1.379,17.804,7.17,22.05,4.563C593.135,591.513,592.379,583.533,583.753,581.917z"/>
		
			<linearGradient id="SVGID_61_" gradientUnits="userSpaceOnUse" x1="488.1978" y1="582.4561" x2="481.0648" y2="643.7159" gradientTransform="matrix(1 0 0.4946 1 -254.483 0)">
			<stop  offset="0" style="stop-color:#36078B"/>
			<stop  offset="1" style="stop-color:#16B1FF"/>
		</linearGradient>
		<path fill="url(#SVGID_61_)" d="M576.149,634.368h-70.605c-3.178,0-6.08-1.804-7.491-4.652l-21.912-44.305
			c-2.746-5.555,1.295-12.063,7.491-12.063h70.606c3.178,0,6.079,1.803,7.486,4.652l21.916,44.31
			C586.388,627.86,582.346,634.368,576.149,634.368z"/>
		<g>
			<g>
				<polygon fill="#4BADF7" points="508.157,603.046 537.342,603.046 536.216,600.954 507.031,600.954 				"/>
				<polygon fill="#4BADF7" points="519.698,606.767 539.35,606.767 538.224,604.671 518.572,604.671 				"/>
			</g>
		</g>
		
			<linearGradient id="SVGID_62_" gradientUnits="userSpaceOnUse" x1="486.811" y1="583.9307" x2="479.8806" y2="643.4512" gradientTransform="matrix(1 0 0.4946 1 -254.483 0)">
			<stop  offset="0" style="stop-color:#36078B"/>
			<stop  offset="1" style="stop-color:#16B1FF"/>
		</linearGradient>
		<path fill="url(#SVGID_62_)" d="M573.951,634.368h-68.603c-3.089,0-5.906-1.75-7.278-4.519l-21.289-43.049
			c-2.67-5.396,1.255-11.72,7.273-11.72h68.604c3.089,0,5.905,1.754,7.277,4.521l21.289,43.05
			C583.895,628.047,579.969,634.368,573.951,634.368z"/>
		
			<linearGradient id="SVGID_63_" gradientUnits="userSpaceOnUse" x1="601.4912" y1="456.9063" x2="612.9984" y2="350.6852" gradientTransform="matrix(-0.9765 0.2157 0.2157 0.9765 1055.1826 -109.7151)">
			<stop  offset="0" style="stop-color:#36078B"/>
			<stop  offset="1" style="stop-color:#16B1FF"/>
		</linearGradient>
		<path fill="url(#SVGID_63_)" d="M558.68,466.463c4.006,22.242,8.604,58.593,6.966,65.487c0,0,30.228-8.435,32.889-25.121
			c2.657-16.687-16.06-64.163-33.543-62.035"/>
		
			<linearGradient id="SVGID_64_" gradientUnits="userSpaceOnUse" x1="540.1914" y1="535.7334" x2="473.1511" y2="702.8486" gradientTransform="matrix(-0.6871 -0.2658 -0.349 0.937 1205.0944 165.114)">
			<stop  offset="0" style="stop-color:#FF664F"/>
			<stop  offset="1" style="stop-color:#9E005D"/>
		</linearGradient>
		<path fill="url(#SVGID_64_)" d="M657.033,643.528c1.727-7.122,3.721-23.248,0.503-60.717c-1.963-22.86-4.144-32.132-5.536-38.821
			c-2.484-11.924-12.896-12.703-17.359-7.709c-7.198,8.043-10.558,21.983-9.578,28.41c5.532,36.271,10.638,63.467,10.682,72.854
			C635.807,651.254,654.986,651.962,657.033,643.528z"/>
		
			<linearGradient id="SVGID_65_" gradientUnits="userSpaceOnUse" x1="705.2354" y1="504.7139" x2="662.9007" y2="610.2439" gradientTransform="matrix(0.7827 0.6224 -0.6224 0.7827 463.5306 -263.6523)">
			<stop  offset="0" style="stop-color:#FF664F"/>
			<stop  offset="1" style="stop-color:#9E005D"/>
		</linearGradient>
		<path fill="url(#SVGID_65_)" d="M582.755,591.509c-0.004,4.47,8.404,5.75,19.576,19.808c16.09,20.247,21.552,24.854,36.951,36.52
			c10.056,7.616,25.011-3.726,14.752-15.115c-8.672-9.628-55.54-43.094-62.007-47.586
			C588.079,582.389,582.765,586.938,582.755,591.509z"/>
		<path fill="#FFAF84" d="M625.517,475.348c2.247,18.975,2.607,23.203-3.819,32.599c-6.433,9.392-17.261,15.436-26.061,17.377
			c-9.503,2.101-18.762-6.383-22.647-13.763c-4.019-7.643-10.824-26.149-12.649-47.067c-0.926-10.603,9.036-25.914,22.153-28.809
			C595.605,432.787,620.032,428.988,625.517,475.348z"/>
		<path fill="#FFAF84" d="M501.627,615.45c-1.629-2.888-8.088-10.588-10.291-12.279c-5.145-3.952-10.459-3-10.994-1.198
			c-0.788,2.685-0.81,10.206,2.341,13.012c2.675,2.372,6.828,3.662,10.028,3.364C495.908,618.055,504.29,620.174,501.627,615.45z"/>
		
			<linearGradient id="SVGID_66_" gradientUnits="userSpaceOnUse" x1="671.1406" y1="863.9238" x2="680.3711" y2="750.2425" gradientTransform="matrix(-1 0 0 1 1176.6152 0)">
			<stop  offset="0" style="stop-color:#36078B"/>
			<stop  offset="1" style="stop-color:#16B1FF"/>
		</linearGradient>
		<path fill="url(#SVGID_66_)" d="M504.133,764.185c-1.099,2.142-6.365,7.091-13.651,10.344c-7.291,3.259-22.75,4.785-14.164,7.651
			c8.586,2.872,18.597,1.136,23.666,0.32c5.07-0.814,9.984-0.926,15.97-0.966c7.879-0.049,7.94-0.538,6.881-9.431
			C521.376,759.862,507.685,757.269,504.133,764.185z"/>
		
			<linearGradient id="SVGID_67_" gradientUnits="userSpaceOnUse" x1="561.5488" y1="1088.124" x2="570.7789" y2="974.4478" gradientTransform="matrix(-0.7964 -0.6048 -0.6048 0.7964 1408.9818 491.693)">
			<stop  offset="0" style="stop-color:#36078B"/>
			<stop  offset="1" style="stop-color:#16B1FF"/>
		</linearGradient>
		<path fill="url(#SVGID_67_)" d="M362.917,938.409c-2.168,1.038-9.352,1.799-17.128-0.018s-21.008-9.948-15.908-2.47
			c5.105,7.478,14.128,12.146,18.659,14.563c4.526,2.422,8.51,5.3,13.299,8.894c6.307,4.722,6.65,4.374,11.186-3.353
			C379.266,945.394,369.932,935.054,362.917,938.409z"/>
		
			<linearGradient id="SVGID_68_" gradientUnits="userSpaceOnUse" x1="570.9717" y1="453.6025" x2="582.479" y2="347.3803" gradientTransform="matrix(-0.9765 0.2157 0.2157 0.9765 1055.1826 -109.7151)">
			<stop  offset="0" style="stop-color:#36078B"/>
			<stop  offset="1" style="stop-color:#16B1FF"/>
		</linearGradient>
		<path fill="url(#SVGID_68_)" d="M561.312,454.096c-4.527,14.016,53.335,25.117,64.646,20.568
			c11.31-4.551,3.689-26.376-7.896-35.757C606.475,429.524,571.989,421.01,561.312,454.096z"/>
		
			<linearGradient id="SVGID_69_" gradientUnits="userSpaceOnUse" x1="595.4697" y1="456.2539" x2="606.9766" y2="350.0362" gradientTransform="matrix(-0.9765 0.2157 0.2157 0.9765 1055.1826 -109.7151)">
			<stop  offset="0" style="stop-color:#36078B"/>
			<stop  offset="1" style="stop-color:#16B1FF"/>
		</linearGradient>
		<path fill="url(#SVGID_69_)" d="M580.214,446.643c0.409,10.927-17.466,17.403-18.681,26.791
			c-0.756,5.822-5.422-11.017-2.813-19.687C561.323,445.078,579.391,424.675,580.214,446.643z"/>
		
			<linearGradient id="SVGID_70_" gradientUnits="userSpaceOnUse" x1="552.3105" y1="451.5791" x2="563.8176" y2="345.3595" gradientTransform="matrix(-0.9765 0.2157 0.2157 0.9765 1055.1826 -109.7151)">
			<stop  offset="0" style="stop-color:#36078B"/>
			<stop  offset="1" style="stop-color:#16B1FF"/>
		</linearGradient>
		<path fill="url(#SVGID_70_)" d="M623.589,472.381c5.407,21.941-7.442,41.886-9.08,48.775c0,0,30.227-8.43,32.884-25.116
			c2.661-16.687-6.601-78.324-65.661-64.161"/>
		<linearGradient id="SVGID_71_" gradientUnits="userSpaceOnUse" x1="364.6807" y1="879.4648" x2="493.0317" y2="669.2349">
			<stop  offset="0" style="stop-color:#2C27CE"/>
			<stop  offset="0.6488" style="stop-color:#EF1D68"/>
			<stop  offset="1" style="stop-color:#EFBA92"/>
		</linearGradient>
		<path fill="url(#SVGID_71_)" d="M424.318,667.167c-17.408-24.899,6.939-39.685,26.261-22.723
			c30.414,26.693,46.224,82.014,70.855,122.82c-8.612-4.265-14.274-4.265-16.046-2.933c-2.875,2.158-5.421,4.326-5.421,4.326
			C466.794,715.371,442.923,693.779,424.318,667.167z"/>
		<linearGradient id="SVGID_72_" gradientUnits="userSpaceOnUse" x1="469.6279" y1="943.5449" x2="597.9834" y2="733.3078">
			<stop  offset="0" style="stop-color:#2C27CE"/>
			<stop  offset="0.6488" style="stop-color:#EF1D68"/>
			<stop  offset="1" style="stop-color:#EFBA92"/>
		</linearGradient>
		<path fill="url(#SVGID_72_)" d="M622.57,781.49c0,0,32.362,2.279,15.618-61.179h-96.36c0,0-24.712,33.23,13.317,61.179H622.57z"/>
		<linearGradient id="SVGID_73_" gradientUnits="userSpaceOnUse" x1="385.4004" y1="892.1152" x2="513.7523" y2="681.884">
			<stop  offset="0" style="stop-color:#2C27CE"/>
			<stop  offset="0.6488" style="stop-color:#EF1D68"/>
			<stop  offset="1" style="stop-color:#EFBA92"/>
		</linearGradient>
		<path fill="url(#SVGID_73_)" d="M425.004,664.172c-8.274-9.976-2.341-45.089,33.471-17.452
			c15.886,12.258,105.964,76.343,114.439,82.845c8.467,6.504,10.647,15.936,9.587,21.338c-5.296,26.991-35.207,31.091-66.274,3.17
			C496.059,735.948,442.158,684.851,425.004,664.172z"/>
		<linearGradient id="SVGID_74_" gradientUnits="userSpaceOnUse" x1="201.7329" y1="1207.4238" x2="487.6501" y2="784.3024">
			<stop  offset="0" style="stop-color:#2C27CE"/>
			<stop  offset="0.6488" style="stop-color:#EF1D68"/>
			<stop  offset="1" style="stop-color:#EFBA92"/>
		</linearGradient>
		<path fill="url(#SVGID_74_)" d="M445.652,812.211c16.86-28.896,44.02-10.949,35.105,13.086
			c-12.614,33.983-88.401,108.679-103.61,123.546c-1.994,1.944-2.683,0.564-3.422-0.913c-2.164-4.335-4.313-7.807-6.063-8.412
			c-3.044-1.05-7.78-0.334-7.78-0.334C377.663,916.138,429.321,840.203,445.652,812.211z"/>
		<linearGradient id="SVGID_75_" gradientUnits="userSpaceOnUse" x1="242.5884" y1="1235.0371" x2="528.5083" y2="811.9117">
			<stop  offset="0" style="stop-color:#2C27CE"/>
			<stop  offset="0.6488" style="stop-color:#EF1D68"/>
			<stop  offset="1" style="stop-color:#EFBA92"/>
		</linearGradient>
		<path fill="url(#SVGID_75_)" d="M578.349,735.209c38.884-11.64,70.704,4.281,62.612,30.689
			c-3.4,11.113-13.638,17.069-23.715,20.59c-10.081,3.521-116.224,33.499-135.146,40.161c-42.645,15.014-37.846-20.853-26.452-27.03
			C484.416,784.023,557.162,741.552,578.349,735.209z"/>
		<path fill="#FFAF84" d="M622.143,479.371c-2.685,6.579-2.07,13.05,1.375,14.457c3.445,1.406,8.417-2.782,11.101-9.361
			c2.688-6.574,2.074-13.046-1.37-14.455C629.803,468.606,624.83,472.797,622.143,479.371z"/>
		<g>
			<defs>
				<path id="SVGID_76_" d="M657.536,582.812c-1.963-22.86-4.144-32.132-5.536-38.821c-0.864-4.148-2.698-6.921-4.896-8.599
					c-5.323-5.582-14.283-7.878-23.764-8.591c-0.107-2.911-0.236-5.831-0.379-8.671c9.155-3.801,22.691-11.163,24.432-22.09
					c2.6-16.304-6.209-75.479-61.708-64.974c-0.423,0.076-0.846,0.167-1.273,0.263c-0.89,0.183-1.763,0.332-2.68,0.55l0.138,0.136
					c-3.77,1.168-7.353,3.129-10.566,5.993c-5.273,3.009-11.176,11.061-12.583,15.739c-1.646,5.479-0.392,14.208,0.948,18.429
					c3.726,22.275,7.481,53.44,5.978,59.774c0,0,10.091-2.835,19.126-8.435c3.379,1.768,7.096,2.645,10.865,1.808
					c1.25-0.275,2.546-0.655,3.863-1.096c-0.014,1.011-0.035,2.039-0.063,3.085c-2.172,0.178-4.206,0.361-5.946,0.499
					c-3.009,0.244-6.03,0.521-8.96,1.255c-5.51,1.384-11.198,4.526-14.746,9.045c-3.676,4.673-5.47,10.628-7.695,16.054
					c-3.597,8.765-7.848,14.181-11.07,19.184h-67.388c-6.195,0-10.237,6.508-7.491,12.063l0.53,1.073
					c0.049,0.103,0.058,0.209,0.111,0.316l6.752,13.654c-1.718,0.104-2.951,0.708-3.191,1.518
					c-0.788,2.685-0.81,10.206,2.341,13.006c0.93,0.828,2.065,1.465,3.25,2.008c0.106,0.504,0.235,0.998,0.449,1.424
					c1.349,2.693,3.819,3.223,8.199,4.38l3.489,7.06c1.372,2.769,4.188,4.519,7.278,4.519h0.195h15.712
					c13.446,6.604,20.826,8.978,33.071,11.959c-1.571,23.261-7.602,46.61-10.688,62.046c-30.403-21.844-74.5-53.424-85.165-61.653
					c-13.518-10.434-22.771-11.916-28.62-9.196c-10.736,2.038-16.643,13.758-5.537,29.644
					c18.605,26.612,42.471,48.199,75.645,101.481c-2.404,1.995-5.648,4.172-9.48,5.88c-7.291,3.259-22.75,4.785-14.164,7.651
					c2.618,0.878,5.359,1.292,8.057,1.465c-11.354,6.365-21.449,12.031-28.727,15.975c-2.195,1.188-4.135,3.484-5.551,6.303
					c-1.535,1.789-3.027,3.863-4.446,6.289c-16.326,27.988-67.966,103.891-85.757,126.96c-3.343,0.494-8.555,0.517-14.105-0.779
					c-7.776-1.816-21.008-9.948-15.908-2.47c5.105,7.478,14.128,12.146,18.659,14.563c4.526,2.422,8.51,5.3,13.299,8.894
					c6.307,4.722,6.65,4.374,11.186-3.353c1.268-2.163,1.869-4.309,1.998-6.339c0.508,0.246,1.162,0.094,2.123-0.845
					c14.911-14.573,88.005-86.626,102.751-121.476c0.73-0.236,1.442-0.45,2.203-0.718c18.922-6.662,125.064-36.64,135.146-40.161
					c5.024-1.753,10.09-4.121,14.328-7.429c8.104-4.713,17.233-18.503,6.614-58.748c-0.24-2.257-5.382-23.362-5.987-25.977
					c-1.593-6.907-2.973-13.869-3.931-20.897c-1.534-11.327-2.012-23.082-0.23-34.409c3.258,2.714,6.836,5.47,11.242,8.808
					c5.235,3.962,11.765,2.769,15.41-0.872c1.14-0.886,1.994-2.021,2.341-3.436C658.76,636.406,660.754,620.28,657.536,582.812z
					 M632.807,613.395c0.094,0.61,0.191,1.232,0.28,1.824c-0.205-0.16-0.396-0.311-0.604-0.467
					C632.58,614.298,632.704,613.849,632.807,613.395z M525.053,761.104c-1.811,0.983-3.637,1.976-5.461,2.978
					c-2.617-4.486-5.149-9.106-7.602-13.852c1.535,1.402,2.955,2.689,4.237,3.842C519.187,756.734,522.133,759.018,525.053,761.104z
					"/>
			</defs>
			<clipPath id="SVGID_77_">
				<use xlink:href="#SVGID_76_"  overflow="visible"/>
			</clipPath>
			
				<linearGradient id="SVGID_78_" gradientUnits="userSpaceOnUse" x1="342.6714" y1="37.792" x2="907.4054" y2="384.7528" gradientTransform="matrix(0.6495 -0.7044 -0.3629 -0.618 386.202 1259.0642)">
				<stop  offset="0" style="stop-color:#0000FF"/>
				<stop  offset="1" style="stop-color:#9E005D"/>
			</linearGradient>
			<path opacity="0.2" clip-path="url(#SVGID_77_)" fill="url(#SVGID_78_)" d="M848.915,384.628
				c-47.31-24.726-129.341-14.475-160.813,33.157c-32.132,48.627-0.33,87.286-57.4,150.508
				c-45.142,50.002-36.187,123.938-45.676,176.873c-10.42,58.13-102.52,26.928-139.694,97.139
				c-57.128,107.882,57.195,185.578,127.738,235.381c72.423,51.133,125.647-55.793,206.94-127.503
				c60.021-52.944,104.121-113.567,93.435-170.326c-15.347-81.506-93.666-29.479-46.997-106.529
				c27.93-46.104,54.217-132.991-22.166-143.558C727.902,519.198,917.042,420.233,848.915,384.628z"/>
		</g>
	</g>
</g>
</svg>
