<?xml version="1.0" encoding="utf-8"?>
<!-- Generator: Adobe Illustrator 16.0.0, SVG Export Plug-In . SVG Version: 6.00 Build 0)  -->
<!DOCTYPE svg PUBLIC "-//W3C//DTD SVG 1.1//EN" "http://www.w3.org/Graphics/SVG/1.1/DTD/svg11.dtd">
<svg version="1.1" id="Layer_1" xmlns="http://www.w3.org/2000/svg" xmlns:xlink="http://www.w3.org/1999/xlink" x="0px" y="0px"
	 width="1024px" height="1024px" viewBox="0 0 1024 1024" enable-background="new 0 0 1024 1024" xml:space="preserve">
<g>
	<g>
		<path fill="#F9AB83" d="M761.672,420.532L761.672,420.532c4.832,0.864,9.495-2.385,10.361-7.218l8.787-49.798
			c0.865-4.833-2.382-9.497-7.217-10.361l0,0c-4.835-0.864-9.495,2.385-10.361,7.218l-8.79,49.798
			C753.589,415.005,756.837,419.668,761.672,420.532z"/>
		<path fill="#F9AB83" d="M721.736,423.713L721.736,423.713c1.475,4.684,6.513,7.311,11.196,5.838l30.814-8.985
			c4.9-0.316,8.65-4.582,8.337-9.484l0,0c-0.315-4.9-4.584-8.651-9.484-8.335l-35.024,9.768
			C722.892,413.989,720.263,419.029,721.736,423.713z"/>
	</g>
	<g>
		<g>
			<g>
				<path fill="#010400" d="M814.397,571.343c0.117,1.189-0.835,2.213-2.412,3.217c-0.454,0.288,0.058-6.413-1.502-5.292
					c-0.45,0.322-21.959,17.072-33.97,13.979c-1.333-0.344-1.756-1.567-1.794-2.585v-2.7c-0.165-3.045,4.364-7.691,11.248-14.399
					c7.581-7.388,12.416-12,23.749-5.457c3.24,1.869,4.54,3.271,4.557,4.468L814.397,571.343z"/>
				<path fill="#484968" d="M785.968,563.563c-9.162,8.928-14.158,14.203-9.454,16.921c4.705,2.715,14.104-1.374,23.75-8.663
					c8.45-6.381,20.787-7.172,9.453-13.715C798.384,551.563,793.549,556.175,785.968,563.563z"/>
			</g>
		</g>
		<path fill="#F1AC85" d="M795.178,559.305l0.67-82.428l27.247,8.833l-4.673,13.431c0,0,2.109,17.951-3.44,36.125
			c0,0-3.89,7.932-3.12,26.399C811.861,561.666,801.854,567.356,795.178,559.305z"/>
	</g>
	<g>
		<g>
			<g>
				<path fill="#010400" d="M788.102,549.734c0.117,1.189-0.835,2.213-2.412,3.217c-0.454,0.288,0.059-6.409-1.502-5.292
					c-0.45,0.322-21.959,17.072-33.97,13.979c-1.333-0.344-1.756-1.567-1.794-2.581v-2.701c-0.164-3.048,4.365-7.694,11.248-14.398
					c7.581-7.389,12.416-12.004,23.749-5.457c3.241,1.869,4.54,3.268,4.557,4.464L788.102,549.734z"/>
				<path fill="#484968" d="M759.672,541.958c-9.162,8.924-14.158,14.202-9.454,16.917c4.705,2.715,14.104-1.374,23.75-8.663
					c8.45-6.381,20.787-7.168,9.453-13.711C772.088,529.954,767.253,534.569,759.672,541.958z"/>
			</g>
		</g>
		<path fill="#E28C66" d="M768.882,537.696l0.67-82.427l27.247,8.833l-4.67,13.432c0,0,2.106,17.95-3.443,36.124
			c0,0-3.89,7.932-3.12,26.399C785.565,540.058,775.559,545.748,768.882,537.696z"/>
	</g>
	<path fill="#9CE3F0" d="M832.721,457.637v30.437c0,0-35.667,12.043-69.193-30.437v-29.46L832.721,457.637z"/>
	<path fill="#54A5F8" d="M815.775,469.37c-0.333,0.211-0.711,0.345-1.141,0.379c-5.979,0.462-27.472-4.218-48.973-28.45
		c-1.771-1.995-2.915-4.703-2.915-6.967v-68.764c0-5.182,1.853-8.818,4.832-10.493l16.165-9.433
		c2.941-1.751,7.024-1.541,11.522,1.055l22.048,12.73c8.904,5.141,16.187,17.756,16.187,28.038v69.164
		c0,1.612-0.574,2.792-1.557,3.309L815.775,469.37z"/>
	<path fill="#DD936F" d="M809.521,363.695c0.03,1.71-1.076,3.426-3.334,4.73c-4.453,2.57-11.67,2.57-16.124,0
		c-2.258-1.304-3.367-3.021-3.333-4.73v-14.981c-0.034-1.71,1.075-3.424,3.333-4.729c4.454-2.571,11.671-2.571,16.124,0
		c2.258,1.304,3.364,3.019,3.334,4.729V363.695z"/>
	<path fill="#F9AB83" d="M808.61,342.449c0,3.742,2.629,5.259,5.869,3.388c3.244-1.871,5.873-6.424,5.873-10.167
		c0-3.744-2.629-5.261-5.873-3.39C811.239,334.153,808.61,338.705,808.61,342.449z"/>
	<path fill="#3F4893" d="M778.022,382.821c0,0-30.351-27.597-11.839-76.693l14.221,50.963L778.022,382.821z"/>
	<circle fill="#F1AC85" cx="798.284" cy="324.588" r="31.389"/>
	<path fill="#3F4893" d="M788.981,382.821c0,0,23.348-25.73,7.147-73.377l-29.065,10.005c0,0-10.007-24.777,22.873-31.923
		c0,0,21.918-4.765,29.54,13.34c0,0,17.629,1.43,10.959,37.641C830.436,338.507,829.483,372.813,788.981,382.821z"/>
	<g>
		<path fill="#F9AB83" d="M809.6,440.634L809.6,440.634c4.732,1.32,9.681-1.474,10.997-6.205l13.818-51.464
			c1.319-4.73-1.475-9.68-6.203-10.998l0,0c-4.731-1.318-9.681,1.476-11,6.206l-13.818,51.464
			C802.078,434.368,804.868,439.318,809.6,440.634z"/>
		<path fill="#F9AB83" d="M759.493,442.431L759.493,442.431c1.024,4.804,5.794,7.895,10.595,6.871l41.574-8.437
			c4.91,0.149,9.048-3.744,9.199-8.653l0,0c0.147-4.909-3.746-9.046-8.656-9.196l-45.839,8.82
			C761.562,432.86,758.469,437.629,759.493,442.431z"/>
	</g>
</g>
<g>
	<g>
		<path fill="#FFFFFF" d="M195.354,652.453V344.341c0-7.813,4.168-15.033,10.935-18.94l370.357-213.825
			c14.58-8.418,32.804,2.103,32.804,18.938v308.115c0,7.813-4.168,15.031-10.935,18.938L228.157,671.392
			C213.578,679.812,195.354,669.289,195.354,652.453z"/>
		<linearGradient id="SVGID_1_" gradientUnits="userSpaceOnUse" x1="81.1641" y1="916.5049" x2="682.3963" y2="-66.1254">
			<stop  offset="0" style="stop-color:#0F123B"/>
			<stop  offset="0.0744" style="stop-color:#141754"/>
			<stop  offset="0.2081" style="stop-color:#1B1F7A"/>
			<stop  offset="0.3474" style="stop-color:#212599"/>
			<stop  offset="0.4915" style="stop-color:#262AB2"/>
			<stop  offset="0.6426" style="stop-color:#292DC3"/>
			<stop  offset="0.8051" style="stop-color:#2B2FCE"/>
			<stop  offset="0.9993" style="stop-color:#2C30D1"/>
		</linearGradient>
		<path fill="url(#SVGID_1_)" d="M217.258,667.021c-7.007,0-14.567-5.57-14.567-14.567V344.341c0-5.177,2.784-9.998,7.265-12.584
			L580.316,117.93c2.274-1.314,4.708-1.981,7.23-1.981c7.007,0,14.566,5.567,14.566,14.565v308.113
			c0,5.177-2.783,9.999-7.268,12.586L224.49,665.041C222.217,666.354,219.782,667.021,217.258,667.021z"/>
		<g>
			<linearGradient id="SVGID_2_" gradientUnits="userSpaceOnUse" x1="557.3359" y1="65.6768" x2="143.8599" y2="558.3283">
				<stop  offset="0" style="stop-color:#E4F2FF"/>
				<stop  offset="0.0555" style="stop-color:#E1EFFF"/>
				<stop  offset="0.6478" style="stop-color:#C7D7FB"/>
				<stop  offset="0.9993" style="stop-color:#BDCEFA"/>
			</linearGradient>
			<path fill="url(#SVGID_2_)" d="M195.354,652.453V344.341c0-7.813,4.168-15.033,10.935-18.94l370.357-213.825
				c6.134-3.543,12.9-3.7,18.694-1.478l0.014-0.015l-8.767-4.662c-6.608-4.923-15.891-6.143-24.038-1.438L192.191,317.812
				c-6.766,3.905-10.935,11.125-10.935,18.938v308.112c0,7.536,3.665,13.791,9.008,17.663v0.028l0.218,0.116
				c1.459,1.031,3.029,1.887,4.692,2.543l9.786,5.299C199.299,666.681,195.354,660.265,195.354,652.453z"/>
			<linearGradient id="SVGID_3_" gradientUnits="userSpaceOnUse" x1="295.0996" y1="570.2441" x2="123.0812" y2="775.202">
				<stop  offset="0" style="stop-color:#E4F2FF"/>
				<stop  offset="0.0555" style="stop-color:#E1EFFF"/>
				<stop  offset="0.6478" style="stop-color:#C7D7FB"/>
				<stop  offset="0.9993" style="stop-color:#BDCEFA"/>
			</linearGradient>
			<path fill="url(#SVGID_3_)" d="M209.033,672.719l0.084,0.044l0.009-0.01C209.095,672.739,209.062,672.732,209.033,672.719z"/>
		</g>
	</g>
	<g>
		<path fill="#FFFFFF" d="M228.157,709.271l266.836,154.057c6.766,3.907,15.103,3.907,21.87,0L887.22,649.502
			c14.577-8.416,14.577-29.461,0-37.877L620.386,457.567c-6.767-3.907-15.104-3.907-21.87,0L228.157,671.392
			C213.578,679.812,213.578,700.856,228.157,709.271z"/>
		<linearGradient id="SVGID_4_" gradientUnits="userSpaceOnUse" x1="1002.5664" y1="704.3037" x2="365.7984" y2="787.8395">
			<stop  offset="0" style="stop-color:#E4F2FF"/>
			<stop  offset="0.0555" style="stop-color:#E1EFFF"/>
			<stop  offset="0.6478" style="stop-color:#C7D7FB"/>
			<stop  offset="0.9993" style="stop-color:#BDCEFA"/>
		</linearGradient>
		<path fill="url(#SVGID_4_)" d="M887.22,649.502L516.862,863.328c-6.767,3.907-15.104,3.907-21.87,0L228.157,709.271
			c-7.289-4.209-10.933-11.573-10.933-18.938v20.007c0,7.364,3.645,14.729,10.933,18.938l266.836,154.056
			c6.766,3.907,15.103,3.907,21.87,0L887.22,669.509c6.966-4.021,10.563-10.928,10.872-17.959l0.015-0.007v-0.206
			c0.017-0.513,0.017-1.024,0-1.536v-18.468C897.862,638.437,894.254,645.439,887.22,649.502z M898.092,629.56
			c0.004,0.076,0.011,0.155,0.015,0.234v-0.237L898.092,629.56z"/>
		<path fill="#B8D0F6" d="M749.149,589.068L431.128,772.682c-12.408,7.161-34.08,6.265-48.406-2.007l-95.736-55.272
			c-14.326-8.271-15.883-20.787-3.476-27.948l318.023-183.61c12.409-7.163,34.079-6.266,48.405,2.007l95.736,55.272
			C760.002,569.395,761.559,581.906,749.149,589.068z"/>
		<path fill="#99B6E0" d="M283.511,691.855l318.022-183.611c12.409-7.163,34.079-6.265,48.405,2.007l95.736,55.274
			c6.825,3.941,10.715,8.842,11.615,13.666c1.271-6.123-2.694-12.917-11.615-18.068l-95.736-55.272
			c-14.326-8.273-35.996-9.172-48.405-2.007l-318.022,183.61c-6.498,3.752-9.129,8.973-8.139,14.278
			C276.142,698.021,278.829,694.557,283.511,691.855z"/>
		<path fill="#99B6E0" d="M540.188,587.811l-16.866-9.735l-16.862,9.735l16.862,9.738L540.188,587.811z M507.037,606.951
			l-16.866-9.735l-16.865,9.735l16.865,9.739L507.037,606.951z M573.34,568.669l-16.862-9.731l-16.866,9.731l16.866,9.739
			L573.34,568.669z M669.65,578.861l35.121-20.274l-16.866-9.739l-35.117,20.278L669.65,578.861z M676.279,542.14l-16.862-9.738
			l-16.866,9.738l16.862,9.735L676.279,542.14z M606.495,549.531l-16.866-9.735l-16.866,9.735l16.866,9.736L606.495,549.531z
			 M473.884,626.093l-16.865-9.735l-16.866,9.735l16.866,9.738L473.884,626.093z M647.018,572.456L356.381,740.255l16.864,9.739
			l290.638-167.803L647.018,572.456z M440.731,645.233l-16.864-9.735l-16.865,9.735l16.865,9.739L440.731,645.233z M633.719,547.236
			L327.892,723.809l16.864,9.735l305.829-176.572L633.719,547.236z M716.396,565.298L384.871,756.705l16.865,9.735l331.523-191.407
			L716.396,565.298z M374.426,683.516l-16.864-9.739l-16.865,9.739l16.865,9.735L374.426,683.516z M407.58,664.375l-16.866-9.736
			l-16.865,9.736l16.865,9.738L407.58,664.375z"/>
		<path fill="#E4F2FF" d="M540.188,584.876l-16.866-9.735l-16.862,9.735l16.862,9.738L540.188,584.876z M507.037,604.017
			l-16.866-9.735l-16.865,9.735l16.865,9.739L507.037,604.017z M573.34,565.734l-16.862-9.731l-16.866,9.731l16.866,9.739
			L573.34,565.734z M669.65,575.927l35.121-20.274l-16.866-9.739l-35.117,20.278L669.65,575.927z M676.279,539.205l-16.862-9.739
			l-16.866,9.739l16.862,9.735L676.279,539.205z M606.495,546.597l-16.866-9.735l-16.866,9.735l16.866,9.735L606.495,546.597z
			 M473.884,623.158l-16.865-9.736l-16.866,9.736l16.866,9.738L473.884,623.158z M647.018,569.521L356.381,737.32l16.864,9.739
			l290.638-167.803L647.018,569.521z M440.731,642.299l-16.864-9.735l-16.865,9.735l16.865,9.739L440.731,642.299z M633.719,544.302
			L327.892,720.873l16.864,9.736l305.829-176.572L633.719,544.302z M716.396,562.363L384.871,753.771l16.865,9.735l331.523-191.407
			L716.396,562.363z M374.426,680.581l-16.864-9.735l-16.865,9.735l16.865,9.735L374.426,680.581z M407.58,661.439l-16.866-9.735
			l-16.865,9.735l16.865,9.739L407.58,661.439z"/>
		<path fill="#FFFFFF" d="M556.478,557.467l15.595,9.003l1.268-0.735l-16.862-9.731l-16.866,9.731l1.271,0.735L556.478,557.467z
			 M589.629,538.325l15.595,9.004l1.271-0.732l-16.866-9.735l-16.866,9.735l1.271,0.732L589.629,538.325z M523.322,576.607
			l15.595,9.004l1.271-0.735l-16.866-9.735l-16.862,9.735l1.268,0.735L523.322,576.607z M654.056,566.924l33.85-19.54l15.595,9.004
			l1.271-0.735l-16.866-9.739l-35.117,20.278L654.056,566.924z M490.171,595.749l15.594,9.003l1.271-0.735l-16.866-9.735
			l-16.865,9.735l1.27,0.735L490.171,595.749z M659.417,530.934l15.591,9.004l1.271-0.732l-16.862-9.739l-16.866,9.739l1.271,0.732
			L659.417,530.934z M716.396,562.363L384.871,753.771l1.27,0.732l330.255-190.672l15.595,9.003l1.268-0.735L716.396,562.363z
			 M649.313,554.772l1.271-0.735l-16.866-9.735L327.892,720.873l1.27,0.732l304.558-175.837L649.313,554.772z M357.562,672.31
			l15.594,9.003l1.27-0.731l-16.864-9.735l-16.865,9.735l1.27,0.731L357.562,672.31z M662.612,579.989l1.271-0.732l-16.866-9.735
			L356.381,737.32l1.27,0.735l289.366-167.07L662.612,579.989z M390.713,653.172l15.595,9.004l1.271-0.736l-16.866-9.735
			l-16.865,9.735l1.27,0.736L390.713,653.172z M457.02,614.89l15.595,9.004l1.27-0.735l-16.865-9.736l-16.866,9.736l1.271,0.735
			L457.02,614.89z M423.867,634.03l15.594,9.004l1.27-0.735l-16.864-9.735l-16.865,9.735l1.27,0.735L423.867,634.03z"/>
		<path fill="#B8D0F6" d="M723.132,696.894l-99.101,57.217c-6.151,3.55-16.993,3.104-24.096-1l-21.771-12.566
			c-7.104-4.1-7.88-10.361-1.729-13.911l99.101-57.217c6.151-3.554,16.993-3.104,24.097,1l21.77,12.567
			C728.507,687.083,729.283,693.344,723.132,696.894z"/>
		<path fill="#99B6E0" d="M576.437,729.564l99.101-57.214c6.151-3.554,16.993-3.104,24.097,0.997l21.77,12.57
			c3.21,1.852,5.056,4.147,5.626,6.433c0.876-3.147-1.021-6.708-5.626-9.367l-21.77-12.567c-7.104-4.104-17.945-4.554-24.097-1
			l-99.101,57.214c-3.371,1.948-4.588,4.708-3.896,7.48C573.018,732.402,574.275,730.815,576.437,729.564z"/>
	</g>
	<g>
		<g>
			<path fill="#FFFFFF" d="M549.652,223.757v-11.385c0-9.799-6.883-13.772-15.367-8.872L270.521,355.784
				c-8.486,4.9-15.366,16.816-15.366,26.615v11.385L549.652,223.757z"/>
			<g>
				<path fill="#FFFFFF" d="M282.309,363.544c0,3.945-2.77,8.74-6.186,10.713c-3.416,1.973-6.186,0.373-6.186-3.57
					c0-3.945,2.77-8.741,6.186-10.713C279.539,358.001,282.309,359.599,282.309,363.544z"/>
				<path fill="#FFFFFF" d="M304.047,350.992c0,3.945-2.77,8.741-6.186,10.713c-3.416,1.973-6.184,0.375-6.184-3.57
					c0-3.945,2.768-8.741,6.184-10.713C301.278,345.449,304.047,347.049,304.047,350.992z"/>
				<path fill="#FFFFFF" d="M325.788,338.44c0,3.945-2.77,8.742-6.186,10.713c-3.416,1.972-6.186,0.375-6.186-3.571
					c0-3.945,2.77-8.74,6.186-10.713C323.019,332.897,325.788,334.496,325.788,338.44z"/>
			</g>
			<polygon fill="#FFEC00" points="301.795,421.935 255.155,448.861 255.155,406.448 301.795,379.52 			"/>
			<polygon fill="#FF9100" points="360.057,388.296 313.417,415.225 313.417,372.81 360.057,345.882 			"/>
			<polygon fill="#9CE3F0" points="418.318,354.659 371.679,381.587 371.679,339.172 418.318,312.244 			"/>
			<linearGradient id="SVGID_5_" gradientUnits="userSpaceOnUse" x1="434.3613" y1="307.6567" x2="549.6523" y2="307.6567">
				<stop  offset="0" style="stop-color:#FCFDFF;stop-opacity:0"/>
				<stop  offset="0.1209" style="stop-color:#FCFAD7;stop-opacity:0.121"/>
				<stop  offset="0.3661" style="stop-color:#FDF58C;stop-opacity:0.3663"/>
				<stop  offset="0.5853" style="stop-color:#FEF150;stop-opacity:0.5857"/>
				<stop  offset="0.7704" style="stop-color:#FFEE24;stop-opacity:0.771"/>
				<stop  offset="0.9143" style="stop-color:#FFED0A;stop-opacity:0.9149"/>
				<stop  offset="0.9993" style="stop-color:#FFEC00"/>
			</linearGradient>
			<polygon fill="url(#SVGID_5_)" points="434.361,345.397 549.652,278.833 549.652,269.916 434.361,336.48 			"/>
			<linearGradient id="SVGID_6_" gradientUnits="userSpaceOnUse" x1="434.3613" y1="290.9082" x2="549.6523" y2="290.9082">
				<stop  offset="0" style="stop-color:#FCFDFF;stop-opacity:0"/>
				<stop  offset="0.1209" style="stop-color:#FCFAD7;stop-opacity:0.121"/>
				<stop  offset="0.3661" style="stop-color:#FDF58C;stop-opacity:0.3663"/>
				<stop  offset="0.5853" style="stop-color:#FEF150;stop-opacity:0.5857"/>
				<stop  offset="0.7704" style="stop-color:#FFEE24;stop-opacity:0.771"/>
				<stop  offset="0.9143" style="stop-color:#FFED0A;stop-opacity:0.9149"/>
				<stop  offset="0.9993" style="stop-color:#FFEC00"/>
			</linearGradient>
			<polygon fill="url(#SVGID_6_)" points="434.361,328.648 549.652,262.086 549.652,253.168 434.361,319.73 			"/>
			<linearGradient id="SVGID_7_" gradientUnits="userSpaceOnUse" x1="434.3613" y1="274.1602" x2="549.6523" y2="274.1602">
				<stop  offset="0" style="stop-color:#FCFDFF;stop-opacity:0"/>
				<stop  offset="0.1209" style="stop-color:#FCFAD7;stop-opacity:0.121"/>
				<stop  offset="0.3661" style="stop-color:#FDF58C;stop-opacity:0.3663"/>
				<stop  offset="0.5853" style="stop-color:#FEF150;stop-opacity:0.5857"/>
				<stop  offset="0.7704" style="stop-color:#FFEE24;stop-opacity:0.771"/>
				<stop  offset="0.9143" style="stop-color:#FFED0A;stop-opacity:0.9149"/>
				<stop  offset="0.9993" style="stop-color:#FFEC00"/>
			</linearGradient>
			<polygon fill="url(#SVGID_7_)" points="434.361,311.901 549.652,245.338 549.652,236.419 434.361,302.983 			"/>
			<path fill="#FFFFFF" d="M539.532,375.779l-274.258,158.34c-5.565,3.217-10.119-0.227-10.119-7.649v-50.927
				c0-7.421,4.553-16.122,10.119-19.335l274.258-158.343c5.563-3.213,10.12,0.23,10.12,7.651v50.929
				C549.652,363.863,545.096,372.566,539.532,375.779z"/>
			<g>
				<polygon fill="#FFEC00" points="375.548,459.034 339.701,479.73 339.701,435.493 375.548,414.798 				"/>
				<polygon fill="#9CE3F0" points="420.325,433.182 384.479,453.878 384.479,416.616 420.325,395.92 				"/>
				<polygon fill="#FF9100" points="465.105,407.328 429.258,428.024 429.258,373.678 465.105,352.98 				"/>
			</g>
			<linearGradient id="SVGID_8_" gradientUnits="userSpaceOnUse" x1="471.1665" y1="396.5015" x2="558.9019" y2="342.5807">
				<stop  offset="0" style="stop-color:#FCFDFF;stop-opacity:0"/>
				<stop  offset="0.2768" style="stop-color:#FDB2C9;stop-opacity:0.277"/>
				<stop  offset="0.5268" style="stop-color:#FE779D;stop-opacity:0.5272"/>
				<stop  offset="0.7381" style="stop-color:#FE4B7E;stop-opacity:0.7386"/>
				<stop  offset="0.9023" style="stop-color:#FF316A;stop-opacity:0.9029"/>
				<stop  offset="0.9993" style="stop-color:#FF2763"/>
			</linearGradient>
			<polygon fill="url(#SVGID_8_)" points="529.688,364.813 539.316,359.255 539.316,350.337 529.688,355.896 			"/>
			<linearGradient id="SVGID_9_" gradientUnits="userSpaceOnUse" x1="463.6914" y1="384.3462" x2="551.4309" y2="330.4229">
				<stop  offset="0" style="stop-color:#FCFDFF;stop-opacity:0"/>
				<stop  offset="0.2768" style="stop-color:#FDB2C9;stop-opacity:0.277"/>
				<stop  offset="0.5268" style="stop-color:#FE779D;stop-opacity:0.5272"/>
				<stop  offset="0.7381" style="stop-color:#FE4B7E;stop-opacity:0.7386"/>
				<stop  offset="0.9023" style="stop-color:#FF316A;stop-opacity:0.9029"/>
				<stop  offset="0.9993" style="stop-color:#FF2763"/>
			</linearGradient>
			<polygon fill="url(#SVGID_9_)" points="529.688,348.066 539.316,342.506 539.316,333.588 529.688,339.148 			"/>
			<linearGradient id="SVGID_10_" gradientUnits="userSpaceOnUse" x1="456.2246" y1="372.186" x2="543.9587" y2="318.2661">
				<stop  offset="0" style="stop-color:#FCFDFF;stop-opacity:0"/>
				<stop  offset="0.2768" style="stop-color:#FDB2C9;stop-opacity:0.277"/>
				<stop  offset="0.5268" style="stop-color:#FE779D;stop-opacity:0.5272"/>
				<stop  offset="0.7381" style="stop-color:#FE4B7E;stop-opacity:0.7386"/>
				<stop  offset="0.9023" style="stop-color:#FF316A;stop-opacity:0.9029"/>
				<stop  offset="0.9993" style="stop-color:#FF2763"/>
			</linearGradient>
			<polygon fill="url(#SVGID_10_)" points="529.688,331.317 539.316,325.758 539.316,316.841 529.688,322.399 			"/>
			<linearGradient id="SVGID_11_" gradientUnits="userSpaceOnUse" x1="470.5942" y1="395.5728" x2="558.3318" y2="341.6507">
				<stop  offset="0" style="stop-color:#FCFDFF;stop-opacity:0"/>
				<stop  offset="0.2768" style="stop-color:#FDB2C9;stop-opacity:0.277"/>
				<stop  offset="0.5268" style="stop-color:#FE779D;stop-opacity:0.5272"/>
				<stop  offset="0.7381" style="stop-color:#FE4B7E;stop-opacity:0.7386"/>
				<stop  offset="0.9023" style="stop-color:#FF316A;stop-opacity:0.9029"/>
				<stop  offset="0.9993" style="stop-color:#FF2763"/>
			</linearGradient>
			<polygon fill="url(#SVGID_11_)" points="475.221,396.261 525.041,367.498 525.041,358.58 475.221,387.341 			"/>
			<linearGradient id="SVGID_12_" gradientUnits="userSpaceOnUse" x1="463.123" y1="383.4155" x2="550.861" y2="329.4933">
				<stop  offset="0" style="stop-color:#FCFDFF;stop-opacity:0"/>
				<stop  offset="0.2768" style="stop-color:#FDB2C9;stop-opacity:0.277"/>
				<stop  offset="0.5268" style="stop-color:#FE779D;stop-opacity:0.5272"/>
				<stop  offset="0.7381" style="stop-color:#FE4B7E;stop-opacity:0.7386"/>
				<stop  offset="0.9023" style="stop-color:#FF316A;stop-opacity:0.9029"/>
				<stop  offset="0.9993" style="stop-color:#FF2763"/>
			</linearGradient>
			<polygon fill="url(#SVGID_12_)" points="475.221,379.511 525.041,350.748 525.041,341.831 475.221,370.594 			"/>
			<linearGradient id="SVGID_13_" gradientUnits="userSpaceOnUse" x1="455.6514" y1="371.2593" x2="543.3893" y2="317.337">
				<stop  offset="0" style="stop-color:#FCFDFF;stop-opacity:0"/>
				<stop  offset="0.2768" style="stop-color:#FDB2C9;stop-opacity:0.277"/>
				<stop  offset="0.5268" style="stop-color:#FE779D;stop-opacity:0.5272"/>
				<stop  offset="0.7381" style="stop-color:#FE4B7E;stop-opacity:0.7386"/>
				<stop  offset="0.9023" style="stop-color:#FF316A;stop-opacity:0.9029"/>
				<stop  offset="0.9993" style="stop-color:#FF2763"/>
			</linearGradient>
			<polygon fill="url(#SVGID_13_)" points="475.221,362.764 525.041,334 525.041,325.083 475.221,353.844 			"/>
			<linearGradient id="SVGID_14_" gradientUnits="userSpaceOnUse" x1="339.6323" y1="429.6445" x2="240.3947" y2="496.9242">
				<stop  offset="0" style="stop-color:#FCFDFF;stop-opacity:0"/>
				<stop  offset="0.1209" style="stop-color:#FCFAD7;stop-opacity:0.121"/>
				<stop  offset="0.3661" style="stop-color:#FDF58C;stop-opacity:0.3663"/>
				<stop  offset="0.5853" style="stop-color:#FEF150;stop-opacity:0.5857"/>
				<stop  offset="0.7704" style="stop-color:#FFEE24;stop-opacity:0.771"/>
				<stop  offset="0.9143" style="stop-color:#FFED0A;stop-opacity:0.9149"/>
				<stop  offset="0.9993" style="stop-color:#FFEC00"/>
			</linearGradient>
			<polygon fill="url(#SVGID_14_)" points="275.444,469.188 265.815,474.746 265.815,483.664 275.444,478.105 			"/>
			<linearGradient id="SVGID_15_" gradientUnits="userSpaceOnUse" x1="347.416" y1="441.1167" x2="248.1732" y2="508.3999">
				<stop  offset="0" style="stop-color:#FCFDFF;stop-opacity:0"/>
				<stop  offset="0.1209" style="stop-color:#FCFAD7;stop-opacity:0.121"/>
				<stop  offset="0.3661" style="stop-color:#FDF58C;stop-opacity:0.3663"/>
				<stop  offset="0.5853" style="stop-color:#FEF150;stop-opacity:0.5857"/>
				<stop  offset="0.7704" style="stop-color:#FFEE24;stop-opacity:0.771"/>
				<stop  offset="0.9143" style="stop-color:#FFED0A;stop-opacity:0.9149"/>
				<stop  offset="0.9993" style="stop-color:#FFEC00"/>
			</linearGradient>
			<polygon fill="url(#SVGID_15_)" points="275.444,485.935 265.815,491.495 265.815,500.413 275.444,494.853 			"/>
			<linearGradient id="SVGID_16_" gradientUnits="userSpaceOnUse" x1="355.1909" y1="452.5933" x2="255.9533" y2="519.8729">
				<stop  offset="0" style="stop-color:#FCFDFF;stop-opacity:0"/>
				<stop  offset="0.1209" style="stop-color:#FCFAD7;stop-opacity:0.121"/>
				<stop  offset="0.3661" style="stop-color:#FDF58C;stop-opacity:0.3663"/>
				<stop  offset="0.5853" style="stop-color:#FEF150;stop-opacity:0.5857"/>
				<stop  offset="0.7704" style="stop-color:#FFEE24;stop-opacity:0.771"/>
				<stop  offset="0.9143" style="stop-color:#FFED0A;stop-opacity:0.9149"/>
				<stop  offset="0.9993" style="stop-color:#FFEC00"/>
			</linearGradient>
			<polygon fill="url(#SVGID_16_)" points="275.444,502.684 265.815,508.243 265.815,517.16 275.444,511.602 			"/>
			<linearGradient id="SVGID_17_" gradientUnits="userSpaceOnUse" x1="341.2393" y1="432.0122" x2="241.9988" y2="499.2938">
				<stop  offset="0" style="stop-color:#FCFDFF;stop-opacity:0"/>
				<stop  offset="0.1209" style="stop-color:#FCFAD7;stop-opacity:0.121"/>
				<stop  offset="0.3661" style="stop-color:#FDF58C;stop-opacity:0.3663"/>
				<stop  offset="0.5853" style="stop-color:#FEF150;stop-opacity:0.5857"/>
				<stop  offset="0.7704" style="stop-color:#FFEE24;stop-opacity:0.771"/>
				<stop  offset="0.9143" style="stop-color:#FFED0A;stop-opacity:0.9149"/>
				<stop  offset="0.9993" style="stop-color:#FFEC00"/>
			</linearGradient>
			<polygon fill="url(#SVGID_17_)" points="329.91,437.74 280.09,466.503 280.09,475.421 329.91,446.658 			"/>
			<linearGradient id="SVGID_18_" gradientUnits="userSpaceOnUse" x1="349.0186" y1="443.4873" x2="249.7781" y2="510.7689">
				<stop  offset="0" style="stop-color:#FCFDFF;stop-opacity:0"/>
				<stop  offset="0.1209" style="stop-color:#FCFAD7;stop-opacity:0.121"/>
				<stop  offset="0.3661" style="stop-color:#FDF58C;stop-opacity:0.3663"/>
				<stop  offset="0.5853" style="stop-color:#FEF150;stop-opacity:0.5857"/>
				<stop  offset="0.7704" style="stop-color:#FFEE24;stop-opacity:0.771"/>
				<stop  offset="0.9143" style="stop-color:#FFED0A;stop-opacity:0.9149"/>
				<stop  offset="0.9993" style="stop-color:#FFEC00"/>
			</linearGradient>
			<polygon fill="url(#SVGID_18_)" points="329.91,454.49 280.09,483.253 280.09,492.17 329.91,463.407 			"/>
			<linearGradient id="SVGID_19_" gradientUnits="userSpaceOnUse" x1="356.7983" y1="454.9614" x2="257.5579" y2="522.243">
				<stop  offset="0" style="stop-color:#FCFDFF;stop-opacity:0"/>
				<stop  offset="0.1209" style="stop-color:#FCFAD7;stop-opacity:0.121"/>
				<stop  offset="0.3661" style="stop-color:#FDF58C;stop-opacity:0.3663"/>
				<stop  offset="0.5853" style="stop-color:#FEF150;stop-opacity:0.5857"/>
				<stop  offset="0.7704" style="stop-color:#FFEE24;stop-opacity:0.771"/>
				<stop  offset="0.9143" style="stop-color:#FFED0A;stop-opacity:0.9149"/>
				<stop  offset="0.9993" style="stop-color:#FFEC00"/>
			</linearGradient>
			<polygon fill="url(#SVGID_19_)" points="329.91,471.237 280.09,500 280.09,508.918 329.91,480.155 			"/>
		</g>
		<path fill="#FFFFFF" d="M530.034,424.553L279.209,569.363c-5.205,3.004-9.46-0.213-9.46-7.147l0,0
			c0-6.938,4.256-15.072,9.46-18.076l250.825-144.814c5.203-3.005,9.457,0.213,9.457,7.151l0,0
			C539.491,413.414,535.237,421.548,530.034,424.553z"/>
	</g>
</g>
<g>
	<g>
		<linearGradient id="SVGID_20_" gradientUnits="userSpaceOnUse" x1="292.3003" y1="298.6909" x2="24.5487" y2="769.6304">
			<stop  offset="0" style="stop-color:#E4F2FF"/>
			<stop  offset="0.3075" style="stop-color:#D7E6FD;stop-opacity:0.6923"/>
			<stop  offset="0.9993" style="stop-color:#BDCEFA;stop-opacity:0"/>
		</linearGradient>
		<path fill="url(#SVGID_20_)" d="M268.667,611.172L30.703,748.561c-7.366,4.255-13.392-0.302-13.392-10.123V513.477
			c0-9.82,6.026-21.333,13.392-25.586l237.964-137.389c7.366-4.251,13.392,0.304,13.392,10.125v224.958
			C282.06,595.405,276.034,606.921,268.667,611.172z"/>
		<g>
			<linearGradient id="SVGID_21_" gradientUnits="userSpaceOnUse" x1="312.9644" y1="363.9736" x2="123.4403" y2="689.2219">
				<stop  offset="0" style="stop-color:#E4F2FF"/>
				<stop  offset="0.0555" style="stop-color:#E1EFFF"/>
				<stop  offset="0.6478" style="stop-color:#C7D7FB"/>
				<stop  offset="0.9993" style="stop-color:#BDCEFA"/>
			</linearGradient>
			<polygon fill="url(#SVGID_21_)" points="261.341,588.092 38.03,717.024 38.03,700.275 261.341,571.347 			"/>
			<linearGradient id="SVGID_22_" gradientUnits="userSpaceOnUse" x1="261.6572" y1="334.0752" x2="72.1327" y2="659.3242">
				<stop  offset="0" style="stop-color:#E4F2FF"/>
				<stop  offset="0.0555" style="stop-color:#E1EFFF"/>
				<stop  offset="0.6478" style="stop-color:#C7D7FB"/>
				<stop  offset="0.9993" style="stop-color:#BDCEFA"/>
			</linearGradient>
			<path fill="url(#SVGID_22_)" d="M218.736,486.37c0,44.035-30.915,97.582-69.05,119.599
				c-38.136,22.018-69.051,4.168-69.051-39.866c0-44.035,30.915-97.582,69.051-119.599
				C187.821,424.486,218.736,442.335,218.736,486.37z"/>
		</g>
	</g>
	<g>
		<linearGradient id="SVGID_23_" gradientUnits="userSpaceOnUse" x1="762.3408" y1="-28.7051" x2="544.9057" y2="423.6999">
			<stop  offset="0" style="stop-color:#E4F2FF"/>
			<stop  offset="0.3075" style="stop-color:#D7E6FD;stop-opacity:0.6923"/>
			<stop  offset="0.9993" style="stop-color:#BDCEFA;stop-opacity:0"/>
		</linearGradient>
		<path fill="url(#SVGID_23_)" d="M757.283,266.285l-237.964,137.39c-7.368,4.252-13.392-0.302-13.392-10.124V218.062
			c0-9.82,6.024-21.333,13.392-25.588L757.283,55.086c7.364-4.253,13.393,0.302,13.393,10.124v175.49
			C770.676,250.519,764.647,262.034,757.283,266.285z"/>
		<g>
			<linearGradient id="SVGID_24_" gradientUnits="userSpaceOnUse" x1="805.834" y1="144.8218" x2="515.8552" y2="400.8667">
				<stop  offset="0" style="stop-color:#E4F2FF"/>
				<stop  offset="0.0555" style="stop-color:#E1EFFF"/>
				<stop  offset="0.6478" style="stop-color:#C7D7FB"/>
				<stop  offset="0.9993" style="stop-color:#BDCEFA"/>
			</linearGradient>
			<polygon fill="url(#SVGID_24_)" points="749.957,236.66 526.646,365.588 526.646,348.841 749.957,219.912 			"/>
			<linearGradient id="SVGID_25_" gradientUnits="userSpaceOnUse" x1="788.8135" y1="125.5444" x2="498.8332" y2="381.5907">
				<stop  offset="0" style="stop-color:#E4F2FF"/>
				<stop  offset="0.0555" style="stop-color:#E1EFFF"/>
				<stop  offset="0.6478" style="stop-color:#C7D7FB"/>
				<stop  offset="0.9993" style="stop-color:#BDCEFA"/>
			</linearGradient>
			<polygon fill="url(#SVGID_25_)" points="749.957,202.354 526.646,331.284 526.646,314.535 749.957,185.606 			"/>
			<g>
				<linearGradient id="SVGID_26_" gradientUnits="userSpaceOnUse" x1="744.2178" y1="75.0352" x2="454.2363" y2="331.0824">
					<stop  offset="0" style="stop-color:#E4F2FF"/>
					<stop  offset="0.0555" style="stop-color:#E1EFFF"/>
					<stop  offset="0.6478" style="stop-color:#C7D7FB"/>
					<stop  offset="0.9993" style="stop-color:#BDCEFA"/>
				</linearGradient>
				<polygon fill="url(#SVGID_26_)" points="591.142,253.99 531.165,288.617 531.165,219.364 591.142,184.736 				"/>
				<linearGradient id="SVGID_27_" gradientUnits="userSpaceOnUse" x1="755.916" y1="88.2852" x2="465.936" y2="344.3311">
					<stop  offset="0" style="stop-color:#E4F2FF"/>
					<stop  offset="0.0555" style="stop-color:#E1EFFF"/>
					<stop  offset="0.6478" style="stop-color:#C7D7FB"/>
					<stop  offset="0.9993" style="stop-color:#BDCEFA"/>
				</linearGradient>
				<polygon fill="url(#SVGID_27_)" points="668.29,209.45 608.313,244.075 608.313,174.822 668.29,140.195 				"/>
				<linearGradient id="SVGID_28_" gradientUnits="userSpaceOnUse" x1="767.6113" y1="101.5352" x2="477.6398" y2="357.5737">
					<stop  offset="0" style="stop-color:#E4F2FF"/>
					<stop  offset="0.0555" style="stop-color:#E1EFFF"/>
					<stop  offset="0.6478" style="stop-color:#C7D7FB"/>
					<stop  offset="0.9993" style="stop-color:#BDCEFA"/>
				</linearGradient>
				<polygon fill="url(#SVGID_28_)" points="745.435,164.908 685.462,199.534 685.462,130.281 745.435,95.655 				"/>
			</g>
		</g>
	</g>
</g>
<g>
	<g>
		<g>
			<g>
				<g>
					<path fill="#010400" d="M875.906,899.937c-1.089,0.478-1.512,1.808-1.611,3.671c-0.027,0.532,5.532-3.193,5.33-1.293
						c-0.063,0.55-4.052,27.424,4.519,36.331c0.948,0.985,2.22,0.752,3.12,0.288l2.341-1.323c2.729-1.351,4.536-7.557,6.982-16.817
						c2.694-10.199,4.327-16.657-6.903-23.282c-3.21-1.894-5.063-2.337-6.106-1.763L875.906,899.937z"/>
					<path fill="#484968" d="M896.587,920.793c-3.254,12.323-5.381,19.247-10.045,16.495c-4.663-2.75-5.722-12.911-4.123-24.853
						c1.395-10.461-3.97-21.554,7.265-14.925C900.914,904.136,899.281,910.594,896.587,920.793z"/>
				</g>
			</g>
			<path fill="#E28C66" d="M969.007,841.98l-23.062,8.438l-9.364,10.639c0,0-16.608,6.966-29.657,20.694
				c0,0-4.979,7.258-21.382,15.643c0,0-0.03,11.472,10.228,13.32l65.732-37.836c4.598-2.646,7.643-7.326,8.213-12.602
				C970.172,856.022,970.176,850.081,969.007,841.98z"/>
		</g>
	</g>
	<g>
		<g>
			<g>
				<path fill="#2D0D60" d="M920.512,958.146c-0.117,1.186,0.832,2.207,2.405,3.207c0.45,0.288-0.059-6.389,1.495-5.275
					c0.447,0.323,21.884,17.014,33.853,13.935c1.326-0.344,1.749-1.563,1.787-2.577v-2.69c0.165-3.038-4.351-7.663-11.206-14.348
					c-7.557-7.364-12.375-11.959-23.671-5.439c-3.227,1.862-4.522,3.258-4.539,4.446L920.512,958.146z"/>
				<path fill="#484968" d="M948.846,950.397c9.127,8.894,14.109,14.151,9.419,16.859c-4.688,2.708-14.055-1.371-23.67-8.632
					c-8.416-6.361-20.716-7.145-9.42-13.667C936.471,938.438,941.289,943.033,948.846,950.397z"/>
			</g>
		</g>
		<path fill="#F1AC85" d="M939.667,946.15L939,864.009l-22.278,7.22l-0.221,14.966c0,0-2.103,17.891,3.43,36
			c0,0,3.873,7.904,3.106,26.31C923.037,948.504,933.01,954.175,939.667,946.15z"/>
	</g>
	<g>
		<path fill="#E28C66" d="M1000.42,831.066L1000.42,831.066c-4.457,2.024-9.76,0.031-11.78-4.426l-35.255-77.895
			c-2.023-4.457-0.031-9.759,4.426-11.779l0,0c4.458-2.024,9.757-0.031,11.78,4.426l35.255,77.895
			C1006.866,823.744,1004.877,829.046,1000.42,831.066z"/>
	</g>
	<g>
		<linearGradient id="SVGID_29_" gradientUnits="userSpaceOnUse" x1="1010.9102" y1="797.543" x2="943.0934" y2="771.0779">
			<stop  offset="0" style="stop-color:#E8E9FF"/>
			<stop  offset="0.9996" style="stop-color:#C0C0F6"/>
		</linearGradient>
		<polygon fill="url(#SVGID_29_)" points="1003.853,822.215 948.646,790.338 948.646,745.818 1003.853,777.695 		"/>
		<g>
			<polygon fill="#A29AFB" points="990.258,810.187 990.258,776.413 991.44,777.098 991.44,810.871 			"/>
			<polygon fill="#A29AFB" points="987.588,798.644 987.588,774.874 988.771,775.555 988.771,799.324 			"/>
			<polygon fill="#A29AFB" points="984.918,804.5 984.918,773.331 986.104,774.015 986.104,805.184 			"/>
			<polygon fill="#A29AFB" points="982.251,805.564 982.251,771.791 983.434,772.472 983.434,806.249 			"/>
			<polygon fill="#A29AFB" points="979.581,782.627 979.581,770.252 980.763,770.933 980.763,783.307 			"/>
		</g>
	</g>
	<path fill="#FF9100" d="M902.25,844.833v30.334c0,0,35.544,12,68.956-30.334v-29.357L902.25,844.833z"/>
	<path fill="#FFFFEB" d="M918.36,854.232c0.33,0.209,0.712,0.343,1.138,0.378c5.959,0.46,27.378-4.203,48.805-28.352
		c1.763-1.989,2.903-4.687,2.903-6.944v-68.523c0-5.165-1.845-8.79-4.814-10.46l-16.11-9.399c-2.931-1.745-7-1.536-11.48,1.052
		l-21.973,12.684c-8.873,5.124-16.131,17.698-16.131,27.942v68.925c0,1.608,0.574,2.783,1.553,3.299L918.36,854.232z"/>
	<path fill="#DD936F" d="M924.594,748.922c-0.03,1.704,1.072,3.416,3.323,4.715c4.437,2.56,11.629,2.56,16.065,0
		c2.255-1.299,3.357-3.011,3.323-4.715v-14.928c0.034-1.705-1.068-3.413-3.323-4.715c-4.437-2.561-11.629-2.561-16.065,0
		c-2.251,1.302-3.354,3.01-3.323,4.715V748.922z"/>
	<g>
		<path fill="#F9AB83" d="M863.969,846.967L863.969,846.967c-4.368-2.209-6.135-7.587-3.929-11.955l38.739-76.771
			c2.206-4.367,7.588-6.134,11.956-3.928l0,0c4.367,2.21,6.134,7.588,3.924,11.955l-38.735,76.774
			C873.714,847.41,868.336,849.177,863.969,846.967z"/>
	</g>
	<g>
		<path fill="#943BBB" d="M964.849,701.66l11.23,43.588c1.048,4.065-3,7.577-6.876,5.963l-25.85-10.75
			c-2.233-0.931-3.505-3.306-3.034-5.684l8.468-42.877c0.896-4.543,6.907-5.618,9.326-1.67l6.148,10.041
			C964.525,700.701,964.726,701.169,964.849,701.66z"/>
		<path fill="#F9AB83" d="M925.519,727.75c0,3.729-2.618,5.24-5.849,3.378c-3.23-1.866-5.849-6.402-5.849-10.134
			c0-3.729,2.618-5.241,5.849-3.379C922.9,719.481,925.519,724.018,925.519,727.75z"/>
		<path fill="#F9AB83" d="M967.093,709.949c0,17.278-14.003,31.281-31.282,31.281c-17.274,0-31.281-14.003-31.281-31.281
			c0-17.275,14.007-31.279,31.281-31.279C953.09,678.67,967.093,692.674,967.093,709.949z"/>
		<path fill="#943BBB" d="M905.401,714.124c0,0,26.434,14.499,39.316-23.213c0,0,6.891,15.928,24.083,12.412
			c0,0,0-24.801-25.595-29.611C943.206,673.712,897.958,669.196,905.401,714.124z"/>
		<path fill="#943BBB" d="M919.965,715.365l11.23,43.588c1.049,4.064-3.003,7.577-6.876,5.965l-25.849-10.752
			c-2.234-0.932-3.506-3.306-3.035-5.681l8.468-42.877c0.897-4.546,6.907-5.622,9.326-1.673l6.148,10.041
			C919.643,714.409,919.838,714.877,919.965,715.365z"/>
	</g>
</g>
<g>
	<g>
		<path d="M670.234,849.156c-0.209,3.646,5.296,8.767,13.674,13.602c11.148,6.437,15.097,14.591,28.873,6.636
			c3.945-2.274,5.595-4.086,5.691-5.663v-8.567c0.385-3.986-9.169-6.464-17.183-11.089c-11.148-6.437-23.155-9.938-28.873-6.637
			c-1.454,0.839-2.138,1.915-2.183,3.151V849.156z"/>
		<path fill="#2D0D60" d="M683.908,854.108c-11.145-6.437-17.213-13.368-11.491-16.671c5.718-3.302,17.725,0.2,28.873,6.637
			c11.147,6.433,25.271,8.715,11.491,16.666C699.005,868.696,695.057,860.541,683.908,854.108z"/>
	</g>
	<g>
		<path d="M701.218,827.816c-0.21,3.646,5.292,8.763,13.674,13.601c11.147,6.437,15.096,14.592,28.873,6.636
			c3.941-2.278,5.595-4.089,5.69-5.666v-8.567c0.385-3.982-9.168-6.46-17.182-11.089c-11.148-6.438-23.155-9.938-28.877-6.637
			c-1.45,0.839-2.138,1.914-2.179,3.155V827.816z"/>
		<path fill="#2D0D60" d="M714.892,832.765c-11.148-6.437-17.214-13.368-11.491-16.671c5.718-3.302,17.725,0.199,28.873,6.637
			c11.144,6.436,25.268,8.715,11.491,16.67C729.987,847.355,726.039,839.201,714.892,832.765z"/>
	</g>
	<g>
		<path fill="#FCC4B7" d="M688.963,571.92L688.963,571.92c4.258-2.68,9.936-1.385,12.612,2.873l38.031,60.488
			c2.677,4.258,1.385,9.936-2.876,12.612l0,0c-4.258,2.677-9.936,1.385-12.612-2.873l-38.031-60.488
			C683.41,580.274,684.702,574.598,688.963,571.92z"/>
		<path fill="#293677" d="M713.892,638.147l12.271,19.516c4.141,6.588,12.921,8.588,19.505,4.447l0,0
			c6.588-4.142,8.592-12.922,4.447-19.509l-12.269-19.516C737.847,623.086,722.465,617.302,713.892,638.147z"/>
	</g>
	<g>
		<path fill="#55D1FF" d="M718.08,851.256c0.443-0.853,0.636-1.811,0.636-2.77v-95.589c0-6.044-6.229-10.989-13.849-10.989l0,0
			c-7.618,0-13.853,4.945-13.853,10.989v103.939c0,1.532,0.993,2.896,2.464,3.34C698.792,861.785,711.39,864.084,718.08,851.256z"/>
	</g>
	<g>
		<path fill="#55D1FF" d="M749.139,828.851c0.427-0.863,0.602-1.825,0.581-2.787l-2.093-95.564
			c-0.134-6.041-6.475-10.849-14.09-10.685l0,0c-7.614,0.169-13.738,5.248-13.607,11.293l2.278,103.915
			c0.03,1.532,1.055,2.872,2.532,3.285C730.088,839.799,742.733,841.819,749.139,828.851z"/>
	</g>
	<path fill="#5258A6" d="M695.582,770.08c0.34,0.217,0.729,0.354,1.172,0.389c6.124,0.474,28.141-4.32,50.165-29.145
		c1.814-2.045,2.986-4.818,2.986-7.138v-70.444c0-5.31-1.896-9.031-4.948-10.749l-16.561-9.663
		c-3.014-1.794-7.195-1.581-11.804,1.079l-22.588,13.041c-9.12,5.269-16.581,18.192-16.581,28.726v70.853
		c0,1.649,0.588,2.862,1.598,3.392L695.582,770.08z"/>
	<path fill="#F1AC85" d="M701.991,661.825c-0.034,1.752,1.1,3.508,3.416,4.845c4.56,2.633,11.955,2.633,16.515,0
		c2.313-1.337,3.451-3.093,3.416-4.845v-15.348c0.035-1.753-1.103-3.509-3.416-4.846c-4.56-2.632-11.955-2.632-16.515,0
		c-2.316,1.337-3.45,3.093-3.416,4.846V661.825z"/>
	<circle fill="#FCC4B7" cx="713.663" cy="621.993" r="32.157"/>
	<g>
		<path fill="#FCC4B7" d="M657.974,764.189L657.974,764.189c-4.763-1.621-7.33-6.849-5.705-11.607l24.187-65.386
			c1.625-4.763,6.849-7.33,11.611-5.705l0,0c4.76,1.626,7.326,6.85,5.704,11.612l-24.186,65.382
			C667.96,763.248,662.736,765.815,657.974,764.189z"/>
		<path fill="#293677" d="M694.867,705.375l7.443-21.818c2.512-7.364-1.461-15.446-8.825-17.959l0,0
			c-7.364-2.512-15.443,1.457-17.955,8.821l-7.443,21.822C668.087,696.241,673.272,711.832,694.867,705.375z"/>
	</g>
	<path fill-rule="evenodd" clip-rule="evenodd" fill="#E58800" d="M731.788,651.313c-10.141,5.907-17.894,1.42-20.646-2.862
		c-6.938-10.756-8.09-3.581-12.224-8.643c-5.423-8.904-4.206-21.042-11.722-26.65c-10.784-8.048-7.832-24.075,20.299-31.247
		c37.798-9.64,52.691,37.986,29.1,65.516C734.905,649.396,734.036,650,731.788,651.313z"/>
	<path fill="#FCC4B7" d="M702.431,641.145c-2.711,2.711-5.715,1.903-6.708-1.798c-0.993-3.704,0.402-8.907,3.113-11.618
		c2.712-2.712,5.715-1.907,6.708,1.797C706.537,633.23,705.143,638.43,702.431,641.145z"/>
</g>
</svg>
