<?xml version="1.0" encoding="utf-8"?>
<!-- Generator: Adobe Illustrator 16.0.0, SVG Export Plug-In . SVG Version: 6.00 Build 0)  -->
<!DOCTYPE svg PUBLIC "-//W3C//DTD SVG 1.1//EN" "http://www.w3.org/Graphics/SVG/1.1/DTD/svg11.dtd">
<svg version="1.1" id="Layer_1" xmlns="http://www.w3.org/2000/svg" xmlns:xlink="http://www.w3.org/1999/xlink" x="0px" y="0px"
	 width="923.463px" height="732px" viewBox="0 0 923.463 732" enable-background="new 0 0 923.463 732" xml:space="preserve">
<path fill="#FFFFFF" d="M128.494,176.017c0,6.005-4.872,10.875-10.881,10.875c-6.004,0-10.876-4.87-10.876-10.875
	c0-6.007,4.872-10.876,10.876-10.876C123.623,165.141,128.494,170.009,128.494,176.017z"/>
<path fill="#FFFFFF" d="M236.819,242.835c0,5.305-4.297,9.602-9.6,9.602c-5.303,0-9.601-4.297-9.601-9.602
	c0-5.297,4.297-9.599,9.601-9.599C232.521,233.236,236.819,237.538,236.819,242.835z"/>
<path fill="#FFFFFF" d="M253.5,106.314L253.5,106.314c2.368,7.295,8.087,13.015,15.379,15.38l0,0l0,0
	c-7.292,2.37-13.011,8.083-15.379,15.379l0,0l0,0c-2.37-7.295-8.089-13.009-15.381-15.379l0,0l0,0
	C245.411,119.329,251.13,113.609,253.5,106.314L253.5,106.314z"/>
<path fill="#FFFFFF" d="M117.613,242.075L117.613,242.075c2.37,7.292,8.089,13.011,15.385,15.379l0,0l0,0
	c-7.295,2.368-13.015,8.089-15.385,15.381l0,0l0,0c-2.365-7.292-8.083-13.014-15.379-15.381l0,0l0,0
	C109.53,255.085,115.248,249.367,117.613,242.075L117.613,242.075z"/>
<g>
	<polygon fill="#F77429" points="792.41,691.052 785.132,705.723 747.857,719.981 811.225,719.981 804.683,703.773 	"/>
	<polygon fill="#F77429" points="854.33,691.052 847.048,705.723 809.778,719.981 873.135,719.981 866.603,703.773 	"/>
	<path fill="#0C0054" d="M750.261,196.705c-21.832-8.202-34.759-34.843-27.69-57.064c3.915-12.321,13.063-23.317,12.927-36.244
		c-0.103-10.03-5.873-19.19-6.97-29.155c-1.484-13.463,6.708-27.424,19.186-32.692c7.561-13.063,21.893-24.246,36.895-25.892
		c14.997-1.644,30.631,4.229,40.842,15.341c9.415,10.248,13.925,23.943,18.188,37.189c6.811,21.185,13.621,42.372,20.432,63.557
		c5.244,16.307,10.487,32.613,15.245,49.067c2.913,10.084,5.672,20.661,3.696,30.967c-3.688,19.204-22.999,31.92-42.197,35.644
		C800.799,255.189,763.122,235.381,750.261,196.705z"/>
	<path fill="#4A2BD3" d="M739.151,383.914c14.936,106.562,29.873,213.122,44.811,319.681h23.254
		c0.037-104.769,3.25-210.616,12.711-314.959C795.951,389.917,763.127,382.638,739.151,383.914z"/>
	<path fill="#4A2BD3" d="M801.07,383.914c14.933,106.562,29.87,213.122,44.802,319.681h23.26
		c0.037-104.769,3.245-210.616,12.711-314.959C857.87,389.917,825.042,382.638,801.07,383.914z"/>
	<polygon fill="#4A2BD3" points="758.082,424.766 739.151,383.914 739.151,296.395 881.843,296.395 881.843,388.636 
		855.763,424.766 	"/>
	<path fill="#C552E3" d="M892.821,282.746c-0.141-34.815-3.942-70.967-21.836-100.837c-12.417-20.726-37.788-41.146-62.598-46.585
		c-5.818-14.857-8.595-30.759-9.14-46.737c-5.414,0.513-10.763,1.609-16.177,2.12c-0.965,15.354-1.936,30.711-2.898,46.065
		c-1.061,0.412-2.109,0.864-3.135,1.37c-30.923,15.22-53.059,45.222-63.4,78.097c-10.346,32.875,25.514,79.115,25.738,137.498
		l142.467,1.204C892.264,311.403,893,327.514,892.821,282.746z"/>
	<path fill="#FFADAD" d="M762.756,146.674c3.822,5.316,9.636,9.356,16.023,10.965c11.031,2.775,23.046-0.875,31.996-7.895
		c3.831-3,7.119-6.576,10-10.487c-4.104-1.67-8.253-3.026-12.388-3.935c-5.818-14.857-8.595-30.759-9.14-46.737
		c-5.414,0.513-10.763,1.609-16.177,2.12c-0.965,15.354-1.936,30.711-2.898,46.065c-1.061,0.412-2.109,0.864-3.135,1.37
		C772.036,140.604,767.286,143.489,762.756,146.674z"/>
	<path opacity="0.1" d="M806.331,129.663c-4.112-12.281-6.262-25.171-6.933-38.148c-5.897,0.574-11.611,2.563-16.73,5.615
		c-0.834,13.213-1.668,26.427-2.495,39.641c-1.061,0.412-2.109,0.864-3.135,1.37c-2.722,1.342-5.354,2.821-7.93,4.398
		C782.256,141.058,795.033,136.564,806.331,129.663z"/>
	<path fill="#FFADAD" d="M753.928,71.04c0.566,11.849,1.176,23.909,5.195,35.07c4.02,11.164,12.027,21.506,23.241,25.382
		c21.438-9.661,37.245-31.55,38.354-55.037c0.464-9.701-1.874-20.431-9.653-26.246c-8.064-6.031-19.273-4.949-29.142-2.951
		c-6.844,1.383-13.832,3.173-19.414,7.362C756.926,58.818,753.586,64.064,753.928,71.04z"/>
	<path fill="#C552E3" d="M747.994,160.981c-54.266,61.669-111.292,143.317-124.74,224.378c6.919,2.258,13.35,7.005,20.268,9.257
		c15.757-60.47,71.129-120.317,122.266-156.245c1.313-21.193,2.398-46.842,1.564-70.43
		C767.001,157.954,754.599,153.475,747.994,160.981z"/>
	<path opacity="0.2" d="M830.452,160.316c-4.286,11-9.471,24.173-6.427,35.576c3.359,12.585,14.707,21.046,24.797,29.281
		c12.3,10.035,24.178,21.887,28.623,37.128c4.439,15.239-1.139,34.391-15.771,40.536c-8.843,3.707-19.228,2.054-27.756-2.323
		c-8.529-4.376-15.69-12.426-22.289-19.379c-0.516,0.693-1.017,1.452-1.509,2.244c-1.573-2.761-3.968-5.065-6.87-6.372
		c1.338-6.115-3.178-12.907-9.299-14.211c-6.122-1.307-12.876,3.094-14.149,9.22c-0.843,4.047,0.468,8.26,2.422,11.904
		c4.022,7.508,10.912,13.375,18.886,16.339c-0.53,0.869-1.073,1.688-1.631,2.442c16.613,12.078,33.863,24.45,53.934,28.793
		c12.983,2.809,27.504,1.314,38.998-4.845c0.426-14.782,0.468-29.497,0.411-43.904c-0.107-26.388-2.327-53.533-11.18-78.138
		C867.853,186.522,850.414,171.229,830.452,160.316z"/>
	<g>
		<path fill="#F6ECE0" d="M816.737,262.942h-47.291c-5.41,0-10.333-4.378-10.993-9.786l-9.101-74.133
			c-0.665-5.408,3.181-9.792,8.586-9.792h47.291c5.41,0,10.333,4.384,10.992,9.792l9.106,74.133
			C825.994,258.564,822.148,262.942,816.737,262.942z"/>
		<path opacity="0.1" d="M793.933,200.431c0.576,4.702-2.768,8.513-7.471,8.513s-8.979-3.811-9.56-8.513
			c-0.576-4.7,2.768-8.513,7.465-8.513C789.07,191.917,793.357,195.73,793.933,200.431z"/>
	</g>
	<path fill="#EAD478" d="M811.338,273.823c-0.338-5.438-3.883-10.557-8.853-12.793c1.34-6.11-3.171-12.904-9.293-14.211
		c-6.121-1.304-12.881,3.101-14.155,9.225c-0.843,4.051,0.474,8.26,2.428,11.904c4.768,8.906,13.55,15.551,23.419,17.717
		C806.748,282.209,809.479,277.28,811.338,273.823z"/>
	<path fill="#C552E3" d="M829.693,144.344c40.585,22.19,70.848,62.45,80.871,107.606c3.302,14.851,4.258,31.324-3.527,44.391
		c-10.511,17.644-34.313,23.527-54.384,19.183c-20.079-4.345-37.325-16.719-53.938-28.796c4.343-5.864,7.809-15.698,12.149-21.563
		c6.601,6.952,13.761,15.001,22.291,19.379c8.529,4.376,18.917,6.027,27.755,2.317c14.638-6.14,20.217-25.292,15.771-40.533
		c-4.446-15.236-16.323-27.091-28.618-37.126c-10.09-8.234-21.442-16.701-24.801-29.281
		C820.218,168.515,825.407,155.344,829.693,144.344z"/>
	<path fill="#0C0054" d="M743.567,85.356c7.513-4.096,13.789-10.433,17.818-17.988c0.321,6.644,6.758,12.925,12.617,16.084
		c5.864,3.15,12.444,4.817,18.197,8.164c10.6,6.176,17.525,18.203,17.549,30.468c7.021-8.564,15.293-18.958,18.244-29.633
		c4.033-14.589,3.325-31.624-6.534-43.114c-7.915-9.236-20.739-13.414-32.871-12.51c-12.13,0.899-23.572,6.408-33.228,13.803
		c-5.301,4.056-10.265,8.854-13.076,14.916C739.479,71.607,739.934,79.755,743.567,85.356z"/>
	<path fill="#3A27C1" d="M819.927,447.076v-58.44l-11.151,50.29l-29.235-31.754l15.521,47.955l0.647,248.466h11.508
		c0.027-76.503,1.78-153.575,6.395-230.221c10.747,76.742,21.507,153.484,32.262,230.221h10.019l-24.398-227.097l9.962-42.584
		L819.927,447.076z"/>
	<path opacity="0.2" d="M722.163,274.275c7.779,23.244,17.1,49.78,17.213,79.461l12.633,0.105
		c1.137-26.899-3.091-54.376-12.329-79.554c2.529-6.771,4.853-13.616,7.383-20.385c-3.808,2.148-7.27,1.79-11.077,3.942
		c1.329-6.787,0.866-14.124,2.195-20.907c-43.016,32.349-75.91,77.965-93.02,128.995c-1.302,3.868,0.941,7.065,4.646,9.647
		C664.225,338.9,691.634,303.362,722.163,274.275z"/>
</g>
<g>
	<polygon fill="#F7DE3B" points="476.038,719.981 464.722,719.981 522.432,569.522 544.469,569.522 	"/>
	<polygon fill="#F7DE3B" points="676.107,719.981 687.424,719.981 629.714,569.522 607.677,569.522 	"/>
	<polygon opacity="0.3" points="476.038,719.981 464.722,719.981 522.432,569.522 544.469,569.522 	"/>
	<polygon opacity="0.3" points="676.107,719.981 687.424,719.981 629.714,569.522 607.677,569.522 	"/>
	<path fill="#F7DE3B" d="M571.358,375.992c25.991-25.5,66.122-40.165,99.681-26.033c41.24,17.365,56.098,70.456,47.948,114.453
		c-9.742,52.623-45.779,99.694-94.031,122.836c-48.259,23.143-107.522,21.77-154.659-3.574
		c-20.384-10.961-40.147-29.452-39.784-52.595c0.298-19.038,14.749-35.551,31.831-43.957c24.747-12.184,45.142-4.424,59.048-29.77
		C537.109,428.714,547.373,399.522,571.358,375.992z"/>
	<polygon fill="#F7DE3B" points="436.164,719.981 424.85,719.981 482.558,569.522 504.595,569.522 	"/>
	<polygon fill="#F7DE3B" points="636.233,719.981 647.55,719.981 589.84,569.522 567.804,569.522 	"/>
</g>
<g>
	<path fill="#0C0054" d="M564.913,268.964c-6.478,1.811-13.696,0.824-19.446-2.661c-5.753-3.485-10.445-9.671-11.847-16.254
		c-4.884-5.014-7.976-12.682-8.22-19.682c-10.802-6.838-19.592-19.954-23.653-32.075c11.386-14.774,28.782-24.777,47.284-27.187
		c18.5-2.404,37.877,2.809,52.674,14.178c6.955,5.347,15.128,10.738,17.498,19.18c3.934,14.015-0.248,29.307-7.947,41.656
		c-7.701,12.349-18.628,22.293-29.414,32.066C574.927,274.036,571.823,273.106,564.913,268.964z"/>
	<path fill="#0C0054" d="M545.242,290.629c-32.179,45.054-72.366,84.365-118.125,115.538c-12.538,8.543-27.224,16.823-42.07,13.682
		c-0.796,0.111-1.325,3.347-2.124,3.458c2,8.502,4,17.011,6,25.51c0.307,1.313,0.721,2.771,1.895,3.435
		c1.171,0.664,3.105-0.403,2.604-1.652c28.794-6.354,56.822-14.938,84.007-26.361c27.185-11.427,52.764-28.267,70.16-52.073
		C564.416,349.141,555.504,317.235,545.242,290.629z"/>
	<polygon fill="#17A6C4" points="403.901,691.052 396.623,705.723 359.35,719.981 422.712,719.981 416.176,703.773 	"/>
	<path fill="#552EFF" d="M522.834,485.271l-106.459,39.103c-17.799,4.414-29.873,20.947-28.672,39.25
		c3.103,47.352,5.288,94.806,8.92,142.099c6.439-1.039,13.112-0.907,19.553-1.949c-0.93-36.908,1.479-73.891,8.075-110.176
		c2.347-12.91,11.083-23.778,23.285-28.606c21.871-8.647,97.898-17.88,120.268-21.313c-3.12-9.121,9.029-31.729,8.019-41.316
		c-0.68-6.412-23.962-15.012-30.065-17.091C539.648,483.193,527.284,480.604,522.834,485.271z"/>
	<polygon fill="#17A6C4" points="538.797,691.052 531.518,705.723 494.244,719.981 557.607,719.981 551.072,703.773 	"/>
	<path fill="#1721CC" d="M618.445,507.688l-67.271,16.687c-17.789,4.412-29.877,20.92-28.678,39.206
		c3.105,47.364,5.292,94.835,8.922,142.143c6.44-1.039,13.115-0.907,19.555-1.949c-0.932-36.908,1.48-73.891,8.076-110.176
		c2.368-13.057,11.457-23.938,23.797-28.809c14.287-5.634,29.177-10.873,44.01-14.766c13.757-3.614,24.505-15.063,25.823-29.225
		c0.126-1.375,0.145-2.751,0-4.12c-0.675-6.414-5.327-12.236-11.434-14.316C635.137,500.282,622.894,503.021,618.445,507.688z"/>
	<path fill="#00D9AA" d="M563.078,278.481c-25.711,12.655-44.118,37.604-52.716,64.937c-8.601,27.337-8.136,56.883-2.998,85.074
		c5.138,28.193,14.786,55.334,24.402,82.334l118.458,1.005c8.664-36.201,9.278-75.885,9.134-113.111
		c-0.119-28.952-3.279-59.01-18.16-83.845C626.317,290.041,589.055,265.697,563.078,278.481z"/>
	<path opacity="0.1" d="M638.183,342.298c-1.022-2.391-2.174-4.623-3.396-6.782c-6.094,9.609-18.146,14.524-30.389,11.281
		c-1.031-0.271-1.961-0.681-2.908-1.07c-17.752,43.726-48.998,81.971-88.309,108.107c0.791,2.932,1.646,5.852,2.501,8.771
		c0.665-0.035,1.345-0.048,2.052-0.008c2.765,0.152,5.466,0.425,8.074,0.859c5.687-0.874,11.767-0.435,16.896,0.463
		c1.441,0.25,2.758,0.771,4.014,1.403c38.486-19.163,71.882-48.44,96.486-83.916C651.269,369.78,643.741,355.315,638.183,342.298z"
		/>
	<path fill="#0C0054" d="M617.012,308.952c-26.501,64.985-83.977,116.533-151.46,135.821c5.414,6.73,14.009,9.985,21.704,13.906
		c56.889-7.253,110.126-35.532,149.775-76.967c9.782-10.227,4.607-25.686,1.151-39.415
		C634.726,328.573,627.921,317.973,617.012,308.952z"/>
	<path fill="#4C27F0" d="M586.669,467.719H412.394v-12.592h184.168v2.697C596.562,463.29,592.131,467.719,586.669,467.719z"/>
	<path fill="#552EFF" d="M498.778,467.719H326.354c-8.03,0-16.286-6.511-18.438-14.543l-25.236-94.178
		c-2.152-8.03,2.618-14.545,10.648-14.545h172.418c8.033,0,16.286,6.516,18.441,14.545l25.23,94.178
		C511.574,461.208,506.811,467.719,498.778,467.719z"/>
	<path fill="#FFFFFF" d="M412.394,406.086c2.417,9.026-2.939,16.344-11.96,16.344c-9.025,0-18.304-7.317-20.721-16.344
		c-2.417-9.024,2.939-16.341,11.96-16.341C400.698,389.745,409.975,397.062,412.394,406.086z"/>
	<path fill="#FFADAD" d="M554.595,260.597c2.39,11.154,4.772,22.308,7.162,33.466c8.37,2.887,19.255-0.262,26.726-5.017
		c-2.866-11.942-4.426-25.339-7.294-37.284C570.759,251.149,562.113,253.336,554.595,260.597z"/>
	<path opacity="0.2" d="M581.188,251.762c-10.43-0.613-19.075,1.574-26.594,8.834c1.996,9.339,3.996,18.676,5.996,28.019
		c4.928-2.656,9.647-5.59,13.822-9.052c3.76-3.119,7.216-6.695,10.163-10.621C583.551,263.1,582.511,257.271,581.188,251.762z"/>
	<path fill="#FFADAD" d="M534.192,208.197c-1.694,25.058,5.489,50.62,19.98,71.127c11.565-5.276,24.291-10.578,34.069-18.693
		c9.785-8.115,17.636-19.281,19.181-31.898c1.51-12.356-3.512-25.331-12.954-33.448c-9.443-8.119-23.021-11.145-35.018-7.798
		C547.461,190.831,535.035,195.775,534.192,208.197z"/>
	<polygon fill="#00D9AA" points="652.68,520.799 655.165,485.271 522.834,485.271 531.767,510.826 551.175,524.374 607.677,531.658 
			"/>
	<path fill="#0C0054" d="M524.323,216.766c17.519,4.014,36.333,2.141,52.717-5.244c2.445,5.567,4.286,10.925,6.735,16.492
		c-0.623,3.377-0.482,7.941-1.105,11.316c1.189-0.16,2.263,0.76,3.452,0.601c0.108-2.531,2.099-6.154,3.395-8.332
		c1.294-2.176,4.142-3.661,6.427-2.569c1.874,0.895,2.722,3.208,2.488,5.269c-0.23,2.061-1.331,3.914-2.497,5.632
		c-3.579,5.284-8.014,9.989-13.088,13.865c1.271,5.791,2.59,12.389,3.855,18.175c8.918-8.862,17.521-19.176,23.535-30.212
		c6.016-11.04,8.676-24.576,4.128-36.295c-4.042-10.415-13.373-18.194-23.809-22.173c-12.759-4.861-27.447-4.431-39.896,1.178
		C538.212,190.07,529.144,203.988,524.323,216.766z"/>
</g>
<rect x="173.946" y="467.719" fill="#1721CC" width="681.986" height="17.553"/>
<polygon fill="#552EFF" points="173.946,719.981 160.486,719.981 219.805,485.271 254.674,485.271 "/>
<polygon fill="#552EFF" points="221.039,719.981 207.58,719.981 266.898,485.271 301.762,485.271 "/>
<polygon fill="#C552E3" points="836.603,719.981 850.058,719.981 790.743,485.271 755.876,485.271 "/>
<polygon fill="#C552E3" points="789.506,719.981 802.968,719.981 743.651,485.271 708.786,485.271 "/>
<g>
	<g>
		<path fill="#00D9AA" d="M65.3,414.089c-22.349-27.185-32.18-63.046-33.078-98.228c-0.896-35.182,6.508-70.04,15.431-104.082
			c8.923-34.044,19.419-67.779,24.933-102.54C104.361,206.009,99.869,318.285,65.3,414.089z"/>
		<path opacity="0.3" fill="#8D6DB2" d="M39.816,364.947c5.344,17.885,13.642,34.735,25.484,49.142
			c34.569-95.804,39.061-208.08,7.286-304.85c-0.731,4.604-1.558,9.187-2.448,13.761C81.16,204.451,70.727,288.774,39.816,364.947z"
			/>
		<g>
			<path fill="#00D9AA" d="M136.708,520.415c-34.651-56.776-41.089-129.879-16.897-191.837
				c10.882-27.867,27.388-53.155,40.307-80.14c12.919-26.981,22.362-57.04,17.636-86.578
				C144.719,226.077,80.25,270.65,45.017,333.688c-31.613,56.557-40.053,125.627-22.99,188.131
				c3.341,12.243,7.716,24.427,15.196,34.685c7.48,10.258,18.433,18.475,30.976,20.423c16.134,2.506,32.438-5.734,43.708-17.552
				C123.173,547.559,129.74,535.185,136.708,520.415z"/>
			<path opacity="0.3" fill="#8D6DB2" d="M136.708,520.415c-34.651-56.776-41.089-129.879-16.897-191.837
				c10.882-27.867,27.388-53.155,40.307-80.14c12.919-26.981,22.362-57.04,17.636-86.578c-0.344,0.667-0.74,1.307-1.091,1.974
				c-2.523,40.346-22.319,79.517-44.379,114.322c-27.199,42.915-59.166,84.587-70.826,134.033
				c-12.838,54.439,2.647,114.393,38.817,156.825c4.248-2.742,8.178-6.018,11.633-9.641
				C123.173,547.559,129.74,535.185,136.708,520.415z"/>
		</g>
		<g>
			<path fill="#00D9AA" d="M58.752,579.083c-23.04-20.25-28.412-55.323-20.213-84.882c8.199-29.554,27.682-54.592,48.257-77.34
				c20.576-22.746,42.901-44.331,58.791-70.568c15.888-26.234,24.799-58.594,15.677-87.875
				c26.433,17.389,43.498,47.067,50.597,77.904c7.096,30.833,5.077,63.116-0.417,94.275c-6.883,39.046-19.712,78.128-45.046,108.622
				C141.065,569.715,98.075,584.128,58.752,579.083z"/>
			<path opacity="0.3" fill="#8D6DB2" d="M161.264,258.418c0.823,2.637,1.452,5.311,1.989,7.995
				c21.183,41.892,23.73,93.444,4.41,136.416c-11.417,25.384-29.344,47.212-47.482,68.33
				c-18.136,21.117-36.853,42.083-50.279,66.471c-6.541,11.878-11.739,24.753-14.742,37.987c1.151,1.189,2.334,2.357,3.592,3.466
				c39.323,5.045,82.313-9.368,107.646-39.863c25.334-30.494,38.164-69.576,45.046-108.622c5.494-31.159,7.513-63.443,0.417-94.275
				C204.762,305.486,187.697,275.807,161.264,258.418z"/>
		</g>
	</g>
	<g>
		<polygon fill="#F7DE3B" points="142.117,719.981 46.458,719.981 33.855,569.813 154.721,569.813 		"/>
		<polygon opacity="0.3" points="35.508,589.534 149.89,627.345 153.644,582.631 34.931,582.631 		"/>
		<rect x="14.626" y="556.994" fill="#F7DE3B" width="159.32" height="25.637"/>
	</g>
</g>
<path opacity="0.2" fill="#FFFFFF" d="M235.741,418.184c-2.529-5.347-5.526-10.888-5.027-16.78
	c0.838-9.903,11.185-16.996,12.095-26.894c0.659-7.157-3.791-13.68-5.651-20.626c-3.178-11.873,2.11-25.518,12.464-32.147
	c-3.329,4.557-3.188,10.887-1.347,16.22c1.839,5.335,5.146,10.014,7.899,14.941c2.755,4.928,5.019,10.441,4.462,16.054
	c-0.759,7.62-6.544,13.99-7.515,21.585c-0.977,7.653,3.084,15.101,3.223,22.819c0.129,7.35-3.771,14.579-9.693,18.853
	C237.409,438.877,238.594,424.206,235.741,418.184z"/>
<path opacity="0.2" fill="#FFFFFF" d="M249.985,448.923c-9.581-3.904-14.38-16.601-9.773-25.866
	c4.576-9.211,16.244-14.044,18.838-23.995c2.128-8.176-2.785-16.583-2.466-25.025c0.288-7.497,4.613-14.139,7.385-21.106
	c2.773-6.971,3.614-15.939-1.854-21.077c10.567,6.108,17.98,17.55,16.813,29.7c-0.792,8.209-4.74,16.148-3.771,24.342
	c0.501,4.238,2.293,8.194,3.506,12.287c1.212,4.094,1.803,8.656-0.026,12.514c-2.722,5.739-10.136,8.528-11.871,14.646
	c-1.5,5.29,1.932,10.832,1.344,16.301C267.359,448.615,256.477,451.571,249.985,448.923z"/>
<g>
	<g>
		<path fill="#C2C2C2" d="M280.167,454.335h-25.494v-31.443h25.494c7.138,0,12.939,5.811,12.939,12.949v5.553
			C293.107,448.531,287.305,454.335,280.167,454.335z M259.123,449.886h21.044c4.679,0,8.491-3.81,8.491-8.492v-5.553
			c0-4.684-3.812-8.494-8.491-8.494h-21.044V449.886z"/>
	</g>
	<path fill="#C2C2C2" d="M257.924,467.719h-6.505c-10.927,0-19.787-8.859-19.787-19.787v-26.29h46.082v26.29
		C277.713,458.859,268.854,467.719,257.924,467.719z"/>
	<path opacity="0.2" d="M268.601,421.642v26.29c0,10.49-8.166,19.049-18.482,19.722c0.431,0.029,0.859,0.065,1.3,0.065h6.505
		c10.93,0,19.79-8.859,19.79-19.787v-26.29H268.601z"/>
</g>
</svg>
