<?xml version="1.0" encoding="utf-8"?>
<!-- Generator: Adobe Illustrator 16.0.0, SVG Export Plug-In . SVG Version: 6.00 Build 0)  -->
<!DOCTYPE svg PUBLIC "-//W3C//DTD SVG 1.1//EN" "http://www.w3.org/Graphics/SVG/1.1/DTD/svg11.dtd">
<svg version="1.1" id="Layer_1" xmlns="http://www.w3.org/2000/svg" xmlns:xlink="http://www.w3.org/1999/xlink" x="0px" y="0px"
	 width="1000px" height="339.531px" viewBox="0 0 1000 339.531" enable-background="new 0 0 1000 339.531" xml:space="preserve">
<g>
	<polyline fill="#FFFFFF" points="499.542,339.682 1000,339.682 1000,0 	"/>
	<polyline fill="#FFFFFF" points="0,0 0,339.682 499.542,339.682 	"/>
</g>
<g>
	<g>
		<defs>
			<rect id="SVGID_1_" x="21.973" y="122.034" width="323.96" height="189.552"/>
		</defs>
		<clipPath id="SVGID_2_">
			<use xlink:href="#SVGID_1_"  overflow="visible"/>
		</clipPath>
		<path clip-path="url(#SVGID_2_)" fill="#EDEDF1" d="M220.552,203.188c-55.766-28.091-69.813-115.432-148.756-58.786
			c-75.33,54.053-26.26,171.424,52.987,194.944s181.233-2.43,198.312-58.32C352.277,185.522,257.963,222.031,220.552,203.188z"/>
		<g clip-path="url(#SVGID_2_)">
			<defs>
				<path id="SVGID_3_" d="M220.552,203.188c-55.766-28.091-69.813-115.432-148.756-58.786
					c-75.33,54.053-26.26,171.424,52.987,194.944s181.233-2.43,198.312-58.32C352.277,185.522,257.963,222.031,220.552,203.188z"/>
			</defs>
			<clipPath id="SVGID_4_">
				<use xlink:href="#SVGID_3_"  overflow="visible"/>
			</clipPath>
			<path clip-path="url(#SVGID_4_)" fill="#E2E2E9" d="M9.955,253.824c0,0,75.91,38.533,139.129-1.821
				c73.993-47.229,114.546-115.141,114.546-115.141l90.7,103.462L319.773,342.98l-294.275-8.428L9.955,253.824z"/>
		</g>
	</g>
	<g>
		<path fill="#552EFF" d="M281.754,291.379c-0.56,0.01-14.579-2.275-14.667-15.406c-0.087-13.131,9.028-15.998,7.281-30.686
			c-1.749-14.688-7.771-19.141,6.573-29.203c0,0,6.377-4.025,6.919-10.026c0.649-7.185,13.428-15.015,21.56-9.861
			c8.134,5.155,5.861,12.491-1.783,24.196c-7.644,11.704-0.854,14.09,0.354,18.029c1.207,3.938,4.216,8.146-3.459,17.114
			c-7.676,8.968,0.524,20.661-6.051,29.284C298.481,284.82,292.761,291.166,281.754,291.379z"/>
		<g>
			<path fill="#00D9AA" d="M283.108,311.557c0.305-0.064,0.511-0.355,0.465-0.67c-5.88-40.314,11.851-94.21,12.029-94.75
				c0.104-0.311-0.064-0.648-0.375-0.752c-0.312-0.105-0.649,0.063-0.754,0.376c-0.181,0.542-17.999,54.706-12.078,95.3
				c0.047,0.326,0.35,0.549,0.675,0.502C283.083,311.561,283.096,311.559,283.108,311.557z"/>
			<path fill="#00D9AA" d="M289.405,237.324c0.034-0.007,0.066-0.018,0.098-0.031c0.306-0.121,0.456-0.467,0.334-0.771
				c-0.029-0.072-2.876-7.273-3.912-13.363c-0.056-0.325-0.363-0.543-0.688-0.487c-0.326,0.054-0.542,0.362-0.487,0.687
				c1.056,6.215,3.949,13.529,3.979,13.604C288.838,237.234,289.126,237.382,289.405,237.324z"/>
			<path fill="#00D9AA" d="M286.86,249.339c0.083-0.017,0.165-0.054,0.236-0.108c3.096-2.348,10.816-6.688,10.895-6.732
				c0.286-0.16,0.389-0.521,0.228-0.81c-0.162-0.286-0.523-0.392-0.812-0.228c-0.32,0.178-7.869,4.422-11.03,6.82
				c-0.263,0.199-0.313,0.572-0.115,0.834C286.406,249.306,286.642,249.384,286.86,249.339z"/>
			<path fill="#00D9AA" d="M284.672,261.049c0.043-0.009,0.085-0.023,0.126-0.041c0.298-0.136,0.432-0.49,0.295-0.789l-3.844-8.459
				c-0.137-0.301-0.489-0.436-0.789-0.296c-0.301,0.136-0.432,0.488-0.296,0.788l3.845,8.461
				C284.126,260.971,284.407,261.104,284.672,261.049z"/>
		</g>
	</g>
	<g>
		<path fill="#2D24A3" d="M301.609,296.588c-0.622,0.41-5.437-8.693-6.01-20.125c0,0-0.271-5.621,5.31-2.615
			c0,0-4.494-24.668,11.245-22.42c2.713,0.389,4.237,0.992,5.714,2.629c2.001,2.217,2.967,5.735,0.156,10.682
			c-5.622,9.893-10.269,13.668-8.422,19.035C311.448,289.139,310.628,290.639,301.609,296.588z"/>
		<path fill="#00D9AA" d="M302.21,312.58c0.319-0.051,0.54-0.33,0.492-0.623c-2.677-16.57,4.221-44.184,4.964-45.383
			c0.202-0.236,0.152-0.563-0.1-0.744c-0.251-0.178-0.63-0.119-0.832,0.117c-1.166,1.367-7.784,30.119-5.189,46.195
			C301.593,312.438,301.89,312.631,302.21,312.58z"/>
	</g>
	<g>
		<path fill="#552EFF" d="M42.71,296.588c-0.623,0.41-5.438-8.693-6.011-20.125c0,0-0.27-5.621,5.312-2.615
			c0,0-4.495-24.668,11.244-22.42c2.713,0.389,4.235,0.992,5.714,2.629c2.001,2.217,2.966,5.735,0.156,10.682
			c-5.623,9.893-10.269,13.668-8.423,19.035C52.547,289.139,51.729,290.639,42.71,296.588z"/>
		<path fill="#00D9AA" d="M43.309,312.58c0.32-0.051,0.541-0.33,0.494-0.623c-2.677-16.57,4.221-44.184,4.964-45.383
			c0.202-0.236,0.151-0.563-0.1-0.744c-0.251-0.178-0.631-0.119-0.831,0.117c-1.167,1.367-7.784,30.119-5.189,46.195
			C42.694,312.438,42.991,312.631,43.309,312.58z"/>
	</g>
	<g>
		<path fill="#FFFFFF" d="M50.748,207.115l-0.518-1.48l-0.516,1.48c-0.436,1.248-1.471,2.301-2.87,2.922l0,0l0,0
			c1.399,0.623,2.434,1.676,2.87,2.924l0.516,1.48l0.518-1.48c0.435-1.248,1.47-2.301,2.87-2.924l0,0l0,0
			C52.217,209.416,51.183,208.363,50.748,207.115z"/>
		<path fill="#FFFFFF" d="M99.727,149.933l-0.867-2.481l-0.866,2.481c-0.731,2.092-2.465,3.858-4.814,4.901l0,0l0,0
			c2.349,1.044,4.083,2.81,4.814,4.901l0.866,2.482l0.867-2.482c0.73-2.091,2.465-3.857,4.815-4.901l0,0l0,0
			C102.192,153.791,100.457,152.024,99.727,149.933z"/>
	</g>
	
		<path fill="none" stroke="#EBEBEF" stroke-width="0.835" stroke-linecap="round" stroke-linejoin="round" stroke-miterlimit="10" d="
		M278.125,170.614c0,0,1.438-1.655,2.319-2.413c1.589-1.365,3.409-3.779,9.232-2c0.453,0.138,0.892,0.321,1.327,0.506
		c0.513,0.217,2.105,0.223,3.733-1.07c2.588-2.055,3.601-3.606,7.146-3.654c4.125-0.056,4.773,5.087,7.981,6.403
		c2.04,0.838,7.423,1.67,8.538,2.042L278.125,170.614z"/>
	<path fill="#EBEBEF" d="M44.898,149.166c0,0-1.438-1.654-2.32-2.413c-1.586-1.366-3.408-3.78-9.231-2
		c-0.453,0.138-0.892,0.322-1.326,0.506c-0.515,0.218-2.104,0.223-3.733-1.07c-2.589-2.055-3.6-3.606-7.146-3.654
		c-4.127-0.056-4.775,5.087-7.982,6.403c-2.04,0.837-7.423,1.67-8.537,2.042L44.898,149.166z"/>
	<path fill="#EBEBEF" d="M190.083,118.163c0,0,2.982-3.431,4.811-5.003c3.292-2.832,7.068-7.837,19.144-4.148
		c0.938,0.287,1.848,0.667,2.752,1.05c1.063,0.451,4.362,0.462,7.738-2.22c5.368-4.26,7.467-7.475,14.819-7.576
		c8.554-0.116,9.899,10.549,16.549,13.278c4.231,1.738,15.393,3.464,17.703,4.234L190.083,118.163z"/>
	<g>
		<rect x="120.46" y="172.305" fill="#D2D6E2" width="138.991" height="138.992"/>
		<g>
			<g>
				<path fill="#FFFFFF" d="M148.095,242.461H134.68c-0.546,0-0.989-0.441-0.989-0.988v-13.414c0-0.547,0.443-0.99,0.989-0.99
					h13.415c0.547,0,0.988,0.443,0.988,0.99v13.414C149.083,242.02,148.642,242.461,148.095,242.461z"/>
				<path fill="#2D24A3" d="M172.042,242.461h-13.416c-0.547,0-0.988-0.441-0.988-0.988v-13.414c0-0.547,0.441-0.99,0.988-0.99
					h13.416c0.547,0,0.988,0.443,0.988,0.99v13.414C173.03,242.02,172.589,242.461,172.042,242.461z"/>
				<path fill="#FFFFFF" d="M195.987,242.461h-13.415c-0.547,0-0.988-0.441-0.988-0.988v-13.414c0-0.547,0.441-0.99,0.988-0.99
					h13.415c0.546,0,0.99,0.443,0.99,0.99v13.414C196.977,242.02,196.533,242.461,195.987,242.461z"/>
				<path fill="#FFFFFF" d="M219.934,242.461h-13.415c-0.547,0-0.99-0.441-0.99-0.988v-13.414c0-0.547,0.443-0.99,0.99-0.99h13.415
					c0.546,0,0.988,0.443,0.988,0.99v13.414C220.922,242.02,220.48,242.461,219.934,242.461z"/>
				<path fill="#FFFFFF" d="M243.88,242.461h-13.416c-0.546,0-0.989-0.441-0.989-0.988v-13.414c0-0.547,0.443-0.99,0.989-0.99
					h13.416c0.547,0,0.989,0.443,0.989,0.99v13.414C244.869,242.02,244.427,242.461,243.88,242.461z"/>
			</g>
			<g>
				<path fill="#FFFFFF" d="M148.095,266.408H134.68c-0.546,0-0.989-0.443-0.989-0.988v-13.417c0-0.546,0.443-0.988,0.989-0.988
					h13.415c0.547,0,0.988,0.442,0.988,0.988v13.417C149.083,265.965,148.642,266.408,148.095,266.408z"/>
				<path fill="#FFFFFF" d="M172.042,266.408h-13.416c-0.547,0-0.988-0.443-0.988-0.988v-13.417c0-0.546,0.441-0.988,0.988-0.988
					h13.416c0.547,0,0.988,0.442,0.988,0.988v13.417C173.03,265.965,172.589,266.408,172.042,266.408z"/>
				<path fill="#FFFFFF" d="M195.987,266.408h-13.415c-0.547,0-0.988-0.443-0.988-0.988v-13.417c0-0.546,0.441-0.988,0.988-0.988
					h13.415c0.546,0,0.99,0.442,0.99,0.988v13.417C196.977,265.965,196.533,266.408,195.987,266.408z"/>
				<path fill="#2D24A3" d="M219.934,266.408h-13.415c-0.547,0-0.99-0.443-0.99-0.988v-13.417c0-0.546,0.443-0.988,0.99-0.988
					h13.415c0.546,0,0.988,0.442,0.988,0.988v13.417C220.922,265.965,220.48,266.408,219.934,266.408z"/>
				<path fill="#FFFFFF" d="M243.88,266.408h-13.416c-0.546,0-0.989-0.443-0.989-0.988v-13.417c0-0.546,0.443-0.988,0.989-0.988
					h13.416c0.547,0,0.989,0.442,0.989,0.988v13.417C244.869,265.965,244.427,266.408,243.88,266.408z"/>
			</g>
			<g>
				<path fill="#FFFFFF" d="M148.095,290.355H134.68c-0.546,0-0.989-0.445-0.989-0.99v-13.416c0-0.545,0.443-0.988,0.989-0.988
					h13.415c0.547,0,0.988,0.443,0.988,0.988v13.416C149.083,289.91,148.642,290.355,148.095,290.355z"/>
				<path fill="#FFFFFF" d="M172.042,290.355h-13.416c-0.547,0-0.988-0.445-0.988-0.99v-13.416c0-0.545,0.441-0.988,0.988-0.988
					h13.416c0.547,0,0.988,0.443,0.988,0.988v13.416C173.03,289.91,172.589,290.355,172.042,290.355z"/>
				<path fill="#2D24A3" d="M195.987,290.355h-13.415c-0.547,0-0.988-0.445-0.988-0.99v-13.416c0-0.545,0.441-0.988,0.988-0.988
					h13.415c0.546,0,0.99,0.443,0.99,0.988v13.416C196.977,289.91,196.533,290.355,195.987,290.355z"/>
				<path fill="#FFFFFF" d="M219.934,290.355h-13.415c-0.547,0-0.99-0.445-0.99-0.99v-13.416c0-0.545,0.443-0.988,0.99-0.988h13.415
					c0.546,0,0.988,0.443,0.988,0.988v13.416C220.922,289.91,220.48,290.355,219.934,290.355z"/>
				<path fill="#FFFFFF" d="M243.88,290.355h-13.416c-0.546,0-0.989-0.445-0.989-0.99v-13.416c0-0.545,0.443-0.988,0.989-0.988
					h13.416c0.547,0,0.989,0.443,0.989,0.988v13.416C244.869,289.91,244.427,290.355,243.88,290.355z"/>
			</g>
		</g>
		<g>
			
				<line fill="none" stroke="#FFFFFF" stroke-width="0.8285" stroke-linecap="round" stroke-linejoin="round" stroke-miterlimit="10" x1="162.015" y1="231.66" x2="167.997" y2="237.641"/>
			
				<line fill="none" stroke="#FFFFFF" stroke-width="0.8285" stroke-linecap="round" stroke-linejoin="round" stroke-miterlimit="10" x1="167.997" y1="231.66" x2="162.015" y2="237.641"/>
		</g>
		<g>
			
				<line fill="none" stroke="#FFFFFF" stroke-width="0.8285" stroke-linecap="round" stroke-linejoin="round" stroke-miterlimit="10" x1="210.235" y1="255.455" x2="216.216" y2="261.438"/>
			
				<line fill="none" stroke="#FFFFFF" stroke-width="0.8285" stroke-linecap="round" stroke-linejoin="round" stroke-miterlimit="10" x1="216.216" y1="255.455" x2="210.235" y2="261.438"/>
		</g>
		<g>
			
				<line fill="none" stroke="#FFFFFF" stroke-width="0.8285" stroke-linecap="round" stroke-linejoin="round" stroke-miterlimit="10" x1="186.29" y1="279.668" x2="192.271" y2="285.648"/>
			
				<line fill="none" stroke="#FFFFFF" stroke-width="0.8285" stroke-linecap="round" stroke-linejoin="round" stroke-miterlimit="10" x1="192.271" y1="279.668" x2="186.29" y2="285.648"/>
		</g>
		<path fill="#05CC9C" d="M254.78,154.61H125.133c-2.581,0-4.673,2.091-4.673,4.671v13.023h138.991v-13.023
			C259.451,156.701,257.36,154.61,254.78,154.61z"/>
		<g>
			<circle fill="#11A57E" cx="129.692" cy="164.423" r="3.712"/>
			<path fill="#CBDCE9" d="M129.692,164.609c-1.186,0-2.146-0.961-2.146-2.145v-11.627c0-1.185,0.96-2.145,2.146-2.145
				c1.184,0,2.145,0.96,2.145,2.145v11.627C131.837,163.648,130.876,164.609,129.692,164.609z"/>
		</g>
		<g>
			<circle fill="#11A57E" cx="146.832" cy="164.423" r="3.712"/>
			<path fill="#CBDCE9" d="M146.831,164.609c-1.185,0-2.145-0.961-2.145-2.145v-11.627c0-1.185,0.959-2.145,2.145-2.145
				c1.186,0,2.146,0.96,2.146,2.145v11.627C148.977,163.648,148.017,164.609,146.831,164.609z"/>
		</g>
		<g>
			<circle fill="#11A57E" cx="163.972" cy="164.423" r="3.713"/>
			<path fill="#CBDCE9" d="M163.973,164.609c-1.186,0-2.147-0.961-2.147-2.145v-11.627c0-1.185,0.961-2.145,2.147-2.145
				c1.184,0,2.146,0.96,2.146,2.145v11.627C166.118,163.648,165.157,164.609,163.973,164.609z"/>
		</g>
		<g>
			<circle fill="#11A57E" cx="181.112" cy="164.423" r="3.712"/>
			<path fill="#CBDCE9" d="M181.113,164.609c-1.186,0-2.146-0.961-2.146-2.145v-11.627c0-1.185,0.96-2.145,2.146-2.145
				c1.184,0,2.145,0.96,2.145,2.145v11.627C183.257,163.648,182.297,164.609,181.113,164.609z"/>
		</g>
		<g>
			<circle fill="#11A57E" cx="198.252" cy="164.423" r="3.712"/>
			<path fill="#CBDCE9" d="M198.251,164.609c-1.185,0-2.145-0.961-2.145-2.145v-11.627c0-1.185,0.959-2.145,2.145-2.145
				c1.186,0,2.146,0.96,2.146,2.145v11.627C200.397,163.648,199.437,164.609,198.251,164.609z"/>
		</g>
		<g>
			<circle fill="#11A57E" cx="215.393" cy="164.423" r="3.712"/>
			<path fill="#CBDCE9" d="M215.393,164.609c-1.185,0-2.146-0.961-2.146-2.145v-11.627c0-1.185,0.96-2.145,2.146-2.145
				c1.185,0,2.145,0.96,2.145,2.145v11.627C217.538,163.648,216.577,164.609,215.393,164.609z"/>
		</g>
		<g>
			<circle fill="#11A57E" cx="232.532" cy="164.423" r="3.712"/>
			<path fill="#CBDCE9" d="M232.532,164.609c-1.184,0-2.145-0.961-2.145-2.145v-11.627c0-1.185,0.96-2.145,2.145-2.145
				c1.186,0,2.146,0.96,2.146,2.145v11.627C234.678,163.648,233.717,164.609,232.532,164.609z"/>
		</g>
		<g>
			<circle fill="#11A57E" cx="249.673" cy="164.423" r="3.713"/>
			<path fill="#CBDCE9" d="M249.672,164.609c-1.184,0-2.146-0.961-2.146-2.145v-11.627c0-1.185,0.961-2.145,2.146-2.145
				c1.186,0,2.146,0.96,2.146,2.145v11.627C251.818,163.648,250.857,164.609,249.672,164.609z"/>
		</g>
		<g>
			
				<line fill="none" stroke="#FFFFFF" stroke-width="1.9726" stroke-linecap="round" stroke-linejoin="round" stroke-miterlimit="10" x1="134.701" y1="193.404" x2="163.973" y2="193.404"/>
			
				<line fill="none" stroke="#FFFFFF" stroke-width="1.9726" stroke-linecap="round" stroke-linejoin="round" stroke-miterlimit="10" x1="134.701" y1="204.813" x2="244.146" y2="204.813"/>
		</g>
	</g>
	
		<line fill="none" stroke="#1D2738" stroke-width="0.4566" stroke-linecap="round" stroke-linejoin="round" stroke-miterlimit="10" x1="9.955" y1="311.586" x2="329.446" y2="311.586"/>
	<g>
		<polygon fill="#FFFFFF" points="141.992,217.875 143.965,220.246 140.941,219.554 		"/>
		
			<line fill="none" stroke="#523696" stroke-width="1.4794" stroke-linecap="round" stroke-miterlimit="10" x1="124.082" y1="208.065" x2="141.352" y2="218.623"/>
		<path fill="#29333D" d="M101.064,331.504l-5.31-0.016l-0.139,7.021l15.128,0.086l0.002-0.943
			c-0.112-0.963-0.919-1.719-2.087-1.943l-7.484-1.453L101.064,331.504z"/>
		<path fill="#29333D" d="M69.286,331.014l-5.065-1.592l-2.219,6.664l12.624,3.596l0.283-0.902c0.179-0.949-0.369-1.912-1.416-2.475
			l-4.918-2.631L69.286,331.014z"/>
		<g>
			<g>
				<g>
					<circle fill="#E3BE9C" cx="86.512" cy="251.399" r="4.407"/>
					<path fill="#E3BE9C" d="M80.092,247.402l3.017,3.45c0.789,0.901,2.169,0.995,3.072,0.206l0,0
						c0.901-0.789,0.995-2.17,0.206-3.071l-3.017-3.451c-0.788-0.901-2.169-0.993-3.072-0.206l0,0
						C79.397,245.119,79.303,246.502,80.092,247.402z"/>
				</g>
				<path fill="#C552E3" d="M80.29,250.389l6.52-4.965L73.676,231.03l9.038-15.025c1.071-1.993,0.324-4.479-1.668-5.55l0,0
					c-1.994-1.072-4.479-0.326-5.55,1.667l-10.29,17.351c-0.76,1.415-0.624,3.145,0.35,4.424L80.29,250.389z"/>
			</g>
			<g>
				<g>
					<g>
						<polygon fill="#DFB48F" points="85.827,208.978 92.63,208.907 92.319,195.893 85.584,195.978 						"/>
						<path fill="#E3BE9C" d="M90.859,203.995L90.859,203.995c4.185-0.054,7.535-3.489,7.482-7.675l-0.118-9.42l-15.158,0.191
							l0.119,9.42C83.236,200.697,86.673,204.048,90.859,203.995z"/>
						<path fill="#282C3C" d="M93.791,191.97l0.088,6.926c0.034,2.765-2.056,5.032-4.665,5.065l-1.371,0.018
							c-4.566,0.058-8.318-3.816-8.381-8.65l-0.077-6.258l14.243-0.182L93.791,191.97z"/>
						<path fill="#282C3C" d="M93.103,191.096c0,0,3.596,0.143,5.745-0.303c2.801-0.58,3.819-6.113,1.591-7.908
							c-0.099-0.08-0.204-0.158-0.313-0.234c-2.646-1.843-6.105,2.082-6.036,2.311C94.161,185.188,93.103,191.096,93.103,191.096z"
							/>
						<path fill="#282C3C" d="M96.634,186.287c0,0-6.068-5.259-12.861-1.857c0,0-2.247,0.547-4.387,4.641l13.386,3.066
							L96.634,186.287z"/>
						<circle fill="#E3BE9C" cx="93.693" cy="195.526" r="2.217"/>
						<path fill="#E3BE9C" d="M97.377,196.434h1.104c0.608,0,1.104-0.492,1.104-1.102l0,0c0-0.609-0.495-1.104-1.104-1.104h-1.104
							V196.434z"/>
					</g>
					<circle fill="#DF7383" cx="79.63" cy="187.922" r="3.12"/>
				</g>
				<path fill="#C552E3" d="M85.584,207.969h8.294c0,0,3.724,0.561,6.063,4.193c2.154,3.346,3.886,10.871,0.453,15.25
					c0,0-3.215,8.068-3.019,10.199l-16.255,0.571l-4.611-28.506L85.584,207.969z"/>
				<path fill="#2E3343" d="M80.555,186.557c0,0-6.847-4.303-9.399,4.791c-2.387,8.517,4.417,18.813,5.733,26.604
					c0.153,0.907,0.959,1.551,1.878,1.551h7.427c1.119,0,1.998-0.939,1.917-2.056c-0.263-3.65-2.144-10.669-7.71-19.231
					c0,0-5.934-8.086,0.125-9.123C80.526,189.092,81.892,187.551,80.555,186.557z"/>
				<path fill="#552EFF" d="M97.377,237.611c0,0,8.268,13.953,7.422,33.557l-0.485,18.031l-2.661,43.539l-8.079,0.346l0,0
					l-0.606-42.717l-9.186-52.185L97.377,237.611z"/>
				<path fill="#552EFF" d="M81.122,238.183c0,0-7.302,4.786-6.663,20.714l0.669,30.619l-13.126,40.766l0,0l7.881,2.348
					l15.981-40.271l5.612-30.094l0.389-24.443L81.122,238.183z"/>
			</g>
			<g>
				<circle fill="#E3BE9C" cx="131.97" cy="215.788" r="4.407"/>
				<path fill="#E3BE9C" d="M126.315,220.809l4.166-1.912c1.088-0.5,1.569-1.799,1.07-2.888l0,0c-0.5-1.089-1.799-1.569-2.887-1.07
					l-4.166,1.914c-1.087,0.499-1.569,1.798-1.069,2.886l0,0C123.928,220.827,125.228,221.308,126.315,220.809z"/>
			</g>
			<path fill="#C552E3" d="M129.233,221.469l-2.909-7.664l-17.53,8.506l-11.84-12.934c-1.607-1.594-4.202-1.584-5.796,0.023l0,0
				c-1.592,1.606-1.584,4.201,0.023,5.795l13.714,14.792c1.14,1.133,2.838,1.493,4.34,0.923L129.233,221.469z"/>
			<polygon fill="#3A23E5" points="89.699,271.795 88.117,259.635 81.812,258.086 86.742,266.639 85.864,292.357 			"/>
		</g>
	</g>
	<path fill="#D3667C" d="M103.917,222.059c-0.269-0.289-5.957-6.426-5.957-6.426l4.77,8.635L103.917,222.059z"/>
</g>
<g>
	<g>
		<path fill="#EBEBEF" d="M958.998,253.306c-25.693-18.712-32.491-29.335-32.491-29.335
			c98.523-117.82-100.563-156.283-139.35-75.276c-16.168,33.767-49.093,33.048-105.084,43.655
			c-51.711,9.797-50.099,63.006-7.473,104.643h308.227C990.06,271.895,970.725,261.846,958.998,253.306z"/>
	</g>
	<g>
		<defs>
			<path id="SVGID_5_" d="M958.998,253.229c-25.693-18.71-32.491-29.335-32.491-29.335c98.523-117.82-100.563-156.282-139.35-75.275
				c-16.168,33.767-49.093,33.047-105.084,43.655c-51.711,9.797-50.099,63.006-7.473,104.641h308.227
				C990.06,271.816,970.725,261.768,958.998,253.229z"/>
		</defs>
		<clipPath id="SVGID_6_">
			<use xlink:href="#SVGID_5_"  overflow="visible"/>
		</clipPath>
		<path clip-path="url(#SVGID_6_)" fill="#E2E2E9" d="M681.968,138.303c0,0,213.006,159.597,311.44,28.004v146.867H635.141V194.309
			L681.968,138.303z"/>
	</g>
	<path fill="#EDEDF1" d="M766.021,122.714c0,0-2.817-3.7-4.543-5.396c-3.109-3.054-6.675-8.452-18.078-4.473
		c-0.886,0.308-1.743,0.718-2.598,1.132c-1.005,0.487-4.118,0.499-7.308-2.394c-5.068-4.596-7.05-8.063-13.992-8.171
		c-8.077-0.125-9.349,11.377-15.628,14.321c-3.995,1.874-14.537,3.736-16.718,4.566L766.021,122.714z"/>
	<g>
		<path fill="#552EFF" d="M684.433,277.209c0.531,0.033,13.975-1.582,14.585-14.082c0.611-12.5-7.955-15.594-5.7-29.51
			c2.254-13.917,8.169-17.915-5.086-28.07c0,0-5.91-4.09-6.185-9.826c-0.33-6.867-12.185-14.837-20.135-10.256
			c-7.951,4.58-6.083,11.658,0.727,23.109c6.807,11.452,0.246,13.452-1.062,17.154c-1.311,3.702-4.344,7.586,2.605,16.436
			c6.95,8.849-1.328,19.653,4.585,28.127C668.768,270.291,673.96,276.563,684.433,277.209z"/>
		<g>
			<path fill="#00D9AA" d="M682.333,296.367c-0.289-0.072-0.474-0.359-0.417-0.654c7.221-38.154-7.498-90.186-7.648-90.707
				c-0.086-0.3,0.088-0.613,0.389-0.699c0.301-0.09,0.617,0.086,0.703,0.389c0.149,0.521,14.941,52.813,7.673,91.229
				c-0.059,0.309-0.355,0.51-0.665,0.451C682.355,296.373,682.344,296.371,682.333,296.367z"/>
			<path fill="#00D9AA" d="M679.319,225.43c-0.03-0.008-0.063-0.019-0.092-0.031c-0.287-0.129-0.415-0.465-0.288-0.75
				c0.031-0.067,3.032-6.811,4.261-12.568c0.066-0.306,0.367-0.5,0.675-0.436c0.311,0.064,0.502,0.367,0.437,0.674
				c-1.257,5.876-4.305,12.725-4.336,12.793C679.862,225.367,679.581,225.497,679.319,225.43z"/>
			<path fill="#00D9AA" d="M681.261,236.973c-0.079-0.021-0.155-0.057-0.222-0.113c-2.854-2.359-10.031-6.803-10.103-6.846
				c-0.268-0.164-0.35-0.514-0.186-0.783c0.166-0.266,0.512-0.352,0.781-0.183c0.298,0.183,7.316,4.528,10.229,6.937
				c0.242,0.199,0.276,0.559,0.075,0.801C681.693,236.959,681.466,237.024,681.261,236.973z"/>
			<path fill="#00D9AA" d="M682.871,248.212c-0.039-0.011-0.079-0.024-0.116-0.046c-0.28-0.141-0.392-0.481-0.25-0.762l3.999-7.902
				c0.143-0.279,0.483-0.393,0.764-0.249c0.279,0.142,0.391,0.481,0.25,0.762l-3.999,7.903
				C683.396,248.16,683.124,248.274,682.871,248.212z"/>
		</g>
	</g>
	<g>
		<path fill="#FFFFFF" d="M806.979,151.527l-0.496-1.417l-0.497,1.417c-0.419,1.194-1.413,2.203-2.761,2.798l0,0l0,0
			c1.348,0.596,2.342,1.604,2.761,2.799l0.497,1.417l0.496-1.417c0.42-1.195,1.412-2.203,2.76-2.799l0,0l0,0
			C808.392,153.73,807.399,152.721,806.979,151.527z"/>
		<path fill="#FFFFFF" d="M890.189,135.497l-0.834-2.376l-0.832,2.376c-0.703,2.003-2.37,3.693-4.628,4.692l0,0l0,0
			c2.258,0.999,3.925,2.69,4.628,4.692l0.832,2.376l0.834-2.376c0.701-2.002,2.367-3.693,4.627-4.692l0,0l0,0
			C892.557,139.189,890.891,137.5,890.189,135.497z"/>
	</g>
	<g>
		<path fill="#00D9AA" d="M932.225,284.566H723.258V175.102c0-2.871,2.327-5.198,5.195-5.198h198.573
			c2.871,0,5.198,2.327,5.198,5.198V284.566z"/>
		<path fill="#05CC9C" d="M938.537,296.689H716.943c-2.955,0-5.351-2.396-5.351-5.354v-6.77H943.89v6.77
			C943.89,294.293,941.493,296.689,938.537,296.689z"/>
		<path fill="#11A57E" d="M800.592,284.566l2.446,2.352c0.97,0.934,2.266,1.455,3.61,1.455h42.541c1.501,0,2.926-0.646,3.916-1.773
			l1.783-2.033H800.592z"/>
		<rect x="731.032" y="177.488" fill="#FFFFFF" width="193.418" height="100.512"/>
	</g>
	
		<line fill="none" stroke="#1D2738" stroke-width="0.3749" stroke-linecap="round" stroke-linejoin="round" stroke-miterlimit="10" x1="658.405" y1="296.689" x2="999.849" y2="296.689"/>
	<g>
		<circle fill="#2D24A3" cx="832.822" cy="125.139" r="26.142"/>
		<g>
			<path fill="#552EFF" d="M832.822,147.258c-12.195,0-22.119-9.923-22.119-22.119s9.924-22.118,22.119-22.118
				c12.196,0,22.119,9.922,22.119,22.118S845.019,147.258,832.822,147.258z"/>
		</g>
		<path fill="#FFFFFF" d="M837.509,124.359c1.609-0.563,2.633-2.226,2.633-4.283c0-2.869-1.959-4.763-5.084-4.967v-2.563h-3.137
			v2.544h-1.44v-2.544h-3.139v2.544h-2.338v4.03h2.238v11.689h-2.238v4.028h2.338v2.895h3.139v-2.895h1.44v2.895h3.137v-2.899
			c3.421-0.112,5.584-2.199,5.584-5.487C840.642,126.811,839.445,124.867,837.509,124.359z M831.199,119.121h3.068
			c0.294,0,0.561,0.048,0.79,0.145c0.623,0.258,0.992,0.851,0.992,1.713c0,0.904-0.369,1.538-0.992,1.815
			c-0.229,0.102-0.496,0.156-0.79,0.156h-3.068V119.121z M835.058,130.74c-0.239,0.064-0.503,0.098-0.79,0.098l-3.068-0.029v-4.141
			h3.068c0.287,0,0.551,0.035,0.79,0.099c0.922,0.246,1.471,0.945,1.471,1.93C836.528,129.771,835.979,130.49,835.058,130.74z"/>
	</g>
	<g>
		<circle fill="#2D24A3" cx="723.214" cy="173.27" r="16.925"/>
		<g>
			<g>
				<g>
					<g>
						<path fill="#552EFF" d="M723.215,187.59c-7.896,0-14.321-6.423-14.321-14.32s6.425-14.321,14.321-14.321
							c7.897,0,14.32,6.424,14.32,14.321S731.112,187.59,723.215,187.59z"/>
					</g>
				</g>
			</g>
		</g>
		<path fill="#FFFFFF" d="M731.594,172.271c-0.248-1.479-1.648-2.534-3.141-2.367c-1.255,0.141-2.224,1.073-2.475,2.24l-1.094,0.13
			c-1.074,0.129-2.148-0.242-2.914-1.007l-0.777-0.778c0.521-1.074,0.335-2.405-0.564-3.292c-1.07-1.052-2.823-1.088-3.932-0.078
			c-1.217,1.107-1.249,2.991-0.099,4.142c0.885,0.886,2.208,1.066,3.273,0.547l0.539,0.538c0.844,0.843,1.203,2.055,0.957,3.221
			l-0.177,0.833c-1.186,0.148-2.199,1.03-2.451,2.269c-0.297,1.47,0.63,2.958,2.08,3.337c1.592,0.414,3.188-0.586,3.525-2.177
			c0.259-1.227-0.311-2.433-1.328-3.043c0.313-1.477,1.529-2.591,3.028-2.771l0.153-0.019c0.519,1.068,1.668,1.743,2.915,1.594
			C730.727,175.396,731.864,173.893,731.594,172.271z"/>
	</g>
	<g>
		<rect x="818.732" y="320.313" fill="#BB4D6A" width="33.85" height="4.828"/>
		<ellipse fill="#0C0054" cx="835.656" cy="325.14" rx="16.924" ry="11.671"/>
		<g>
			<ellipse fill="#2D24A3" cx="835.657" cy="320.313" rx="16.925" ry="11.672"/>
			<g>
				<g>
					<g>
						<g>
							<path fill="#552EFF" d="M835.656,330.189c-7.895,0-14.319-4.432-14.319-9.877s6.425-9.873,14.319-9.873
								c7.897,0,14.322,4.428,14.322,9.873S843.554,330.189,835.656,330.189z"/>
						</g>
					</g>
				</g>
			</g>
			<path fill="#FFFFFF" d="M844.036,319.623c-0.248-1.02-1.647-1.746-3.14-1.633c-1.255,0.098-2.225,0.742-2.478,1.547l-1.094,0.09
				c-1.073,0.088-2.146-0.168-2.911-0.695l-0.779-0.537c0.522-0.74,0.337-1.656-0.563-2.27c-1.07-0.725-2.823-0.75-3.932-0.053
				c-1.217,0.764-1.25,2.063-0.099,2.855c0.885,0.609,2.206,0.736,3.273,0.377l0.537,0.371c0.845,0.582,1.203,1.418,0.958,2.221
				l-0.177,0.574c-1.185,0.104-2.199,0.711-2.45,1.566c-0.298,1.014,0.628,2.041,2.08,2.301c1.592,0.287,3.188-0.404,3.525-1.502
				c0.259-0.846-0.313-1.678-1.329-2.098c0.312-1.02,1.53-1.787,3.029-1.91l0.153-0.014c0.519,0.736,1.668,1.201,2.912,1.098
				C843.169,321.779,844.308,320.742,844.036,319.623z"/>
		</g>
	</g>
	<g>
		<circle fill="#2D24A3" cx="888.999" cy="201.313" r="18.232"/>
		<g>
			<g>
				<g>
					<g>
						<path fill="#552EFF" d="M888.999,216.738c-8.506,0-15.425-6.92-15.425-15.426s6.919-15.426,15.425-15.426
							s15.425,6.92,15.425,15.426S897.505,216.738,888.999,216.738z"/>
					</g>
				</g>
			</g>
		</g>
		<g>
			<polygon fill="#FFFFFF" points="888.999,191.468 883.391,200.488 888.999,203.121 894.607,200.488 			"/>
			<polygon fill="#FFFFFF" points="888.999,211.155 894.607,202.136 888.999,205.807 883.391,202.136 			"/>
		</g>
	</g>
	<g>
		<path opacity="0.16" fill="#B8B8B8" d="M825.295,220.109H751.47c-0.85,0-1.537-0.688-1.537-1.538v-22.1
			c0-0.85,0.688-1.537,1.537-1.537h73.825c0.85,0,1.538,0.688,1.538,1.537v22.1C826.833,219.421,826.145,220.109,825.295,220.109z"
			/>
		<path fill="#552EFF" d="M831.251,213.075h-70.77c-0.832,0-1.507-0.675-1.507-1.506v-22.163c0-0.832,0.675-1.506,1.507-1.506h70.77
			c0.831,0,1.506,0.674,1.506,1.506v22.163C832.757,212.4,832.082,213.075,831.251,213.075z"/>
		<g>
			<path fill="#FFFFFF" d="M820.744,197.25h-52.073c-0.452,0-0.817-0.365-0.817-0.818c0-0.451,0.365-0.816,0.817-0.816h52.073
				c0.451,0,0.816,0.365,0.816,0.816C821.561,196.885,821.195,197.25,820.744,197.25z"/>
			<path fill="#FFFFFF" d="M792.73,205.36h-24.06c-0.452,0-0.817-0.365-0.817-0.817c0-0.451,0.365-0.816,0.817-0.816h24.06
				c0.453,0,0.818,0.365,0.818,0.816C793.549,204.995,793.184,205.36,792.73,205.36z"/>
		</g>
	</g>
	<g>
		<path opacity="0.16" fill="#B8B8B8" d="M792.58,263.42h-69.322v-25.492c0-0.843,0.685-1.527,1.527-1.527h67.795
			c0.846,0,1.529,0.685,1.529,1.527v23.963C794.109,262.734,793.426,263.42,792.58,263.42z"/>
		<g>
			<path fill="#552EFF" d="M804.662,255.869h-96.849c-1.004,0-1.819-0.814-1.819-1.82V230.67c0-1.005,0.815-1.82,1.819-1.82h96.849
				c1.005,0,1.821,0.815,1.821,1.82v23.379C806.483,255.055,805.667,255.869,804.662,255.869z"/>
			<g>
				<path fill="#FFFFFF" d="M794.565,238.885h-55.891c-0.485,0-0.876-0.393-0.876-0.877s0.391-0.879,0.876-0.879h55.891
					c0.484,0,0.878,0.395,0.878,0.879S795.05,238.885,794.565,238.885z"/>
				<path fill="#FFFFFF" d="M764.499,247.59h-25.824c-0.485,0-0.876-0.392-0.876-0.877c0-0.484,0.391-0.878,0.876-0.878h25.824
					c0.484,0,0.878,0.394,0.878,0.878C765.377,247.198,764.983,247.59,764.499,247.59z"/>
			</g>
			<path fill="#FFFFFF" d="M729.136,249.91H715.06c-0.896,0-1.621-0.727-1.621-1.621v-12.484c0-0.896,0.726-1.621,1.621-1.621
				h14.076c0.895,0,1.621,0.725,1.621,1.621v12.484C730.757,249.184,730.03,249.91,729.136,249.91z"/>
		</g>
	</g>
	<g>
		<path fill="#EDEDF1" d="M906.776,271.207H835.87c-1.108,0-2.005-0.9-2.005-2.006V229.24c0-1.107,0.896-2.006,2.005-2.006h70.906
			c1.106,0,2.006,0.898,2.006,2.006v39.961C908.782,270.307,907.883,271.207,906.776,271.207z"/>
		<g>
			<g>
				<rect x="891.418" y="237.074" fill="#FFFFFF" width="0.521" height="26.092"/>
				<rect x="883.545" y="237.074" fill="#FFFFFF" width="0.521" height="26.092"/>
				<rect x="875.67" y="237.074" fill="#FFFFFF" width="0.521" height="26.092"/>
				<rect x="867.797" y="237.074" fill="#FFFFFF" width="0.521" height="26.092"/>
				<rect x="859.921" y="237.074" fill="#FFFFFF" width="0.521" height="26.092"/>
				<rect x="852.048" y="237.074" fill="#FFFFFF" width="0.521" height="26.092"/>
			</g>
			<rect x="845.812" y="266.168" fill="#FFFFFF" width="51.722" height="0.521"/>
		</g>
		<path fill="#552EFF" d="M864.156,262.299c-0.21,0-0.424-0.027-0.638-0.079c-3-0.738-4.549-3.493-5.794-5.708
			c-0.868-1.545-1.687-3.006-2.583-3.006c-2.922,0-4.762,3.453-6.238,6.225c-0.286,0.537-0.554,1.037-0.81,1.477
			c-0.273,0.473-0.876,0.641-1.354,0.358c-0.473-0.275-0.634-0.882-0.358-1.354c0.245-0.418,0.5-0.9,0.771-1.411
			c1.638-3.07,3.878-7.274,7.988-7.274c2.057,0,3.151,1.95,4.312,4.016c1.166,2.076,2.371,4.222,4.537,4.755
			c0.182,0.045,0.306,0.026,0.453-0.072c1.28-0.843,2.023-5.321,2.62-8.922c0.899-5.415,1.612-9.708,4.268-9.708
			c0.033,0,0.07,0,0.105,0.002c2.672,0.115,3.472,3.596,4.315,7.28c0.707,3.077,1.507,6.565,3.234,6.819
			c2.043,0.301,2.837-0.395,3.847-1.268c0.935-0.812,2.108-1.816,4.226-1.624c1.893,0.175,2.963,1.421,3.906,2.521
			c1.293,1.502,2.5,2.92,5.961,2.572c0.549-0.035,1.029,0.342,1.087,0.885c0.054,0.543-0.341,1.029-0.888,1.087
			c-4.483,0.456-6.244-1.603-7.663-3.253c-0.954-1.109-1.542-1.743-2.585-1.841c-1.285-0.119-1.896,0.414-2.747,1.149
			c-1.11,0.963-2.489,2.158-5.432,1.729c-3.067-0.447-3.987-4.456-4.877-8.333c-0.582-2.537-1.307-5.695-2.469-5.746
			c-0.003,0-0.008,0-0.011,0c-0.986,0-1.89,5.435-2.322,8.051c-0.764,4.596-1.482,8.934-3.485,10.254
			C865.112,262.156,864.643,262.299,864.156,262.299z"/>
	</g>
	<g>
		<path fill="#95B8D7" d="M795.87,317.994l-51.062-8.047c-0.435-0.068-0.731-0.477-0.663-0.91l0,0
			c0.068-0.434,0.477-0.73,0.911-0.66l51.061,8.045c0.434,0.07,0.729,0.475,0.66,0.91l0,0
			C796.71,317.766,796.303,318.063,795.87,317.994z"/>
		<path fill="#523696" d="M778.729,321.439h-45.945c-0.392,0-0.708-0.316-0.708-0.707l0,0c0-0.393,0.316-0.707,0.708-0.707h45.945
			c0.391,0,0.707,0.314,0.707,0.707l0,0C779.436,321.123,779.119,321.439,778.729,321.439z"/>
	</g>
	<g>
		<g>
			<path fill="#282C3C" d="M954.05,182.103c0,0,10.733-0.425,12.392,8.944c0,0,1.904,4.04,4.625,5.754
				c5.315,3.349,8.485,16.473-6.913,17.35c-21.773,1.244-28.539-7.148-22.393-14.001c5.636-6.284,2.486-10.271,2.486-10.271
				L954.05,182.103z"/>
			<path fill="#C552E3" d="M945.224,209.885l4.979,26.059l13.648-0.289l2.586-25.543c0.088-1.404-1.017-2.597-2.425-2.619
				l-16.483-0.249C946.109,207.222,945.01,208.481,945.224,209.885z"/>
			<polygon fill="#C552E3" points="948.988,207.266 938.547,207.236 938.237,214.697 949.796,216.189 			"/>
			<polygon fill="#E3BE9C" points="938.547,207.236 928.352,206.424 927.604,213.273 938.237,214.697 			"/>
			<polygon fill="#E3BE9C" points="928.352,206.424 911.121,200.422 909.325,203.621 927.604,213.273 			"/>
			<path fill="#C552E3" d="M945.224,209.885l-0.529,7.193c-0.058,0.791,0.18,1.58,0.665,2.209l4.692,6.083L945.224,209.885z"/>
			<circle fill="#E3BE9C" cx="906.991" cy="200.422" r="4.172"/>
			<path fill="#C552E3" d="M964.012,207.492c0,0,4.68,0.174,8.071,3.727l5.684,5.256l-4.13,5.498l-9.483-7.822L964.012,207.492z"/>
			<g>
				<g>
					<g>
						<path fill="#DFB48F" d="M955.83,210.784l-0.553-0.056c-1.485-0.146-2.574-1.463-2.444-2.949l1.024-10.811l5.977,0.597
							l-1.02,10.747C958.683,209.824,957.342,210.936,955.83,210.784z"/>
						<path fill="#E3BE9C" d="M951.952,204.168l-0.24-0.021c-3.995-0.344-6.956-3.859-6.611-7.854l0.747-8.729l14.708,1.262
							l-0.75,8.728C959.464,201.549,955.947,204.51,951.952,204.168z"/>
					</g>
					<path fill="#282C3C" d="M960.981,194.396l-1.772,2.262c0,0-1.932,1.053-1.619-2.585c0.266-3.081-2.023-3.036-2.023-3.036
						s-8.683,4.008-12.215-0.816c-2.787-3.808,4.018-8.175,10.698-8.118l7.578,5.491L960.981,194.396z"/>
					<circle fill="#E3BE9C" cx="960.753" cy="196.806" r="2.42"/>
					<circle fill="#FFFFFF" cx="960.625" cy="198.141" r="0.436"/>
				</g>
			</g>
			<path fill="#3D415B" d="M950.202,235.943"/>
			<path fill="#552EFF" d="M963.898,240.192l-13.696-4.249l-0.12,2.704l-14.418,43.831c-0.181,0.711-0.162,1.457,0.053,2.156
				l4.488,38.57l5.359-2.215l-0.849-37.783L963.898,240.192z"/>
			<path fill="#552EFF" d="M963.852,235.654l-11.022,0.375l9.184,85.801l5.423-0.113l0.14-9.986l0.513-57.883
				C972.44,242.215,963.852,235.654,963.852,235.654z"/>
			<path fill="#29333D" d="M959.9,320.613l-2.503,2.469l-5.62,1.369c-0.578,0.141-1.047,0.564-1.245,1.127l-0.285,0.814
				c-0.142,0.402,0.164,0.826,0.593,0.816l16.374-0.346c0.589-0.012,1.046-0.52,0.998-1.105l-0.426-5.236l-2.018,0.672
				c-0.914,0.303-1.916,0.199-2.747-0.285l-0.974-0.566C961.354,319.938,960.473,320.047,959.9,320.613z"/>
			<polygon fill="#E3BE9C" points="950.202,235.943 963.852,235.654 952.547,241.127 			"/>
			<path fill="#29333D" d="M937.911,321.078l-2.5,2.467l-5.62,1.369c-0.578,0.141-1.047,0.564-1.245,1.127l-0.286,0.814
				c-0.141,0.404,0.166,0.826,0.593,0.816l16.375-0.346c0.589-0.012,1.046-0.518,0.999-1.104l-0.426-5.236l-2.02,0.672
				c-0.914,0.303-1.915,0.199-2.746-0.287l-0.973-0.566C939.367,320.4,938.486,320.512,937.911,321.078z"/>
			<circle fill="#E3BE9C" cx="975.442" cy="248.765" r="4.171"/>
			<path fill="#E3BE9C" d="M973.637,221.973l5.082,4.01l-3.704,18.564l2.413,2.357l7.635-21.371c0.496-0.994,0.266-2.197-0.562-2.94
				l-6.734-6.118L973.637,221.973z"/>
		</g>
		<polygon opacity="0.44" fill="#CACACA" points="949.72,253.605 953.138,258.068 944.716,283.207 955.566,258.875 955.138,253.969 
					"/>
	</g>
	
		<path fill="none" stroke="#EBEBEF" stroke-width="0.9918" stroke-linecap="round" stroke-linejoin="round" stroke-miterlimit="10" d="
		M848.277,82.192c0,0,1.412-1.625,2.277-2.371c1.56-1.341,3.349-3.712,9.068-1.964c0.444,0.136,0.875,0.316,1.304,0.497
		c0.503,0.214,2.065,0.219,3.665-1.051c2.543-2.019,3.536-3.541,7.021-3.589c4.052-0.055,4.688,4.997,7.839,6.29
		c2.004,0.822,7.291,1.641,8.385,2.005L848.277,82.192z"/>
</g>
</svg>
