<?xml version="1.0" encoding="utf-8"?>
<!-- Generator: Adobe Illustrator 16.0.0, SVG Export Plug-In . SVG Version: 6.00 Build 0)  -->
<!DOCTYPE svg PUBLIC "-//W3C//DTD SVG 1.1//EN" "http://www.w3.org/Graphics/SVG/1.1/DTD/svg11.dtd">
<svg version="1.1" id="Layer_1" xmlns="http://www.w3.org/2000/svg" xmlns:xlink="http://www.w3.org/1999/xlink" x="0px" y="0px"
	 width="1024px" height="743px" viewBox="0 0 1024 743" enable-background="new 0 0 1024 743" xml:space="preserve">
<rect x="87" y="133" fill="#ECF3FA" width="789" height="542"/>
<g>
	<ellipse fill="#CCDDE5" cx="282.256" cy="718.908" rx="90.417" ry="6.674"/>
	<ellipse fill="#CCDDE5" cx="600.228" cy="722.549" rx="90.417" ry="6.674"/>
	<ellipse fill="#CCDDE5" cx="908.493" cy="722.549" rx="90.417" ry="6.674"/>
	<g>
		<path fill="#4AA2FF" d="M254.345,597.869l3.698,4.32c0,0-8.813,7.723-8.439,8.551c0.375,0.828,15.444-6.717,15.993-7.712
			c0.549-0.999-5.321-8.338-5.321-8.338L254.345,597.869z"/>
		<g>
			<rect x="234.621" y="358.458" fill="#FEAC00" width="9.102" height="360.45"/>
			<rect x="313.81" y="358.458" fill="#FEAC00" width="9.103" height="360.45"/>
		</g>
		<rect x="240.992" y="685.532" fill="#FEAC00" width="75.851" height="7.281"/>
		<rect x="240.992" y="647.303" fill="#FEAC00" width="75.851" height="7.281"/>
		<rect x="240.992" y="610.438" fill="#FEAC00" width="75.851" height="7.281"/>
		<rect x="240.992" y="572.816" fill="#FEAC00" width="75.851" height="7.282"/>
		<rect x="240.992" y="535.195" fill="#FEAC00" width="75.851" height="7.281"/>
		<rect x="240.992" y="497.57" fill="#FEAC00" width="75.851" height="7.281"/>
		<rect x="240.992" y="459.948" fill="#FEAC00" width="75.851" height="7.282"/>
		<rect x="240.992" y="422.327" fill="#FEAC00" width="75.851" height="7.281"/>
		<rect x="240.992" y="384.702" fill="#FEAC00" width="75.851" height="7.281"/>
	</g>
	<path fill="#4AA2FF" d="M298.356,636.113l3.259,4.665c0,0-9.525,6.819-9.234,7.684c0.292,0.86,16.025-5.178,16.668-6.116
		s-4.48-8.814-4.48-8.814L298.356,636.113z"/>
	<path fill="#363147" d="M335.46,488.403c0,0-0.569,28.032-19.402,42.959c-18.833,14.93-26.148,21.519-26.148,21.519l17.284,83.307
		l-8.18,2.61c0,0-32.69-44.961-33.853-80.954c-1.161-35.989,29.933-76.91,29.933-76.91L335.46,488.403z"/>
	<path fill="#424261" d="M271.03,489.531c0,0-58.255,16.384-64.626,39.14c-6.372,22.755,18.205,62.806,47.332,74.639l9.102-8.192
		c0,0-27.307-40.96-28.217-57.345c0,0,69.177,4.552,78.279-35.498C322.002,462.224,271.03,489.531,271.03,489.531z"/>
	<path fill="#9FC7FA" d="M859.339,59.297H104.458c-9.383,0-16.99,7.607-16.99,16.99v67.357h788.863V76.288
		C876.331,66.904,868.722,59.297,859.339,59.297z"/>
	<circle fill="#6B8BFA" cx="687.003" cy="102.988" r="13.351"/>
	<circle fill="#59C54F" cx="750.113" cy="102.988" r="13.35"/>
	<circle fill="#EC5B72" cx="813.221" cy="102.988" r="13.349"/>
	<path fill="#ECF3FA" d="M433.05,118.158H130.854c-6.535,0-11.833-5.298-11.833-11.833l0,0c0-6.535,5.298-11.833,11.833-11.833
		H433.05c6.535,0,11.833,5.298,11.833,11.833l0,0C444.883,112.86,439.585,118.158,433.05,118.158z"/>
	<path fill="#CCDDE5" d="M589.911,234.061v293.7c0,5.361,4.349,9.71,9.711,9.71h210.479c25.955-20.37,47.35-36.86,66.229-50.29
		v-262.83H599.622C594.26,224.351,589.911,228.697,589.911,234.061z"/>
	<path fill="#FEDD56" d="M898.176,515.319H621.467c-5.361,0-9.71-4.345-9.71-9.707V211.912c0-5.362,4.349-9.708,9.71-9.708h276.709
		c5.362,0,9.711,4.347,9.711,9.708v293.701C907.887,510.975,903.538,515.319,898.176,515.319z"/>
	<rect x="173.578" y="229.149" fill="#CCDDE5" width="256.685" height="21.845"/>
	<rect x="173.578" y="267.149" fill="#CCDDE5" width="256.685" height="21.845"/>
	<path fill="#57A1FF" d="M596.891,431.276c0,0-37.319,19.114-39.14,56.434s59.165,18.205,65.536-6.371
		C629.659,456.763,615.096,425.814,596.891,431.276z"/>
	<g>
		<path fill="#4AA2FF" d="M907.222,712.991l1.593,5.462c0,0-11.207,3.413-11.207,4.323s16.839,0.228,17.749-0.455
			s-1.422-9.785-1.422-9.785L907.222,712.991z"/>
		<path fill="#4AA2FF" d="M950.276,691.893l4.31,3.712c0,0-7.545,8.964-7.051,9.729c0.497,0.765,14.25-8.975,14.645-10.041
			c0.392-1.07-6.521-7.435-6.521-7.435L950.276,691.893z"/>
		<path fill="#363147" d="M949.757,539.594c0,0,6.372,27.307-8.192,46.421c-14.563,19.115-20.024,27.307-20.024,27.307l37.319,76.46
			l-7.282,4.551c0,0-42.78-35.499-52.793-70.088c-10.013-34.588,10.013-81.92,10.013-81.92L949.757,539.594z"/>
		<path fill="#424261" d="M882.095,537.471c0,0-9.86,107.709,24.121,176.887h9.71c0,0-3.488-114.991,0.152-128.343
			c0,0,15.776-13.351,15.776-46.119S882.095,537.471,882.095,537.471z"/>
		<path fill="#00ACFF" d="M865.71,531.099c0,0-23.058,9.707-55.826-15.779h47.94L865.71,531.099z"/>
		<path fill="#FFD2B0" d="M914.561,313.252c0,0-3.641-18.207-5.159-18.814c-1.515-0.606-1.515,17.599-1.515,17.599L914.561,313.252z
			"/>
		<g>
			<path fill="#0092FF" d="M905.06,449.222c0,0,1.06-68.655,13.174-75.265c12.11-6.61,23.588,14.269,26.193,42.364
				C947.03,444.418,937.646,491.909,905.06,449.222z"/>
			<path fill="#0092FF" d="M907.887,380.304v-68.267h7.281c0,0,18.205,40.05,18.205,72.818L907.887,380.304z"/>
		</g>
		<g>
			<g>
				<path fill="#FFC183" d="M895.144,387.585c0,0-9.711,23.666-2.429,35.197c9.103,12.135,24.273-1.216,24.273-1.216
					L895.144,387.585z"/>
				<path fill="#424261" d="M922.589,378.178c0,0,25.768,12.889,3.641,44.604c-18.204,26.091-39.14-10.923-30.947-34.589
					C903.474,364.523,922.589,378.178,922.589,378.178z"/>
			</g>
			<path fill="#00ACFF" d="M896.355,430.366c0,0-27.307,6.371-50.973,85.562c0,0-2.73,13.653,11.833,16.384
				s26.396-18.204,26.396-18.204s-6.371,17.294-3.641,29.127c0,0,27.005,20.633,71.605-2.123c0,0,5.764-71.605-19.723-104.374
				C931.854,436.737,919.111,423.994,896.355,430.366z"/>
		</g>
		<path fill="#FFD2B0" d="M907.887,310.216c-0.431-0.215-5.462-6.067-4.857-7.585c0.608-1.517,3.492,1.82,3.492,1.82
			s2.88-1.062,3.641,1.669C910.92,308.851,910.009,311.277,907.887,310.216z"/>
	</g>
	<path fill="#FFD2B0" d="M300.461,259.85c0,0-3.641-18.205-5.159-18.811c-1.517-0.606-1.517,17.599-1.517,17.599L300.461,259.85z"/>
	<g>
		<path fill="#C53642" d="M290.96,395.823c0,0,1.06-68.658,13.171-75.268c12.11-6.606,23.591,14.269,26.194,42.364
			C332.932,391.017,323.549,438.508,290.96,395.823z"/>
		<path fill="#C53642" d="M293.785,326.906v-68.269h7.282c0,0,18.205,40.05,18.205,72.82L293.785,326.906z"/>
	</g>
	<path fill="#FFD2B0" d="M293.785,256.816c-0.43-0.215-5.461-6.069-4.855-7.585c0.608-1.517,3.49,1.82,3.49,1.82
		s2.882-1.062,3.641,1.669C296.82,255.451,295.91,257.878,293.785,256.816z"/>
	<g>
		<g>
			<path fill="#4AA2FF" d="M613.937,712.991l-1.593,5.462c0,0,11.207,3.413,11.207,4.323s-16.839,0.228-17.75-0.455
				c-0.91-0.683,1.423-9.785,1.423-9.785L613.937,712.991z"/>
			<path fill="#4AA2FF" d="M570.882,691.893l-4.306,3.712c0,0,7.541,8.964,7.047,9.729s-14.25-8.975-14.642-10.041
				c-0.392-1.07,6.518-7.435,6.518-7.435L570.882,691.893z"/>
			<path fill="#363147" d="M571.404,539.594c0,0-6.371,27.307,8.192,46.421c14.563,19.115,20.025,27.307,20.025,27.307
				l-37.319,76.46l7.281,4.551c0,0,42.781-35.499,52.793-70.088c10.013-34.588-10.012-81.92-10.012-81.92L571.404,539.594z"/>
			<path fill="#424261" d="M639.063,537.471c0,0,9.859,107.709-24.121,176.887h-9.71c0,0,3.491-114.991-0.149-128.343
				c0,0-15.779-13.351-15.779-46.119S639.063,537.471,639.063,537.471z"/>
			<path fill="#00ACFF" d="M655.447,531.099c0,0,23.059,9.707,55.826-15.779h-47.936L655.447,531.099z"/>
			<g>
				<g>
					<path fill="#FFC183" d="M626.019,387.585c0,0,9.706,23.666,2.425,35.197c-9.103,12.135-24.271-1.216-24.271-1.216
						L626.019,387.585z"/>
					<path fill="#DD4288" d="M598.572,378.178c0,0-25.771,12.889-3.641,44.604c18.205,26.091,39.14-10.923,30.948-34.589
						C617.688,364.523,598.572,378.178,598.572,378.178z"/>
				</g>
				<path fill="#00ACFF" d="M624.803,430.366c0,0,27.307,6.371,50.973,85.562c0,0,2.73,13.653-11.833,16.384
					c-14.564,2.73-26.397-18.204-26.397-18.204s6.372,17.294,3.642,29.127c0,0-27.001,20.633-71.603-2.123
					c0,0-5.767-71.605,19.72-104.374C589.304,436.737,602.047,423.994,624.803,430.366z"/>
			</g>
		</g>
		<path fill="#DD4288" d="M598.572,378.178c0,0-18.367,3.946-22.616,27.004c-4.249,23.062,12.743,27.307,0.607,39.445
			c-12.139,12.136-30.947,14.564-27.915,34.589c3.033,20.025-10.314,20.025-5.461,34.589s40.05,32.769,55.222,6.674
			c15.168-26.095,0.604-42.479,10.923-57.646c10.314-15.172,15.168-20.633,13.348-33.376s7.89-26.699,3.641-37.018
			C622.075,382.124,608.443,374.842,598.572,378.178z"/>
	</g>
	<path fill="#FFD2B0" d="M231.284,415.803c0,0,1.212-16.082,3.033-16.687c1.82-0.608,0.608,12.135,0.608,12.135
		s5.158-4.249,5.461-2.428c0.302,1.82-1.82,3.946-1.82,3.946s1.517,2.123,0.91,4.551
		C238.868,419.745,231.284,415.803,231.284,415.803z"/>
	<path fill="#C53642" d="M234.924,475.575c-1.847-1.177-12.743-21.846-4.249-61.291l9.71,1.216c0,0,13.956,29.731,11.529,47.937
		C249.488,481.641,241.598,479.82,234.924,475.575z"/>
	
		<rect x="140.867" y="418.534" transform="matrix(0.9938 0.1109 -0.1109 0.9938 49.3007 -27.2126)" fill="#C2CFD6" width="256.683" height="21.845"/>
	
		<rect x="138.439" y="423.995" transform="matrix(0.9784 -0.2066 0.2066 0.9784 -84.1102 64.5115)" fill="#CCDDE5" width="256.684" height="21.845"/>
	<g>
		<g>
			<path fill="#FFD2B0" d="M281.042,334.188c0,0-9.708,23.666-2.427,35.193c9.103,12.139,24.272-1.216,24.272-1.216L281.042,334.188
				z"/>
			<path fill="#9C5B40" d="M308.488,324.78c0,0,25.767,12.885,3.641,44.601c-18.205,26.095-39.14-10.923-30.948-34.589
				C289.373,311.126,308.488,324.78,308.488,324.78z"/>
		</g>
		<path fill="#DD425E" d="M282.256,376.969c0,0-27.307,6.367-50.973,85.558c0,0-2.731,13.653,11.833,16.384
			c14.563,2.73,26.396-18.204,26.396-18.204s-6.372,17.294-3.641,29.127c0,0,27.003,20.633,71.604-2.123
			c0,0,5.764-71.605-19.723-104.374C317.753,383.336,305.01,370.597,282.256,376.969z"/>
	</g>
	<path fill="#9C5B40" d="M316.843,334.188c0,0,0-15.779-11.527-21.241c-11.531-5.461-27.309-3.035-26.094,6.066
		C280.436,328.115,304.708,341.47,316.843,334.188z"/>
	<circle fill="#9FC7FA" cx="46.203" cy="30.776" r="23.666"/>
	<circle fill="#9FC7FA" cx="392.09" cy="600.578" r="23.666"/>
	<circle fill="#9FC7FA" cx="27.999" cy="99.954" r="9.102"/>
	<circle fill="#9FC7FA" cx="357.501" cy="544.145" r="9.102"/>
	<circle fill="#9FC7FA" cx="985.558" cy="471.326" r="9.102"/>
	<circle fill="#13FFFF" cx="946.722" cy="175.806" r="4.855"/>
	<circle fill="#13FFFF" cx="930.944" cy="263.187" r="4.854"/>
	<circle fill="#FF6AFF" cx="1000.122" cy="339.646" r="10.315"/>
	<circle fill="#FF6AFF" cx="113.56" cy="26.528" r="10.316"/>
</g>
</svg>
