<?xml version="1.0" encoding="utf-8"?>
<!-- Generator: Adobe Illustrator 16.0.0, SVG Export Plug-In . SVG Version: 6.00 Build 0)  -->
<!DOCTYPE svg PUBLIC "-//W3C//DTD SVG 1.1//EN" "http://www.w3.org/Graphics/SVG/1.1/DTD/svg11.dtd">
<svg version="1.1" id="Layer_1" xmlns="http://www.w3.org/2000/svg" xmlns:xlink="http://www.w3.org/1999/xlink" x="0px" y="0px"
	 width="676.667px" height="658.375px" viewBox="0 0 676.667 658.375" enable-background="new 0 0 676.667 658.375"
	 xml:space="preserve">
<g>
	<g>
		<path fill="#00D9AA" d="M132.997,576.361c46.663,8.737,81.303-57.909,112.169-56.536c30.857,1.368,35.594,32.875,63.149,27.264
			c27.561-5.604,41.113-61.588,73.896-59.466c32.785,2.127,25.683,43.258,44.958,47.037c19.271,3.781,43.615-8.165,55.787,24.691
			C482.957,559.352,292.256,661.962,132.997,576.361z"/>
		<g>
			<path fill="#FFFFFF" d="M617.735,340.6c0,0,29.575,30.005,24.541,60.057c-3.768,22.513-1.885,36.304,0.576,56.173
				c2.461,19.875-0.666,27.846-25.26,46.295c0,0-20.156-6.324-21.997-30.919c-1.843-24.601,5.634-23.573,0-47.472
				C585.752,382.991,617.735,340.6,617.735,340.6z"/>
			<line fill="none" stroke="#00D9AA" stroke-miterlimit="10" x1="617.593" y1="390.023" x2="617.593" y2="549.009"/>
			<polyline fill="none" stroke="#00D9AA" stroke-miterlimit="10" points="605.42,396.597 617.593,415.361 617.593,426.268 
				632.296,407.753 			"/>
			<polyline fill="none" stroke="#00D9AA" stroke-miterlimit="10" points="605.42,426.268 617.593,445.031 617.593,455.938 
				632.296,437.424 			"/>
			<polyline fill="none" stroke="#00D9AA" stroke-miterlimit="10" points="605.42,455.938 617.593,474.702 617.593,485.608 
				632.296,467.094 			"/>
		</g>
		<g>
			<path fill="#C552E3" d="M155.179,437.644l-36.31,144.936c-0.643,2.579,0.868,5.205,3.424,5.948
				c2.556,0.737,5.242-0.683,6.068-3.208l46.55-141.977L155.179,437.644z"/>
			<path fill="#C552E3" d="M528.842,437.644l36.305,144.936c0.646,2.579-0.862,5.205-3.418,5.948
				c-2.557,0.737-5.242-0.683-6.068-3.208l-46.558-141.977L528.842,437.644z"/>
		</g>
		<rect x="115.13" y="150.384" fill="#00D9AA" width="453.76" height="309.601"/>
		<rect x="126.423" y="163.286" fill="#FFFFFF" width="431.174" height="283.796"/>
		<rect x="252.036" y="412.026" opacity="0.2" fill="#212226" width="283.261" height="25.617"/>
		
			<rect x="252.036" y="252.981" fill="none" stroke="#42444D" stroke-width="0.5" stroke-miterlimit="10" width="283.261" height="110.784"/>
		<rect x="257.933" y="258.057" fill="#FFE7DB" width="271.475" height="100.638"/>
		<path opacity="0.42" fill="#FFFFFF" d="M446.095,274.281c-45.386,0-82.172,36.791-82.172,82.171c0,0.749,0.037,1.493,0.055,2.242
			h164.229c0.018-0.749,0.054-1.493,0.054-2.242C528.26,311.072,491.474,274.281,446.095,274.281z"/>
		<path opacity="0.42" fill="#FFFFFF" d="M332.096,299.522c-31.81,0-57.599,25.79-57.599,57.596c0,0.529,0.028,1.052,0.04,1.576
			h115.116c0.013-0.524,0.036-1.047,0.036-1.576C389.689,325.313,363.906,299.522,332.096,299.522z"/>
		
			<line fill="none" stroke="#42444D" stroke-width="0.5" stroke-miterlimit="10" x1="252.036" y1="234.228" x2="535.297" y2="234.228"/>
		<rect x="126.423" y="163.286" fill="#0C0054" width="108.097" height="283.796"/>
		<path fill="#FFFFFF" d="M217.724,252.981c0,20.575-16.678,37.252-37.249,37.252c-20.577,0-37.255-16.678-37.255-37.252
			c0-20.573,16.678-37.251,37.255-37.251C201.046,215.729,217.724,232.408,217.724,252.981z"/>
		<path opacity="0.2" fill="#212226" d="M137.889,201.518c-4.012,0-7.858,0.678-11.466,1.88v68.767
			c3.334,1.104,6.876,1.746,10.562,1.836l-10.562,8.704v26.043c2.609-1.267,4.98-3.026,6.948-5.271l30.158-34.465
			c-0.375-0.723-0.802-1.398-1.26-2.036l2.645-3.58c0,0,1.646-2.078,4-4.083c2.354-2.007,0.629-2.718,2.181-4.715
			c1.545-1.999,0.612-4.334,1.943-6.892c0.898-1.716,0.856-3.787,0.737-4.978c0.22-1.621,0.375-3.262,0.375-4.945
			C174.151,217.755,157.918,201.518,137.889,201.518z"/>
		<g>
			<g>
				<path fill="#FFADAD" d="M69.371,554.079c0,0,1.07,18.122-0.725,26.229c-1.795,8.114-1.575,18.212-1.575,18.212
					s7.548,2.525,16.523,1.35c8.975-1.178,17.041,12.422,43.109,3.56L98.75,586.145c0,0-15.239-14.907-14.877-35.115L69.371,554.079
					z"/>
				<path fill="#42444D" d="M98.75,586.145c0,0-3.81-3.728-7.578-9.985l-10.871,6.967l-11.471-3.805
					c-0.06,0.333-0.119,0.677-0.185,0.986c-1.795,8.114-1.575,18.212-1.575,18.212s7.548,2.525,16.523,1.35
					c8.975-1.178,17.041,12.422,43.109,3.56L98.75,586.145z"/>
			</g>
			<path fill="#42444D" d="M84.818,354.17l15.977,109.555l-12.649,97.76l-20.827-2.662c0,0-6.086-68.471,5.326-90.914
				L45.976,358.901L84.818,354.17z"/>
			<path opacity="0.4" fill="#212226" d="M100.795,463.725l-27.412-95.266l-13.76,46.212l13.022,53.237
				c-11.413,22.443-5.326,90.914-5.326,90.914l20.827,2.662L100.795,463.725z"/>
			<g>
				<path fill="#FFADAD" d="M34.826,566.269c0,0-2.384,17.999-5.683,25.618c-3.298,7.625-4.998,17.587-4.998,17.587
					s6.942,3.904,15.977,4.451c9.034,0.547,14.377,15.425,41.653,11.661l-24.172-22.264c0,0-12.144-17.528-7.965-37.303
					L34.826,566.269z"/>
				<path fill="#42444D" d="M57.603,603.322c0,0-3.038-4.386-5.552-11.246l-11.994,4.785l-10.544-5.907
					c-0.119,0.314-0.244,0.647-0.369,0.933c-3.298,7.625-4.998,17.587-4.998,17.587s6.942,3.904,15.977,4.451
					c9.034,0.547,14.377,15.425,41.653,11.661L57.603,603.322z"/>
			</g>
			<path fill="#42444D" d="M81.775,356.452l-3.804,117.542L52.104,575.178l-20.161-3.804c0,0-0.76-71.133,15.596-93.576
				c0,0-7.228-67.709-9.89-79.501c-2.663-11.793-6.466-27.008-0.38-38.802L81.775,356.452z"/>
			<path opacity="0.2" fill="#212226" d="M84.818,354.17l-38.842,4.731l-8.708,0.594c-4.101,7.947-3.708,17.444-2.205,26.402
				c11.014,0.439,36.44,0.256,53.035-9.23L84.818,354.17z"/>
			<polygon fill="#D99393" points="91.588,250.151 98.904,255.853 105.793,244.449 95.891,234.228 			"/>
			<circle fill="#552EFF" cx="129.832" cy="233.204" r="36.265"/>
			<path fill="#FFADAD" d="M91.588,250.151l3.554-18.29c0,0,2.259,3.194,0.97,7.89c0,0,3.173,3.043-0.892,13.23L91.588,250.151z"/>
			<path fill="#916262" d="M90.649,249.054c0,0,6.086,2.346,9.004,8.02c0,0-14.455,36.737-16.862,40.542
				c-2.413,3.804-40.881-9.13-40.881-9.13l1.445-17.747l32.589,5.194L90.649,249.054z"/>
			<path fill="#FFFFFF" d="M129.829,269.466c10.413,0,19.768-4.408,26.384-11.435c-5.67-8.538-15.364-14.175-26.384-14.175
				c-11.019,0-20.714,5.637-26.384,14.175C110.061,265.058,119.422,269.466,129.829,269.466z"/>
			<path fill="#E8EEFA" d="M46.338,259.318l14.325,3.557c0,0,13.23,18.151,16.345,32.972c3.109,14.821,6.443,35.067,11.774,48.011
				c5.337,12.94,6.889,24.215,1.111,29.433c-5.777,5.214-51.109,7.93-61.332,4.382c-10.223-3.548-0.22-19.828-1.112-29.434
				c-0.885-9.6-14.009-67.465,2.211-91.26C29.661,256.978,36.116,257.858,46.338,259.318z"/>
			<path opacity="0.2" fill="#212226" d="M82.464,322.288c-2.056-9.071-3.798-18.521-5.457-26.441
				c-0.185-0.874-0.41-1.759-0.66-2.653l-30.372-5.949L82.464,322.288z"/>
			<path fill="#FFADAD" d="M59.332,209.365l8.624,14.835l-3.299,1.141c0,0,4.44,13.441,1.521,17.372
				c-2.918,3.93-8.874,1.522-10.205,4.691c-1.332,3.171-1.967,10.652-1.967,10.652l-19.4-2.669l1.267-15.971
				c0,0-18.889-13.06-10.016-28.782C34.73,194.91,54.095,200.354,59.332,209.365z"/>
			<path fill="#42444D" d="M62.779,214.438c0,0,2.514-7.227-2.811-10.904c0,0,5.753-10.088-1.397-14.962
				c-8.369-5.706-14.71,1.774-14.71,1.774s-7.542-6.593-14.2-2.916c-6.062,3.346-4.44,11.412-4.44,11.412s-8.874-3.804-13.819,2.915
				c-4.945,6.721-0.125,13.441,2.538,15.344c0,0-7.988,12.553,7.228,13.44c0,0,5.254,9.388,14.354,13.314
				c0,0,3.905-0.169,7.329-6.679c0,0-6.723-6.129-4.315-10.314c2.414-4.184,7.187,1.141,7.187,1.141l1.944,7.355l3.423-0.128
				l-1.771-14.581c0,0,4.309-2.537,5.45-7.862L62.779,214.438z"/>
			<circle fill="#FFFFFF" cx="129.829" cy="225.14" r="14.265"/>
			<path fill="#FFADAD" d="M146.115,257.736l3.703-5.638c0,0-0.785-5.551-0.494-10.723c0.298-5.173,1.932-3.573,1.932-3.573
				l3.923,7.39l10.401-8.015c0,0,0.737,3.395-0.594,5.951c-1.337,2.557-0.404,4.894-1.95,6.89c-1.545,1.997,0.173,2.709-2.181,4.714
				c-2.354,2.007-3.994,4.084-3.994,4.084l-4.571,6.178L146.115,257.736z"/>
			<path fill="#A67070" d="M42.892,275.38c7.62-15.946,66.824,9.879,66.824,9.879l36.238-29.872c0,0,6.425,3.095,9.516,9.044
				l-30.152,34.468c-4.933,5.634-12.392,8.359-19.798,7.233C82.328,302.593,34.458,293.045,42.892,275.38z"/>
			<polygon fill="#A67070" points="29.661,256.978 60.663,262.875 62.375,255.013 29.661,251.272 			"/>
		</g>
		<g>
			<path opacity="0.62" fill="#FFFFFF" d="M212.404,324.48H148.54c-3.37,0-6.104-2.734-6.104-6.107l0,0
				c0-3.372,2.734-6.107,6.104-6.107h63.865c3.37,0,6.11,2.735,6.11,6.107l0,0C218.515,321.746,215.774,324.48,212.404,324.48z"/>
			<path opacity="0.62" fill="#FFFFFF" d="M212.404,352.375H148.54c-3.37,0-6.104-2.733-6.104-6.104l0,0
				c0-3.378,2.734-6.111,6.104-6.111h63.865c3.37,0,6.11,2.733,6.11,6.111l0,0C218.515,349.642,215.774,352.375,212.404,352.375z"/>
			<path opacity="0.62" fill="#FFFFFF" d="M212.404,380.274H148.54c-3.37,0-6.104-2.739-6.104-6.11l0,0
				c0-3.375,2.734-6.108,6.104-6.108h63.865c3.37,0,6.11,2.733,6.11,6.108l0,0C218.515,377.535,215.774,380.274,212.404,380.274z"/>
			<path opacity="0.62" fill="#FFFFFF" d="M212.404,408.168H148.54c-3.37,0-6.104-2.733-6.104-6.109l0,0
				c0-3.371,2.734-6.104,6.104-6.104h63.865c3.37,0,6.11,2.733,6.11,6.104l0,0C218.515,405.435,215.774,408.168,212.404,408.168z"/>
		</g>
		<rect x="126.423" y="163.286" fill="#0C0054" width="431.174" height="31.895"/>
		<rect x="126.423" y="195.181" opacity="0.2" fill="#212226" width="431.174" height="3.621"/>
		<path fill="#FFFFFF" d="M148.189,179.234c0,2.731-2.217,4.945-4.945,4.945c-2.734,0-4.945-2.214-4.945-4.945
			s2.211-4.945,4.945-4.945C145.972,174.289,148.189,176.503,148.189,179.234z"/>
		<path fill="#FFFFFF" d="M166.103,179.234c0,2.731-2.211,4.945-4.945,4.945c-2.728,0-4.945-2.214-4.945-4.945
			s2.217-4.945,4.945-4.945C163.892,174.289,166.103,176.503,166.103,179.234z"/>
		<path fill="#FFFFFF" d="M184.023,179.234c0,2.731-2.217,4.945-4.945,4.945c-2.734,0-4.945-2.214-4.945-4.945
			s2.211-4.945,4.945-4.945C181.806,174.289,184.023,176.503,184.023,179.234z"/>
		<g>
			<path opacity="0.2" fill="#212226" d="M533.787,251.091H339.514c-6.366,0-11.531-5.163-11.531-11.531l0,0
				c0-6.368,5.165-11.531,11.531-11.531h194.273c6.366,0,11.53,5.163,11.53,11.531l0,0
				C545.317,245.929,540.153,251.091,533.787,251.091z"/>
			<path fill="#0C0054" d="M535.438,248.365H341.172c-6.372,0-11.53-5.162-11.53-11.531l0,0c0-6.368,5.158-11.53,11.53-11.53
				h194.267c6.373,0,11.531,5.162,11.531,11.53l0,0C546.97,243.203,541.812,248.365,535.438,248.365z"/>
			<g>
				
					<text transform="matrix(1 0 0 1 356.6719 240.8091)" fill="#FFFFFF" font-family="'Myriad-Roman'" font-size="13.7103" letter-spacing="1">www.loremipsum.com</text>
			</g>
			<g>
				<path fill="#552EFF" d="M459.848,372.648c0,0,3.804,99.372,4.946,114.927c1.141,15.549,10.65,87.389,6.086,96.929
					c-4.564,9.534-30.052,18.664-30.052,18.664s0.357,5.134,11.412,6.265c16.868,1.723,22.823,8.189,37.029,2.104l-5.838-20.923
					c0,0,7.608-42.604,6.848-62.384c-0.761-19.781-5.325-36.139-5.325-36.139s29.671-85.207,11.411-119.443H459.848z"/>
				<path opacity="0.2" fill="#212226" d="M459.848,372.648c0,0,1.57,40.964,2.997,74.402l30.163,17.719
					c7.197-27.977,14.973-70.343,3.357-92.121H459.848z"/>
				<path fill="#552EFF" d="M480.266,374.932c0,0-0.887,31.191-13.886,50.211c-12.998,19.021-32.778,53.256-32.778,53.256
					s6.847,26.627,8.368,43.745c1.522,17.118,3.804,39.941,3.804,39.941l14.074,17.878c0,0-14.834,10.711-20.541,14.676
					c-5.705,3.965-22.063,14.234-24.725,13.094c0,0-4.185-3.424,4.184-14.075c8.369-10.651,14.65-30.811,14.65-30.811
					s-21.116-61.626-21.497-82.167c-0.38-20.541,30.431-100.803,30.431-100.803l3.745-12.554L480.266,374.932z"/>
				<path fill="#FFADAD" d="M441.97,522.144c-0.731-8.231-2.692-18.651-4.535-27.263c-11.447-2.081-18.396,2.758-22.08,6.929
					c6.068,26.04,18.062,61.037,18.062,61.037s-6.281,20.159-14.65,30.811c-8.368,10.651-4.184,14.075-4.184,14.075
					c2.662,1.141,19.02-9.129,24.725-13.094c5.707-3.965,20.541-14.676,20.541-14.676l-14.074-17.878
					C445.773,562.085,443.492,539.262,441.97,522.144z"/>
				<path fill="#FFADAD" d="M452.24,609.433c16.868,1.723,22.823,8.189,37.029,2.104l-5.838-20.923c0,0,7.608-42.604,6.848-62.384
					c-0.064-1.824-0.179-3.614-0.309-5.367c-7.77,3.852-16.237,1.818-21.546-0.298c2.669,25.676,5.313,55.978,2.455,61.938
					c-4.564,9.534-30.052,18.664-30.052,18.664S441.186,608.302,452.24,609.433z"/>
				<path fill="#FFADAD" d="M489.715,316.118c0,0,11.792-1.603,14.64-5.216c2.858-3.613,10.467-54.396,10.467-54.396
					s11.596-1.459,15.399-8.243c0,0-7.537,0.102-13.694,0c0,0,2.858-10.586,1.141-10.777c-1.704-0.19-3.607,5.896-4.564,7.037
					c-0.944,1.141-6.847,4.81-7.03,8.871l-9.891,40.961l-9.914,2.472L489.715,316.118z"/>
				<path fill="#FFADAD" d="M462.921,242.587c0,0-1.426,6.567-4.855,9.28c-3.424,2.711-6.568,3.426-6.568,3.426l4.428,3.427
					c0,0-2.146,11.134-2.146,13.992c0,2.853,6.71,2.853,8.144,3.28c1.426,0.428,3.709,11.994,3.709,11.994h14.704l2.425-34.121
					L462.921,242.587z"/>
				<path fill="#C552E3" d="M483.331,285.701c0,0-17.699,0-20.125,0c-2.431,0,2.283,5.424,0,7.854
					c-2.288,2.425-14.561,3.139-15.418,9.421c-1.081,7.908-11.139,16.845-9.284,24.414c1.13,4.594,6.711,8.85,7.139,17.271
					c0.429,8.427-5.135,31.696-8.993,38.834c0,0,28.269,15.703,49.685,15.846c21.414,0.144,16.701-21.7,16.701-21.7
					s-14.456-21.677-3.424-72.097c0.999-4.565-11.566-11.133-11.566-11.133L483.331,285.701z"/>
				<polygon opacity="0.2" fill="#212226" points="482.618,302.394 482.761,346.266 486.268,302.394 				"/>
				<path opacity="0.2" fill="#212226" d="M445.631,309.036c-2.835,5.519-7.327,11.225-7.327,16.416l18.561-12.247L445.631,309.036z
					"/>
				<path fill="#FFADAD" d="M350.807,239.767l15.977,11.919l22.508,51.923c0,0,46.152,8.577,59.341,11.112
					c13.183,2.537,15.086-13.713,1.903-17.009c-13.189-3.295-50.408-7.797-50.408-7.797l-23.229-41.551h-2.169
					c-1.236,0-2.378-0.599-3.175-1.553c-1.283-1.548-3.839-3.635-8.07-3.189C363.484,243.623,352.328,235.709,350.807,239.767z"/>
				<path fill="#2D24A3" d="M468.917,251.297c0,0-11.707-4.464-9.996-15.009c1.712-10.546,14.42-6.978,19.276-2.837
					c0,0,15.416-0.143,22.27,13.704c6.854,13.849,2.854,25.271,4.571,35.12c1.712,9.853,4.85,24.271-10.996,27.556
					c-15.845,3.283-23.572-18.379-23.982-30.837c-0.428-12.992,1.854-19.418,1.854-19.418L468.917,251.297z"/>
				<path fill="#FFFFFF" d="M471.004,263.371c0,0-8.797-18.499,7.193-29.92c0,0,5.788-0.883,11.328,2.837
					C489.525,236.288,477.376,237.899,471.004,263.371z"/>
				<path fill="#FFFFFF" d="M433.416,562.847c0,0-6.281,20.159-14.65,30.811c-8.368,10.651-4.184,14.075-4.184,14.075
					c2.662,1.141,19.02-9.129,24.725-13.094c5.707-3.965,20.541-14.676,20.541-14.676l-14.074-17.878
					C439.058,566.904,433.416,562.847,433.416,562.847z"/>
				<path fill="#FFFFFF" d="M489.27,611.537l-5.838-20.923c-10.14,1.397-14.175-3.661-14.175-3.661l-0.048,0.012
					c-7.161,8.582-28.381,16.203-28.381,16.203s0.357,5.134,11.412,6.265C469.108,611.155,475.063,617.622,489.27,611.537z"/>
			</g>
		</g>
		<path fill="#FFFFFF" d="M522.66,185.974H417.464c-3.726,0-6.74-3.018-6.74-6.74l0,0c0-3.724,3.015-6.741,6.74-6.741H522.66
			c3.727,0,6.747,3.018,6.747,6.741l0,0C529.407,182.956,526.387,185.974,522.66,185.974z"/>
		<g>
			<rect x="252.036" y="209.834" opacity="0.2" fill="#212226" width="39.809" height="7.353"/>
			<rect x="333.184" y="209.834" opacity="0.2" fill="#212226" width="39.815" height="7.353"/>
			<rect x="414.331" y="209.834" opacity="0.2" fill="#212226" width="39.816" height="7.353"/>
			<rect x="495.485" y="209.834" opacity="0.2" fill="#212226" width="39.812" height="7.353"/>
		</g>
		<rect x="252.036" y="372.648" opacity="0.2" fill="#212226" width="93.956" height="13.38"/>
		<rect x="252.036" y="389.268" opacity="0.2" fill="#212226" width="145.939" height="13.373"/>
		<path fill="#00D9AA" d="M344.013,85.346c0,19.902-16.131,36.036-36.037,36.036c-19.898,0-36.035-16.134-36.035-36.036
			c0-19.904,16.137-36.038,36.035-36.038C327.882,49.308,344.013,65.442,344.013,85.346z"/>
		<circle fill="#00D9AA" cx="338.726" cy="16.42" r="13.721"/>
		<path fill="#E8EEFA" d="M416.857,114.609H642.05c0,0-21.302-5.046-41.843-22.823c-12.314-10.655-25.486-25.614-40.321-25.614
			c-14.765,0-19.02,18.767-35.252,20.541c-10.288,1.126-22.063-6.338-34.996-5.832c-17.296,0.678-29.166,10.145-39.94,15.47
			C439.45,101.413,416.857,114.609,416.857,114.609z"/>
		<path fill="#FFFFFF" d="M484.442,43.559H380.19c0,0,9.862-2.335,19.372-10.566c5.699-4.932,11.798-11.856,18.669-11.856
			c6.835,0,8.802,8.686,16.314,9.508c4.767,0.522,10.217-2.934,16.202-2.7c8.006,0.314,13.499,4.697,18.491,7.162
			C473.982,37.45,484.442,43.559,484.442,43.559z"/>
	</g>
</g>
</svg>
